<?xml version="1.0" standalone="no"?>
<!DOCTYPE svg PUBLIC "-//W3C//DTD SVG 1.1//EN" "http://www.w3.org/Graphics/SVG/1.1/DTD/svg11.dtd" >
<svg xmlns="http://www.w3.org/2000/svg" xmlns:xlink="http://www.w3.org/1999/xlink" version="1.1">
<metadata>
Created by FontForge 20170731 at Tue Mar 11 21:04:51 1930
 By Aleksey,,,
Copyright 1990-1993 Bitstream Inc.  All rights reserved.
</metadata>
<defs>
<font id="BelweBT-Bold" horiz-adv-x="1024" >
  <font-face 
    font-family="Belwe Bd BT"
    font-weight="400"
    font-stretch="normal"
    units-per-em="2048"
    panose-1="2 6 9 3 5 3 5 2 5 4"
    ascent="1638"
    descent="-410"
    x-height="1006"
    cap-height="1395"
    bbox="-342 -485 2198 2003"
    underline-thickness="246"
    underline-position="-590"
    unicode-range="U+0020-F002"
  />
<missing-glyph horiz-adv-x="2003" 
d="M125 0v2003h1753v-2003h-1753zM1753 125v1753h-1503v-1753h1503z" />
    <glyph glyph-name=".notdef" horiz-adv-x="2003" 
d="M125 0v2003h1753v-2003h-1753zM1753 125v1753h-1503v-1753h1503z" />
    <glyph glyph-name=".null" horiz-adv-x="0" 
 />
    <glyph glyph-name="nonmarkingreturn" horiz-adv-x="541" 
 />
    <glyph glyph-name="space" unicode=" " horiz-adv-x="541" 
 />
    <glyph glyph-name="exclam" unicode="!" horiz-adv-x="721" 
d="M360 274q63 0 107.5 -44t44.5 -107t-45.5 -107.5t-106.5 -44.5q-59 0 -105 45t-46 107q0 59 45 105t106 46zM444 430h-168v10q0 229 -65.5 473t-65.5 281q0 104 58.5 165.5t156.5 61.5q99 0 157 -61.5t58 -165.5q0 -35 -65.5 -280.5t-65.5 -475.5v-8z" />
    <glyph glyph-name="quotedbl" unicode="&#x22;" horiz-adv-x="717" 
d="M553 846h-45l-84 463l-4 22v15q0 54 29.5 86t80.5 32q52 0 81 -32q30 -30 30 -84l-1 -25l-1 -15zM207 846h-43l-86 462l-4 23v15q0 54 29.5 86t80.5 32t82 -31.5t31 -84.5l-1 -17l-3 -22z" />
    <glyph glyph-name="numbersign" unicode="#" horiz-adv-x="1575" 
d="M705 844l-84 -236h253l84 236h-253zM684 1466h248l-139 -393h241l140 393h247l-139 -393h270l-86 -229h-266l-82 -234h277l-84 -229h-275l-141 -393h-248l141 393h-241l-141 -393h-248l141 393h-276l86 229h272l82 234h-285l86 229h281z" />
    <glyph glyph-name="dollar" unicode="$" horiz-adv-x="1081" 
d="M424 1356h229v-146q93 -12 173.5 -48t152.5 -97l-160 -236q-109 115 -186 168.5t-131 53.5q-40 0 -63 -21.5t-23 -56.5q0 -41 36.5 -79t143.5 -97q234 -133 303.5 -218.5t69.5 -197.5q0 -127 -80 -219t-236 -144v-170h-229v156q-104 9 -201 59t-178 134l170 249
q116 -126 216 -193t169 -67q42 0 68 22.5t26 59.5q0 39 -38 77t-161 114l-26 16q-319 196 -319 395q0 116 74 205t200 123v158z" />
    <glyph glyph-name="percent" unicode="%" horiz-adv-x="1546" 
d="M1124 551q-30 0 -47.5 -19t-17.5 -53q0 -41 24 -114.5t66 -149.5q29 -53 55.5 -77.5t55.5 -24.5q26 0 42.5 21.5t16.5 58.5q0 36 -18.5 94t-55.5 131q-30 63 -62 98q-30 35 -59 35zM1190 690q130 0 213.5 -99.5t83.5 -258.5q0 -160 -83 -260.5t-214 -100.5
q-130 0 -213.5 100.5t-83.5 260.5t83 258q43 50 95.5 75t118.5 25zM293 1102q-30 0 -49 -19q-17 -19 -17 -53q0 -43 25 -117q11 -35 28 -73.5t37 -73.5q31 -55 56 -78.5t53 -23.5q26 0 42.5 21.5t16.5 57.5q0 37 -19 95q-10 31 -22.5 61.5t-30.5 67t-33 61t-30 40.5
q-31 34 -57 34zM1028 1241h197l-705 -1270h-196zM358 1241q130 0 213.5 -99.5t83.5 -258.5q0 -160 -83 -260.5t-214 -100.5q-130 0 -213.5 100.5t-83.5 260.5t83 258q43 50 95.5 75t118.5 25z" />
    <glyph glyph-name="ampersand" unicode="&#x26;" horiz-adv-x="1565" 
d="M469 700q-38 -38 -57 -80t-19 -92q0 -122 81 -212.5t198 -90.5q26 0 36 1.5t34 7.5t53 24q-82 83 -163 193q-75 104 -163 249zM748 881q39 -78 110 -178q75 -106 166 -216q20 31 34 75q3 10 8 35.5t5 51.5q0 39 -21.5 70t-64.5 53v131h420v-147h-145q0 -51 -8.5 -97.5
t-25.5 -103.5q-29 -102 -83 -199q64 -73 127.5 -109t128.5 -36q29 0 50.5 8.5t43.5 30.5l68 -66q-72 -106 -153.5 -159.5t-170.5 -53.5q-36 0 -72 9t-76 29q-77 39 -151 112q-90 -72 -198.5 -111t-219.5 -39q-211 0 -348 120.5t-137 303.5q0 136 83 245.5t261 215.5
q-32 57 -48 111t-16 106q0 156 120 252t315 96q165 0 259.5 -62t94.5 -167q0 -101 -79.5 -170.5t-276.5 -140.5zM674 997q65 43 97 89.5t32 97.5q0 53 -23.5 82.5t-68.5 29.5q-43 0 -71 -32.5t-28 -83.5q0 -31 12 -69q6 -18 18 -46t32 -68z" />
    <glyph glyph-name="quotesingle" unicode="'" horiz-adv-x="371" 
d="M207 846h-43l-86 462l-4 23v15q0 53 30.5 85.5t81.5 32.5q52 0 81 -32q30 -30 30 -84l-1 -17l-3 -22z" />
    <glyph glyph-name="parenleft" unicode="(" horiz-adv-x="682" 
d="M496 1421l133 -92q-98 -169 -147.5 -359.5t-49.5 -398.5q0 -211 48.5 -397.5t148.5 -359.5l-133 -95q-200 178 -302 392q-50 108 -75 221.5t-25 238.5q0 248 100.5 460t301.5 390z" />
    <glyph glyph-name="parenright" unicode=")" horiz-adv-x="682" 
d="M186 1421q199 -177 301 -392q51 -108 76 -221t25 -239q0 -121 -25 -236t-76 -222q-100 -212 -301 -392l-131 95q99 172 148 360.5t49 394.5q0 210 -48.5 396t-148.5 362z" />
    <glyph glyph-name="asterisk" unicode="*" 
d="M385 1395h254l-78 -363l322 182l75 -237l-366 -39l272 -250l-200 -147l-152 340l-152 -340l-200 147l272 250l-366 39l75 237l322 -182z" />
    <glyph glyph-name="plus" unicode="+" horiz-adv-x="1706" 
d="M735 1221h238v-494h479v-231h-479v-496h-238v496h-481v231h481v494z" />
    <glyph glyph-name="comma" unicode="," horiz-adv-x="541" 
d="M209 -176l-35 78q32 16 55 38.5t33 44.5q-53 0 -93 43q-36 39 -36 95q0 62 41 102.5t107 40.5t106.5 -49t40.5 -129q0 -88 -58 -159t-161 -105z" />
    <glyph glyph-name="hyphen" unicode="-" horiz-adv-x="645" 
d="M57 653h531v-282h-531v282z" />
    <glyph glyph-name="period" unicode="." horiz-adv-x="541" 
d="M270 274q63 0 107.5 -44t44.5 -107t-45.5 -107.5t-106.5 -44.5q-59 0 -105 45t-46 107q0 59 45 105t106 46z" />
    <glyph glyph-name="slash" unicode="/" horiz-adv-x="711" 
d="M508 1421h201l-557 -1611h-201z" />
    <glyph glyph-name="zero" unicode="0" horiz-adv-x="1081" 
d="M756 330q0 75 -42 217.5t-112 286.5q-45 92 -90.5 140t-89.5 48q-42 0 -70 -38q-26 -38 -26 -101q0 -78 41 -216q21 -73 47.5 -142.5t62.5 -143.5q45 -94 90.5 -142.5t91.5 -48.5q42 0 69.5 38.5t27.5 101.5zM541 1241q210 0 345.5 -176t135.5 -459q0 -282 -134.5 -458.5
t-346.5 -176.5q-210 0 -346 176t-136 459t134.5 459t347.5 176z" />
    <glyph glyph-name="one" unicode="1" horiz-adv-x="1081" 
d="M662 1214h57l-3 -36l-1 -48v-34v-973h94v-123h-520v123h94v797l-123 -52v131q145 57 267.5 135.5t134.5 79.5z" />
    <glyph glyph-name="two" unicode="2" horiz-adv-x="1081" 
d="M526 270h197q69 0 101 24t44 85h115l-33 -422h-108l-8 43h-664l-29 174q237 147 369.5 318.5t132.5 324.5q0 108 -62.5 186t-140.5 78q-42 0 -69 -28q-25 -28 -25 -74q0 -55 53 -104t142 -76l-172 -314q-134 25 -213.5 114t-79.5 214q0 170 149.5 300t349.5 130
q185 0 308 -99t123 -249q0 -130 -112 -276q-56 -73 -147.5 -159.5t-220.5 -189.5z" />
    <glyph glyph-name="three" unicode="3" horiz-adv-x="1081" 
d="M63 147l248 246q75 -111 139.5 -162t131.5 -51q58 0 94.5 36t36.5 89q0 93 -98 177.5t-207 84.5l-40 -3q-9 -1 -23.5 -4t-29.5 -7l-59 82l322 323h-154q-70 0 -117 -18.5t-90 -65.5l-108 41l159 379l101 -37l-13 -43h516l58 -143l-254 -258q136 -21 219.5 -113.5
t83.5 -220.5q0 -206 -152.5 -357t-369.5 -151q-108 0 -204.5 44t-189.5 132z" />
    <glyph glyph-name="four" unicode="4" horiz-adv-x="1081" 
d="M563 842l-303 -408h291zM680 1214h197l-4 -36l-1 -48v-34v-662l129 12l-38 -178h-91v-145h95v-123h-531v123h111v145h-457v150z" />
    <glyph glyph-name="five" unicode="5" horiz-adv-x="1081" 
d="M379 801q42 20 88.5 30.5t95.5 10.5q175 0 283 -105t108 -276q0 -202 -140 -346t-341 -144q-104 0 -200 45q-49 23 -90 55t-85 79l234 264q90 -91 161 -132q38 -20 72 -30t70 -10q27 0 47 7.5t38 24.5q34 32 34 82q0 85 -86.5 152t-196.5 67q-47 0 -90 -11.5t-82 -37.5
l-147 54l151 634h467l14 52h115l-65 -318l-55 6l-38 4h-323z" />
    <glyph glyph-name="six" unicode="6" horiz-adv-x="1081" 
d="M502 629q-33 0 -56.5 -25t-23.5 -59q0 -54 28.5 -130t75.5 -143q36 -49 76 -78.5t74 -29.5q33 0 57.5 25.5t24.5 66.5q0 57 -33.5 137t-87.5 150q-33 42 -68 64q-16 10 -33 16t-34 6zM946 1133l-246 -230q-50 66 -98 99.5t-96 33.5q-64 0 -98.5 -55t-34.5 -158l1 -59
l3 -39q32 25 63 42.5t65 29.5q66 24 138 24q163 0 269 -112t106 -285q0 -183 -139 -318t-332 -135q-210 0 -347 162.5t-137 415.5q0 292 176 492t425 200q93 0 162 -26t120 -82z" />
    <glyph glyph-name="seven" unicode="7" horiz-adv-x="1081" 
d="M242 1294l118 -14l2 -66h539l60 -127q-135 -245 -201 -512q-33 -132 -50.5 -279.5t-17.5 -295.5h-375v59q0 214 97 433q48 110 123 226.5t176 239.5h-269q-81 0 -111.5 -19.5t-51.5 -78.5l-123 25z" />
    <glyph glyph-name="eight" unicode="8" horiz-adv-x="1081" 
d="M432 563q-32 -17 -51 -47t-19 -63q0 -89 102 -178t198 -89q49 0 78.5 27.5t29.5 71.5q0 49 -65.5 104t-272.5 174zM801 686q89 -54 132.5 -125.5t43.5 -165.5q0 -175 -136.5 -299.5t-332.5 -124.5q-185 0 -294.5 91t-109.5 245q0 97 50.5 179.5t150.5 150.5
q-79 50 -117 110.5t-38 133.5q0 146 123.5 253t293.5 107q165 0 272 -85t107 -212q0 -70 -32.5 -128.5t-112.5 -129.5zM672 764q20 23 31 49q4 10 7 24.5t3 28.5q0 63 -79.5 137t-148.5 74q-35 0 -58 -24q-21 -24 -21 -64q0 -48 48.5 -92.5t217.5 -132.5z" />
    <glyph glyph-name="nine" unicode="9" horiz-adv-x="1081" 
d="M135 80l244 229q48 -66 96.5 -99.5t99.5 -33.5q65 0 99.5 55t34.5 158l-1 62l-3 38q-60 -46 -127.5 -71t-141.5 -25q-162 0 -267.5 111.5t-105.5 286.5q0 182 138.5 316t330.5 134q210 0 348 -162.5t138 -414.5q0 -292 -176 -492.5t-424 -200.5q-92 0 -162.5 26.5
t-120.5 82.5zM403 1051q-33 0 -56 -25.5t-23 -64.5q0 -59 32.5 -140t87.5 -151q32 -41 66 -64q17 -10 33 -15t35 -5q32 0 55.5 24.5t23.5 63.5q0 50 -28 124.5t-76 143.5q-32 49 -74 79t-76 30z" />
    <glyph glyph-name="colon" unicode=":" horiz-adv-x="541" 
d="M270 274q63 0 107.5 -44t44.5 -107t-45.5 -107.5t-106.5 -44.5q-59 0 -105 45t-46 107q0 59 45 105t106 46zM270 815q63 0 107.5 -44t44.5 -107t-45.5 -107.5t-106.5 -44.5q-60 0 -105.5 45.5t-45.5 106.5q0 59 45 105t106 46z" />
    <glyph glyph-name="semicolon" unicode=";" horiz-adv-x="541" 
d="M209 -176l-35 78q32 16 55 38.5t33 44.5q-53 0 -93 43q-36 39 -36 95q0 62 41 102.5t107 40.5t106.5 -49t40.5 -129q0 -88 -58 -159t-161 -105zM270 815q63 0 107.5 -44t44.5 -107t-45.5 -107.5t-106.5 -44.5q-60 0 -105.5 45.5t-45.5 106.5q0 59 45 105t106 46z" />
    <glyph glyph-name="less" unicode="&#x3c;" horiz-adv-x="1706" 
d="M1442 1214v-253l-854 -351l854 -348v-254l-1178 486v233z" />
    <glyph glyph-name="equal" unicode="=" horiz-adv-x="1706" 
d="M254 502h1198v-230h-1198v230zM254 950h1198v-231h-1198v231z" />
    <glyph glyph-name="greater" unicode="&#x3e;" horiz-adv-x="1706" 
d="M264 1214l1178 -487v-233l-1178 -486v254l854 348l-854 351v253z" />
    <glyph glyph-name="question" unicode="?" horiz-adv-x="985" 
d="M455 274q63 0 107 -44t44 -107t-45.5 -107.5t-105.5 -44.5q-59 0 -105.5 45t-46.5 107q0 59 45 105t107 46zM557 432h-223l-1 8l-3 86q0 77 26 148.5t82 150.5l35 48q94 130 94 210q0 73 -36.5 126t-88.5 53q-41 0 -66.5 -33t-25.5 -88q0 -24 3 -47t11 -50
q13 -50 42 -106l-291 -133q-25 57 -38.5 113.5t-13.5 109.5q0 170 132.5 282.5t339.5 112.5q181 0 298 -96t117 -242q0 -176 -195 -331l-57 -45q-82 -70 -111.5 -128.5t-29.5 -140.5v-8z" />
    <glyph glyph-name="at" unicode="@" horiz-adv-x="2019" 
d="M1171 313q-60 -95 -129.5 -143.5t-148.5 -48.5q-155 0 -240.5 90.5t-85.5 255.5q0 117 50 223t147 197q65 60 149 94.5t168 34.5q97 0 150 -43.5t67 -132.5l48 157h208l-174 -624l-11 -53l-3 -35q0 -46 18.5 -72.5t51.5 -26.5q30 0 84.5 27.5t101.5 69.5
q96 87 147.5 211.5t51.5 273.5q0 121 -33.5 220t-101.5 171q-99 108 -235 165.5t-300 57.5q-139 0 -264 -39t-234 -118q-165 -120 -254.5 -303.5t-89.5 -403.5q0 -336 205 -531.5t557 -195.5q165 0 316 49t315 158l41 -57q-148 -111 -320.5 -169.5t-351.5 -58.5
q-432 0 -687 224.5t-255 601.5q0 201 87 380t253 314q136 111 303 169t350 58q348 0 559 -190t211 -504q0 -84 -14 -157t-45 -145q-58 -137 -172 -239q-57 -50 -128 -80q-36 -14 -69.5 -21t-70.5 -7q-98 0 -155.5 51.5t-66.5 144.5zM1128 942q-60 0 -109.5 -43.5
t-98.5 -140.5q-56 -109 -88 -219q-15 -53 -23 -99.5t-8 -87.5q0 -71 32.5 -113t86.5 -42q58 0 114.5 60t108.5 181q41 96 66.5 198.5t25.5 166.5q0 66 -27.5 102.5t-79.5 36.5z" />
    <glyph glyph-name="A" unicode="A" horiz-adv-x="1403" 
d="M588 1042l-178 -516h350zM514 1395h373l430 -1239h74v-156h-629v156h119l-60 186h-475l-63 -186h120v-156h-405v156h90z" />
    <glyph glyph-name="B" unicode="B" horiz-adv-x="1403" 
d="M627 739v-424q0 -76 28.5 -112.5t89.5 -36.5q85 0 134 78.5t49 216.5q0 134 -63 206t-181 72h-57zM627 909h59q85 0 130.5 42t45.5 116q0 76 -46 116t-136 40h-53v-314zM109 0v156h100v1081h-100v158h694q113 0 196 -18t141 -56q113 -74 113 -219q0 -111 -73.5 -178.5
t-216.5 -87.5q173 -19 274.5 -126t101.5 -270q0 -201 -135 -321q-67 -59 -159 -89t-209 -30h-727z" />
    <glyph glyph-name="C" unicode="C" horiz-adv-x="1290" 
d="M1090 1280l65 53l86 -119l-434 -352l-84 101q25 22 36 50q3 8 8 25t5 37q0 61 -37.5 103.5t-93.5 42.5q-86 0 -139 -87t-53 -233q0 -258 121.5 -435t301.5 -177q94 0 171.5 38.5t146.5 118.5l106 -96q-122 -192 -271.5 -285.5t-334.5 -93.5q-276 0 -452.5 189.5
t-176.5 484.5q0 148 46.5 276.5t138.5 237.5q104 125 238 194q66 34 133.5 51t140.5 17q101 0 185.5 -35t146.5 -106z" />
    <glyph glyph-name="D" unicode="D" horiz-adv-x="1485" 
d="M635 1208v-1024h43q136 0 213 138q38 70 57 166t19 225q0 247 -76 371t-227 124h-29zM109 1395h563q353 0 551 -181t198 -501q0 -183 -60.5 -322t-189.5 -244q-94 -76 -216 -113q-58 -16 -140 -25t-182 -9h-524v156h100v1081h-100v158z" />
    <glyph glyph-name="E" unicode="E" horiz-adv-x="1319" 
d="M1139 1395v-291h-142l-2 57q-32 30 -99.5 46t-174.5 16h-86v-305h362v102h142v-375h-142v88h-362v-557h86q92 0 160.5 24t115.5 74v91h142v-365h-1030v156h100v1081h-100v158h1030z" />
    <glyph glyph-name="F" unicode="F" horiz-adv-x="1233" 
d="M109 1395h1030v-291h-142l-2 57q-44 30 -107.5 46t-135.5 16h-117v-305h362v102h142v-375h-142v88h-362v-577h143v-156h-669v156h100v1081h-100v158z" />
    <glyph glyph-name="G" unicode="G" horiz-adv-x="1479" 
d="M963 692h-238v150h469q38 0 77.5 6.5t71.5 19.5l56 -94q-26 -28 -39.5 -61t-13.5 -66v-647h-113l-92 147q-102 -87 -220 -131.5t-247 -44.5q-275 0 -444 180t-169 478q0 80 12 152.5t38 142.5q49 136 147 245q105 120 249.5 186t301.5 66q100 0 190.5 -30.5t169.5 -92.5
l80 50l84 -127l-430 -283l-80 111q14 15 21 33q4 9 6 17.5t2 20.5q0 50 -37.5 84.5t-93.5 34.5q-113 0 -182.5 -107t-69.5 -286q0 -258 117 -435.5t291 -177.5l48 3q17 0 38 8v448z" />
    <glyph glyph-name="H" unicode="H" horiz-adv-x="1630" 
d="M109 1395h626v-158h-100v-322h360v322h-100v158h627v-158h-101v-1081h101v-156h-627v156h100v573h-360v-573h100v-156h-626v156h100v1081h-100v158z" />
    <glyph glyph-name="I" unicode="I" horiz-adv-x="844" 
d="M109 1395h626v-158h-100v-1081h100v-156h-626v156h100v1081h-100v158z" />
    <glyph glyph-name="J" unicode="J" horiz-adv-x="829" 
d="M133 1395h625v-158h-99v-774q0 -130 -21 -210t-71 -138q-54 -66 -138.5 -105t-172.5 -39q-76 0 -123 8q-51 7 -84 24l-18 208l31 -8l26 -2q75 0 109 42t34 146v848h-98v158z" />
    <glyph glyph-name="K" unicode="K" horiz-adv-x="1507" 
d="M109 1395h616v-158h-98v-395l389 395h-96v158h446v-158h-88l-287 -285l402 -796h86v-156h-494l-18 41l-17 43l-256 582l-67 -62v-448h98v-156h-616v156h100v1081h-100v158z" />
    <glyph glyph-name="L" unicode="L" horiz-adv-x="1139" 
d="M109 1395h684v-158h-158v-1067h78q135 0 194.5 48.5t75.5 172.5h133l-39 -452h-139l-2 61h-827v156h100v1081h-100v158z" />
    <glyph glyph-name="M" unicode="M" horiz-adv-x="1759" 
d="M162 1395h467l39 -118l26 -72l191 -492l231 522l31 84l20 75l459 1v-158h-117l95 -1081h90v-156h-617v156h119l-51 792q-110 -255 -180 -496q-34 -120 -57.5 -231.5t-37.5 -220.5h-206q-24 222 -87 462.5t-161 485.5l-80 -792h125v-156h-393v156h82l112 1081h-100v158z
" />
    <glyph glyph-name="N" unicode="N" horiz-adv-x="1470" 
d="M109 1395h464l504 -733v575h-100v158h383v-158h-98v-1237h-248q-11 27 -19.5 44t-24.5 43q-25 47 -59 95l-518 758v-784h119v-156h-403v156h100v1081h-100v158z" />
    <glyph glyph-name="O" unicode="O" horiz-adv-x="1554" 
d="M698 1241q-100 0 -154 -90q-26 -46 -39 -110t-13 -152q0 -61 7 -125.5t22 -130.5q30 -134 85 -252q51 -114 114.5 -171.5t137.5 -57.5q100 0 152.5 91t52.5 263q0 123 -29.5 256.5t-82 248t-116.5 172.5t-137 58zM778 1421q308 0 511.5 -205t203.5 -520t-203 -520
t-512 -205t-513 205t-204 520q0 316 204 520.5t513 204.5z" />
    <glyph glyph-name="P" unicode="P" horiz-adv-x="1432" 
d="M635 1229v-533q0 -40 7 -69.5t22 -48.5q29 -35 94 -35q88 0 133 77.5t45 223.5q0 179 -76 282t-207 103h-18zM109 1395h602q318 0 495.5 -134t177.5 -370q0 -222 -153.5 -363t-394.5 -141q-56 0 -105 9t-96 30v-270h129v-156h-655v156h100v1081h-100v158z" />
    <glyph glyph-name="Q" unicode="Q" horiz-adv-x="1554" 
d="M870 -23q103 0 299 -83q100 -42 178.5 -64.5t136.5 -22.5l-295 -266q-41 0 -104 25q-54 21 -137 72q-154 94 -228.5 122.5t-137.5 28.5q-25 0 -50 -3t-54 -10q-52 -14 -95 -38l-96 162q50 0 123 16q37 8 97.5 24.5t143.5 43.5q-269 46 -429.5 239.5t-160.5 472.5
q0 316 204 520.5t513 204.5q308 0 511.5 -205t203.5 -520q0 -145 -42 -265t-128 -219q-169 -194 -453 -235zM698 1241q-100 0 -154 -90q-26 -46 -39 -110t-13 -152q0 -61 7 -125.5t22 -130.5q30 -134 85 -252q51 -114 114.5 -171.5t137.5 -57.5q100 0 152.5 91t52.5 263
q0 123 -29.5 256.5t-82 248t-116.5 172.5t-137 58z" />
    <glyph glyph-name="R" unicode="R" horiz-adv-x="1460" 
d="M627 1223v-592h59q116 0 189 82t73 215t-77.5 214t-208.5 81h-35zM109 1395h624q284 0 453.5 -123.5t169.5 -329.5q0 -132 -75.5 -236.5t-211.5 -158.5q23 -18 42 -45q19 -23 40 -64l152 -282h86v-156h-489q-8 49 -19 84q-6 21 -11 37t-14 35l-143 313h-86v-313h98v-156
h-616v156h100v1081h-100v158z" />
    <glyph glyph-name="S" unicode="S" horiz-adv-x="1280" 
d="M1032 1321l47 65l119 -73l-221 -348q-150 127 -252.5 189.5t-165.5 62.5q-49 0 -81 -24.5t-32 -62.5q0 -47 51 -89q48 -37 183 -89l71 -26q262 -97 341 -172q54 -52 82 -119t28 -139q0 -216 -170.5 -370.5t-410.5 -154.5q-83 0 -159.5 14t-157.5 45q-153 60 -292 175
l238 344q164 -174 297 -259t237 -85q69 0 112.5 33.5t43.5 87.5q0 33 -35 64t-121 67q-52 22 -212.5 80.5t-229.5 101.5q-91 56 -141.5 138.5t-50.5 176.5q0 182 158 325.5t366 143.5q80 0 167.5 -25t190.5 -77z" />
    <glyph glyph-name="T" unicode="T" horiz-adv-x="1237" 
d="M74 1446h141l8 -51h793l6 51h141l29 -426h-135q-14 95 -63.5 141.5t-137.5 46.5h-25v-1052h121v-156h-667v156h121v1052h-25q-87 0 -135.5 -45.5t-63.5 -142.5h-137z" />
    <glyph glyph-name="U" unicode="U" horiz-adv-x="1630" 
d="M109 1395h526v-987q0 -99 45 -147t139 -48q84 0 130 55q22 27 34 66.5t12 91.5v811h-100v158h526v-1239h101v-156h-506l-19 135q-84 -81 -181 -122.5t-206 -41.5q-190 0 -295.5 115.5t-105.5 329.5v821h-100v158z" />
    <glyph glyph-name="V" unicode="V" horiz-adv-x="1352" 
d="M1028 1063l-15 -6l-16 -2q-24 0 -80.5 15t-91.5 15q-69 0 -120 -40.5t-84 -120.5l172 -539zM1272 1401l65 -72q-37 -62 -83 -188l-5 -13l-325 -923q-20 -58 -33 -107l-21 -98h-376q-9 37 -24 85l-36 114l-348 1038h-78v158h588v-158h-74l66 -213q69 182 174.5 282.5
t222.5 100.5q40 0 104.5 -15.5t92.5 -15.5q23 0 46.5 6t43.5 19z" />
    <glyph glyph-name="W" unicode="W" horiz-adv-x="2005" 
d="M1683 1062l-14 -5l-16 -2q-23 0 -81.5 15t-94.5 15q-56 0 -103 -36q-43 -36 -88 -121l154 -578zM1927 1401l66 -72q-40 -66 -84 -188l-4 -13l-326 -923q-20 -58 -33 -107l-21 -98h-356q-11 50 -27 104l-28 95l-115 352l-120 -346q-16 -45 -29.5 -99t-22.5 -106h-360
q-9 44 -24 93l-31 106l-326 1038h-78v158h580v-158h-80l237 -887l170 479l-120 408h-78v158h538v-158h-51l51 -193q97 179 194.5 271t190.5 92q40 0 105 -15.5t92 -15.5q23 0 46.5 6t43.5 19z" />
    <glyph glyph-name="X" unicode="X" horiz-adv-x="1395" 
d="M100 1395h680v-158h-127l195 -336l182 336h-100v158h381v-158h-74l-279 -522l322 -559h72v-156h-680v156h131l-240 419l-246 -419h134v-156h-412v156h65l351 602l-279 479h-76v158z" />
    <glyph glyph-name="Y" unicode="Y" horiz-adv-x="1280" 
d="M-6 1395h663v-158h-116l221 -391l231 391h-125v158h408v-158h-70l-567 -965q34 17 65.5 27t57.5 10t75 -9t70 -9q49 0 78.5 20t54.5 68l88 -23l-90 -350q-32 -17 -75 -26t-95 -9t-157.5 21.5t-157.5 21.5q-37 0 -76 -7q-19 -3 -43.5 -9t-56.5 -16l-82 77l240 398
l-478 780h-63v158z" />
    <glyph glyph-name="Z" unicode="Z" horiz-adv-x="1139" 
d="M156 1456h147l2 -61h692l76 -203l-69 -85l-99 -122l-508 -618q48 -8 106 -13l101 -4q164 0 244 34t104 114h129l-39 -564h-141l-6 66h-764l-90 221l704 862q-23 4 -56 8.5t-61 7.5q-24 0 -39 1q-60 4 -65 4q-115 0 -181 -39.5t-97 -130.5h-144z" />
    <glyph glyph-name="bracketleft" unicode="[" horiz-adv-x="682" 
d="M162 1395h487v-162h-166v-1352h166v-162h-487v1676z" />
    <glyph glyph-name="backslash" unicode="\" horiz-adv-x="711" 
d="M2 1421h201l559 -1611h-201z" />
    <glyph glyph-name="bracketright" unicode="]" horiz-adv-x="682" 
d="M33 1393h489v-1674h-489v162h166v1352h-166v160z" />
    <glyph glyph-name="asciicircum" unicode="^" horiz-adv-x="2048" 
d="M893 1462h260l479 -565h-121l-489 348l-490 -348h-120z" />
    <glyph glyph-name="underscore" unicode="_" 
d="M0 -244h1024v-239h-1024v239z" />
    <glyph glyph-name="grave" unicode="`" 
d="M207 1516h287l192 -371h-154z" />
    <glyph glyph-name="a" unicode="a" horiz-adv-x="1200" 
d="M663 533l-35 4l-16 2q-84 0 -132 -51.5t-48 -139.5q0 -79 29 -118.5t86 -39.5q53 0 85 36t32 93zM322 1077l108 -39l-20 -57q61 26 127 39.5t133 13.5q164 0 261 -87t97 -238v-582h72v-127h-406l-28 96q-68 -60 -141 -94q-35 -15 -69.5 -23t-70.5 -8q-144 0 -235 89
t-91 229q0 184 130.5 277t390.5 93l34 -1l49 -3l1 54q0 49 -35 78.5t-94 29.5q-62 0 -120.5 -32.5t-105.5 -94.5l-121 47z" />
    <glyph glyph-name="b" unicode="b" horiz-adv-x="1214" 
d="M522 369q0 -100 36.5 -154.5t105.5 -54.5q72 0 114.5 67t42.5 181q0 171 -59.5 279t-151.5 108q-21 0 -40.5 -6.5t-47.5 -22.5v-397zM598 1413v-129l-76 -24v-355q93 66 167 98q36 15 70 23t66 8q143 0 237.5 -112t94.5 -281q0 -138 -54.5 -262.5t-160.5 -222.5
q-94 -90 -204 -138q-53 -23 -109.5 -35t-116.5 -12q-90 0 -185 31t-171 84v1057l-70 -23v129z" />
    <glyph glyph-name="c" unicode="c" horiz-adv-x="1020" 
d="M969 823l-279 -268q-38 139 -93 216t-118 77q-47 0 -76 -42q-26 -43 -26 -120q0 -182 78.5 -301t199.5 -119q66 0 127 34t105 95l94 -69q-81 -173 -205 -264t-278 -91q-193 0 -318 134t-125 339q0 239 165.5 414.5t383.5 175.5q111 0 203.5 -53.5t161.5 -157.5z" />
    <glyph glyph-name="d" unicode="d" horiz-adv-x="1262" 
d="M721 702q0 79 -38 129t-95 50q-79 0 -124.5 -80t-45.5 -223q0 -168 57 -267.5t154 -99.5q27 0 50.5 9t41.5 28v454zM1161 1413v-129l-76 -24v-1133h72v-127h-409l-27 115q-37 -37 -71 -63t-72 -45q-72 -36 -142 -36q-168 0 -274.5 132t-106.5 343q0 253 139.5 420.5
t340.5 167.5q58 0 99 -11q45 -9 87 -34v154l-72 -23v129z" />
    <glyph glyph-name="e" unicode="e" horiz-adv-x="1090" 
d="M866 557l-397 -162q45 -88 111 -134t153 -46q36 0 67 6t64 20q58 25 113 78l74 -79q-104 -136 -231.5 -202.5t-284.5 -66.5q-209 0 -343.5 148.5t-134.5 378.5q0 228 146.5 382t351.5 154q106 0 192 -39t156 -118q53 -60 94 -143.5t41 -112.5q0 -12 -59 -26.5t-113 -37.5
zM674 653q-34 107 -82.5 163t-104.5 56q-46 0 -74 -41q-26 -41 -26 -114q0 -47 6.5 -84t11.5 -55q2 -6 11 -31z" />
    <glyph glyph-name="f" unicode="f" horiz-adv-x="758" 
d="M883 1294l-230 -194q-22 79 -53.5 123.5t-69.5 44.5q-25 0 -40 -19q-13 -20 -13 -53q0 -91 66.5 -162t161.5 -71h59l-66 -162h-153v-674h119v-127h-555v127h71v674h-121l66 162h104q-32 43 -45.5 76.5t-13.5 68.5q0 53 33 104t100 97q74 50 168 81q47 15 89.5 23t80.5 8
q84 0 141 -30.5t101 -96.5z" />
    <glyph glyph-name="g" unicode="g" horiz-adv-x="1081" 
d="M391 780q0 -162 63 -291t138 -129q48 0 76 38t28 104q0 165 -63 288t-146 123q-45 0 -70.5 -35.5t-25.5 -97.5zM555 -29q-24 -33 -36 -66q-5 -15 -8 -32.5t-3 -34.5q0 -52 23 -81t63 -29q33 0 53.5 22t20.5 57q0 53 -30 97t-83 67zM33 135q119 25 210.5 55.5t164.5 67.5
q-163 35 -258 137.5t-95 239.5q0 169 140.5 284t347.5 115q51 0 99.5 -6t92.5 -18q33 113 72.5 150.5t120.5 37.5q21 0 34 -2l37 -6l-41 -193q-23 13 -39.5 19t-29.5 6q-17 0 -29 -9q-8 -8 -10 -24l91 -108q91 -108 91 -240q0 -167 -129 -279t-403 -180q261 -33 376 -99.5
t115 -182.5q0 -117 -123.5 -198t-304.5 -81q-156 0 -244 51.5t-88 143.5q0 68 48 116.5t145 77.5l-88 11l-62 4h-32q-16 -3 -26 -4t-27 -4t-35 -7z" />
    <glyph glyph-name="h" unicode="h" horiz-adv-x="1366" 
d="M616 1413v-129l-75 -24v-402q106 90 197 133t169 43q135 0 211 -82t76 -227v-598h72v-127h-508v127h71v535q0 64 -27.5 97.5t-82.5 33.5q-43 0 -88.5 -21.5t-89.5 -60.5v-584h71v-127h-508v127h72v1016l-72 -23v129z" />
    <glyph glyph-name="i" unicode="i" horiz-adv-x="721" 
d="M541 1034h14l-8 -107l-2 -69v-731h71v-127h-507v127h71v686l-71 -12v114zM399 1352q73 0 117.5 -33.5t44.5 -87.5q0 -73 -73 -123.5t-177 -50.5q-63 0 -101 32t-38 85q0 69 69.5 123.5t157.5 54.5z" />
    <glyph glyph-name="j" unicode="j" horiz-adv-x="678" 
d="M537 1034h12l-6 -72l-2 -104v-672q0 -264 -114 -389q-59 -64 -153.5 -101.5t-218.5 -37.5l-28 96q82 40 115.5 101.5t33.5 185.5v772l-72 -12v114zM393 1352q73 0 118.5 -33.5t45.5 -87.5q0 -73 -73 -123.5t-177 -50.5q-63 0 -101 32t-38 85q0 69 68 123.5t157 54.5z" />
    <glyph glyph-name="k" unicode="k" horiz-adv-x="1262" 
d="M537 729v-301l211 154h26l60 -76q20 20 31.5 48.5t11.5 63.5q0 71 -53.5 123t-133.5 52q-44 0 -82 -17q-39 -15 -71 -47zM612 1413v-129l-75 -24v-392q101 87 186.5 126.5t167.5 39.5q124 0 209.5 -83.5t85.5 -205.5q0 -114 -75 -197t-218 -124l235 -297h97v-127h-428
l-260 379v-252h69v-127h-502v127h72v1016l-72 -23v129z" />
    <glyph glyph-name="l" unicode="l" horiz-adv-x="717" 
d="M616 1413v-129l-75 -24v-1133h71v-127h-508v127h72v1016l-72 -23v129z" />
    <glyph glyph-name="m" unicode="m" horiz-adv-x="1954" 
d="M541 1034h14l-16 -151q105 79 186.5 115t151.5 36q88 0 159.5 -43.5t106.5 -120.5q102 84 189 124t163 40q135 0 211 -82t76 -227v-598h71v-127h-507v127h71v535q0 69 -26 100t-82 31q-34 0 -68.5 -14.5t-77.5 -47.5v-604h72v-127h-508v127h72v535q0 69 -26 100t-83 31
q-33 0 -68.5 -14.5t-76.5 -47.5v-604h71v-127h-507v127h71v686l-71 -12v114z" />
    <glyph glyph-name="n" unicode="n" horiz-adv-x="1370" 
d="M541 1034h14l-10 -176q106 90 197 133t169 43q134 0 211.5 -82t77.5 -227v-598h70v-127h-506v127h70v535q0 64 -27.5 97.5t-83.5 33.5q-43 0 -88.5 -21.5t-89.5 -60.5v-584h71v-127h-507v127h71v686l-71 -12v114z" />
    <glyph glyph-name="o" unicode="o" horiz-adv-x="1251" 
d="M819 375q0 202 -81.5 354t-176.5 152q-60 0 -94.5 -62.5t-34.5 -175.5q0 -210 78.5 -364t175.5 -154q64 0 98.5 64t34.5 186zM627 1034q244 0 405.5 -150.5t161.5 -381.5q0 -230 -160 -380.5t-407 -150.5q-245 0 -407.5 150t-162.5 381q0 232 162 382t408 150z" />
    <glyph glyph-name="p" unicode="p" horiz-adv-x="1270" 
d="M541 336q0 -113 33.5 -169t103.5 -56q79 0 120.5 83t41.5 244q0 188 -62 287.5t-178 99.5l-49 -3l-10 -1v-485zM526 1034h13l2 -104q72 51 141.5 77.5t136.5 26.5q165 0 280 -139t115 -350q0 -241 -140 -407.5t-343 -166.5q-60 0 -108 14.5t-82 43.5v-242h127v-129h-564
v129h72v1026l-72 -12v114z" />
    <glyph glyph-name="q" unicode="q" horiz-adv-x="1270" 
d="M729 682q0 96 -36.5 147.5t-104.5 51.5q-81 0 -128.5 -74.5t-47.5 -204.5q0 -177 65 -291t162 -114q7 0 17.5 0.5t28.5 4.5t44 15v465zM924 928l184 92l-9 -97l-3 -59v-1077h69v-129h-563v129h127v295q-72 -53 -144 -82t-136 -29q-166 0 -279 132.5t-113 332.5
q0 245 172.5 421.5t403.5 176.5q39 0 75 -6t73 -20q71 -26 143 -80z" />
    <glyph glyph-name="r" unicode="r" horiz-adv-x="944" 
d="M856 1044l109 -38l-121 -342q-55 21 -100 34q-18 5 -35.5 8t-32.5 3q-60 0 -95.5 -41.5t-35.5 -114.5v-426h104v-127h-540v127h71v514q0 40 -6.5 53.5t-26.5 26.5l-38 -31l-74 82l221 262q93 -42 147 -92t78 -115q85 129 128.5 168t90.5 39q27 0 60 -10q32 -8 74 -27z
" />
    <glyph glyph-name="s" unicode="s" horiz-adv-x="901" 
d="M827 922l-149 -236q-86 100 -153.5 150.5t-118.5 50.5q-29 0 -46.5 -16t-17.5 -44q0 -30 33 -62q33 -30 135 -81q222 -111 284 -181.5t62 -168.5q0 -150 -127.5 -256.5t-316.5 -106.5q-110 0 -213.5 36.5t-192.5 109.5l168 260q107 -119 194.5 -180.5t145.5 -61.5
q33 0 51.5 16.5t18.5 47.5q0 52 -183 150l-31 17q-274 148 -274 326q0 151 106.5 246.5t280.5 95.5q91 0 175.5 -27.5t168.5 -84.5z" />
    <glyph glyph-name="t" unicode="t" horiz-adv-x="768" 
d="M434 1262l103 -23v-244h178l-21 -118q-3 -30 -9.5 -36.5t-20.5 -6.5h-127v-517q0 -78 20 -109.5t68 -31.5q18 0 38.5 6.5t45.5 22.5l53 -78q-73 -74 -158.5 -115t-167.5 -41q-138 0 -202 66t-64 217v580h-94v116q136 39 225.5 117.5t132.5 194.5z" />
    <glyph glyph-name="u" unicode="u" horiz-adv-x="1327" 
d="M522 1034h15v-690q0 -64 25.5 -97.5t76.5 -33.5q35 0 75 18t72 50v532l-69 -12v114l422 119h12v-907h72v-127h-412l-43 123q-78 -72 -158 -112t-153 -40q-134 0 -210.5 81.5t-76.5 228.5v532l-70 -12v114z" />
    <glyph glyph-name="v" unicode="v" horiz-adv-x="1071" 
d="M819 780q-14 -16 -30.5 -25.5t-32.5 -9.5q-27 0 -77 17.5t-67 17.5q-30 0 -54 -18q-20 -17 -50 -70l141 -327zM377 1034q10 -47 35 -114t61 -142q49 126 110.5 184t143.5 58q34 0 100.5 -18.5t102.5 -18.5q26 0 49 7.5t42 22.5l42 -42q-29 -53 -72 -158l-10 -25
l-250 -612l-7 -16q-21 -52 -33.5 -90t-19.5 -70h-235q-12 56 -51 136l-6 14l-281 600l-63 -27l-47 92z" />
    <glyph glyph-name="w" unicode="w" horiz-adv-x="1636" 
d="M1382 780q-14 -16 -30.5 -25.5t-32.5 -9.5q-27 0 -77 17.5t-66 17.5q-29 0 -52 -17.5t-55 -74.5l135 -356zM377 1034q15 -63 70 -199l22 -57l176 -446l98 264l-67 154l-64 -27l-47 92l377 219q11 -51 35.5 -117.5t58.5 -138.5q52 120 118.5 181t143.5 61q35 0 100 -18.5
t97 -18.5q27 0 48 7.5t42 23.5l43 -43q-24 -43 -71 -157l-11 -26l-252 -612l-6 -16q-44 -105 -54 -160h-235q-10 40 -22 74t-33 76l-121 272l-96 -246l-33 -93l-22 -83h-236q-12 56 -51 136l-6 14l-281 600l-63 -27l-47 92z" />
    <glyph glyph-name="x" unicode="x" horiz-adv-x="1118" 
d="M86 1006h571v-129h-92l119 -213l137 213h-59v129h295v-129h-60l-229 -351l229 -399h74v-127h-569v127h90l-154 266l-176 -266h74v-127h-320v127h70l270 408l-196 342h-66z" />
    <glyph glyph-name="y" unicode="y" horiz-adv-x="1110" 
d="M840 758l-24 -10l-21 -3q-16 0 -37 4t-44 13q-48 18 -71 18q-32 0 -63.5 -29t-59.5 -87l135 -299zM377 1034q12 -53 36 -117t70 -165q86 160 144 214t135 54q38 0 108.5 -18.5t104.5 -18.5q25 0 49.5 7.5t44.5 21.5l43 -45q-16 -22 -43 -72q-10 -19 -33 -67l-26 -54
l-385 -819q-82 -172 -170.5 -253t-196.5 -81q-42 0 -83 9t-73 24l58 270q24 -12 47 -21.5t45 -16.5q42 -13 72 -13q49 0 85.5 22.5t55.5 65.5l24 57l-391 732l-63 -27l-47 92z" />
    <glyph glyph-name="z" unicode="z" horiz-adv-x="901" 
d="M154 1057h112l4 -51h514l52 -123q-33 -28 -76 -80l-10 -12l-440 -519l45 -11l51 -3q119 0 204 42.5t148 133.5l102 -20l-72 -475h-112l-4 61h-576l-84 172l516 604l-66 9l-50 3q-85 0 -143.5 -31t-102.5 -98l-92 27z" />
    <glyph glyph-name="braceleft" unicode="{" 
d="M852 1516v-66q-108 0 -150.5 -53t-42.5 -209v-131q0 -226 -50 -307.5t-185 -114.5q133 -33 184 -113.5t51 -306.5v-131q0 -158 41 -209q21 -27 58.5 -41.5t93.5 -14.5v-63h-12q-229 0 -314.5 74t-85.5 272v187q0 168 -54 229t-208 78v80q153 14 207.5 77t54.5 230v186
q0 198 85.5 272.5t314.5 74.5h12z" />
    <glyph glyph-name="bar" unicode="|" 
d="M393 1565h240v-2048h-240v2048z" />
    <glyph glyph-name="braceright" unicode="}" 
d="M172 1516h12q228 0 314 -74t86 -273v-186q0 -168 54 -230t208 -77v-80q-153 -15 -207.5 -77t-54.5 -230v-187q0 -198 -85.5 -272t-314.5 -74h-12v63q108 0 152 56q41 52 41 209v131q0 227 50.5 307t184.5 113q-133 33 -184 115t-51 307v131q0 157 -41 208
q-21 26 -58.5 40t-93.5 14v66z" />
    <glyph glyph-name="asciitilde" unicode="~" horiz-adv-x="1706" 
d="M1530 819v-254q-100 -69 -195 -103t-182 -34q-47 0 -90 7.5t-82 21.5l-38 13q-256 89 -382 89q-85 0 -175.5 -37t-207.5 -121v254q111 72 207 108t180 36q63 0 126.5 -12t169.5 -46l51 -17q160 -56 247 -56q83 0 173.5 36.5t197.5 114.5z" />
    <glyph glyph-name="nonbreakingspace" unicode="&#xa0;" horiz-adv-x="1081" 
 />
    <glyph glyph-name="exclamdown" unicode="&#xa1;" horiz-adv-x="721" 
d="M276 963h168v-9q0 -114 16 -232t49 -241q66 -243 66 -280q0 -106 -58 -168t-157 -62q-98 0 -156.5 62.5t-58.5 167.5q0 42 65.5 283t65.5 470v9zM360 1421q60 0 106 -46t46 -105t-45 -105.5t-107 -46.5q-63 0 -107 45t-44 107q0 61 45 106t106 45z" />
    <glyph glyph-name="cent" unicode="&#xa2;" horiz-adv-x="1081" 
d="M446 1270h218v-203q85 -16 154 -62.5t114 -119.5l-240 -236q-30 77 -55 129.5t-45 77.5q-39 53 -86 53q-43 0 -66.5 -38t-23.5 -107q0 -152 69 -257.5t172 -105.5q58 0 112 30t91 83l82 -61q-49 -107 -118.5 -177t-159.5 -108v-244h-218v230q-135 21 -222 133.5
t-87 267.5q0 157 81.5 282.5t227.5 192.5v240z" />
    <glyph glyph-name="sterling" unicode="&#xa3;" horiz-adv-x="1081" 
d="M963 1057l-273 -223q-33 117 -79 181t-93 64q-37 0 -57 -20q-21 -18 -21 -53q0 -49 68 -146.5t90 -165.5h219v-151h-209q-8 -79 -54.5 -147t-133.5 -126h270q68 0 101 24t45 85h114l-32 -422h-109l-8 43h-617l-63 225q82 60 121 126.5t39 146.5v45h-172v151h139
q-42 57 -63 105q-19 51 -19 96q0 132 135 240t303 108q101 0 191.5 -47t167.5 -139z" />
    <glyph glyph-name="currency" unicode="&#xa4;" horiz-adv-x="1241" 
d="M623 1145q-107 0 -184 -77t-77 -183q0 -108 75.5 -183t185.5 -75q105 0 181.5 75.5t76.5 182.5t-75.5 183.5t-182.5 76.5zM178 1444l203 -201q53 36 114.5 55t125.5 19q70 0 130 -18.5t113 -55.5l201 201l119 -117l-201 -205q34 -52 52 -111.5t18 -125.5t-17.5 -125.5
t-52.5 -112.5l201 -203l-119 -118l-201 202q-50 -35 -110.5 -54t-130.5 -19q-35 0 -67 4t-62 13q-58 18 -113 56l-203 -202l-117 118l201 203q-37 55 -54.5 113.5t-17.5 124.5t18 126t54 111l-201 205z" />
    <glyph glyph-name="yen" unicode="&#xa5;" horiz-adv-x="1081" 
d="M-20 1214h489v-124h-82l217 -517l207 517h-70v124h344v-124h-88l-127 -289h170v-133h-231l-39 -95h270v-133h-329v-317h94v-123h-502v123h94v317h-356v133h293l-49 95h-244v133h180l-135 289h-106v124z" />
    <glyph glyph-name="brokenbar" unicode="&#xa6;" 
d="M393 408h240v-758h-240v758zM393 1432h240v-758h-240v758z" />
    <glyph glyph-name="section" unicode="&#xa7;" 
d="M656 437q48 44 72 80.5t24 70.5q0 54 -69.5 90.5t-348.5 105.5q-44 -36 -67 -75.5t-23 -73.5q0 -90 338 -180zM748 399q74 -33 114.5 -100t40.5 -156q0 -160 -124 -279.5t-287 -119.5q-59 0 -123.5 15t-135.5 46l-32 -59l-107 31l107 319q108 -83 204 -128
q93 -42 175 -42q58 0 96.5 27.5t38.5 64.5q0 70 -204 124l-44 12q-246 63 -327 133.5t-81 193.5q0 102 48.5 191t138.5 147q-63 39 -97 104.5t-34 145.5q0 145 114.5 249.5t282.5 104.5q59 0 127 -14.5t152 -46.5l32 65l107 -38l-105 -250q-100 64 -202.5 102.5t-171.5 38.5
q-58 0 -93.5 -26t-35.5 -66q0 -63 201 -117l24 -6q253 -66 331 -137.5t78 -192.5q0 -93 -51 -176.5t-157 -159.5z" />
    <glyph glyph-name="dieresis" unicode="&#xa8;" 
d="M707 1473q57 0 100 -41.5t43 -100.5q0 -62 -41 -103.5t-102 -41.5q-59 0 -102.5 42.5t-43.5 100.5q0 57 44 100.5t102 43.5zM317 1473q59 0 100.5 -41.5t41.5 -100.5q0 -63 -39.5 -104t-102.5 -41q-58 0 -101.5 42.5t-43.5 100.5q0 57 44 100.5t101 43.5z" />
    <glyph glyph-name="copyright" unicode="&#xa9;" horiz-adv-x="1683" 
d="M1128 1104h50v-330h-52q-29 130 -98 201.5t-164 71.5q-111 0 -168 -91q-27 -45 -41 -112.5t-14 -159.5q0 -182 60.5 -278.5t177.5 -96.5q76 0 142.5 44t125.5 132l51 -32q-63 -108 -151 -162.5t-199 -54.5q-193 0 -319 122t-126 306q0 194 122.5 319t312.5 125
q80 0 156 -33t81 -33q21 0 32.5 12.5t20.5 49.5zM844 1311q-127 0 -242.5 -48.5t-203.5 -138t-136.5 -205.5t-48.5 -241q0 -131 46.5 -244.5t138.5 -203t205.5 -136.5t238.5 -47q128 0 241.5 47.5t200.5 136t136.5 207.5t49.5 240q0 127 -48.5 244.5t-136 203.5t-205 135.5
t-236.5 49.5zM844 1423q143 0 279.5 -56t242.5 -161q102 -102 160.5 -242.5t58.5 -285.5t-56 -280t-163 -244q-103 -103 -239.5 -160t-284.5 -57q-150 0 -283.5 55t-240 160t-163.5 241t-57 285t55 282.5t161 240t244.5 164.5t285.5 58z" />
    <glyph glyph-name="ordfeminine" unicode="&#xaa;" horiz-adv-x="901" 
d="M498 1063l-23 2l-16 2q-63 0 -99 -36t-36 -97q0 -53 21 -83q22 -28 65 -28q38 0 63 24t25 66v150zM242 1444l82 -27l-17 -41q21 9 42.5 15.5t48.5 12t54 8.5t50 3q125 0 197.5 -61.5t72.5 -167.5v-408h53v-88h-305l-20 68q-54 -45 -106 -66.5t-105 -21.5
q-109 0 -176.5 62t-67.5 161q0 129 97.5 193.5t291.5 64.5l39 -1l24 -1l1 37q0 35 -26 55.5t-71 20.5q-48 0 -91 -23q-43 -21 -79 -65l-90 32z" />
    <glyph glyph-name="guillemotleft" unicode="&#xab;" horiz-adv-x="938" 
d="M692 920h191l-115 -404l102 -401h-190l-219 401zM289 920h190l-114 -404l102 -401h-191l-219 401z" />
    <glyph glyph-name="logicalnot" unicode="&#xac;" horiz-adv-x="1706" 
d="M254 866h1198v-501h-229v274h-969v227z" />
    <glyph glyph-name="minus" unicode="&#xad;" horiz-adv-x="645" 
d="M57 653h531v-282h-531v282z" />
    <glyph glyph-name="registered" unicode="&#xae;" horiz-adv-x="1683" 
d="M772 728l16 -3h23q84 0 127 44t43 130q0 61 -38.5 103t-98.5 42q-36 0 -54 -15.5t-18 -47.5v-253zM463 1100h405q148 0 237 -56t89 -145q0 -87 -65 -137q-61 -47 -211 -74q115 -22 172 -86.5t57 -173.5q0 -48 9.5 -68t33.5 -20t38.5 31t14.5 88v12h55l1 -15l1 -14
q0 -91 -47 -135.5t-141 -44.5q-45 0 -79.5 12.5t-55.5 36.5q-17 19 -26.5 52t-9.5 82q0 38 -5 65q-12 86 -46.5 124t-101.5 38h-16v-244q0 -44 17.5 -62.5t70.5 -27.5v-57h-397v57q26 0 45.5 6.5t31.5 17.5q21 18 21 66v524q0 46 -18.5 64.5t-79.5 27.5v56zM844 1311
q-126 0 -244 -48.5t-205 -138.5t-134.5 -205t-47.5 -241q0 -131 46.5 -244.5t138.5 -203t205.5 -136.5t238.5 -47q128 0 241.5 47.5t200.5 136t136.5 207.5t49.5 240q0 126 -48.5 244t-137 204t-204.5 135.5t-236 49.5zM844 1423q150 0 290.5 -60t245.5 -169
q97 -100 151 -239.5t54 -292.5q0 -140 -63 -281q-31 -69 -75 -130.5t-101 -115.5q-100 -95 -232 -149q-66 -26 -132 -39t-140 -13q-111 0 -213 31t-197 92q-159 107 -246.5 269t-87.5 352q0 150 56 285.5t161 239.5t243.5 162t285.5 58z" />
    <glyph glyph-name="macron" unicode="&#xaf;" 
d="M205 1413h614v-168h-614v168z" />
    <glyph glyph-name="degree" unicode="&#xb0;" horiz-adv-x="674" 
d="M338 1321q-68 0 -117 -48t-49 -116t48 -117t118 -49q67 0 115.5 48.5t48.5 117.5q0 66 -48 115t-116 49zM338 1466q129 0 220 -91t91 -220q0 -128 -91.5 -219.5t-221.5 -91.5q-129 0 -219 90t-90 221q0 129 90 220t221 91z" />
    <glyph glyph-name="plusminus" unicode="&#xb1;" horiz-adv-x="1706" 
d="M254 213h1198v-231h-1198v231zM735 1241h238v-319h479v-232h-479v-319h-238v319h-481v232h481v319z" />
    <glyph glyph-name="twosuperior" unicode="&#xb2;" horiz-adv-x="713" 
d="M348 647h129q45 0 66.5 14.5t30.5 51.5h75l-22 -254h-72l-4 26h-438l-19 105q158 91 244 192t86 193q0 66 -41 113t-92 47q-29 0 -45.5 -16.5t-16.5 -45.5q0 -33 33.5 -62t93.5 -46l-112 -189q-90 15 -142.5 69t-52.5 128q0 100 98 179q50 39 107.5 59t124.5 20
q123 0 204 -59.5t81 -149.5q0 -78 -74 -165q-37 -43 -97 -95.5t-145 -114.5z" />
    <glyph glyph-name="threesuperior" unicode="&#xb3;" horiz-adv-x="713" 
d="M41 573l164 148q24 -31 48 -56.5t45.5 -41t41.5 -22.5t43 -7q40 0 64 21t24 53q0 56 -65 106.5t-138 50.5l-22 -2q-11 0 -37 -6l-39 49l211 195h-100q-47 0 -77 -11.5t-61 -39.5l-71 24l104 228l68 -23l-8 -25h339l39 -86l-168 -155q89 -13 144 -68t55 -133
q0 -123 -100.5 -213t-243.5 -90q-72 0 -135 25.5t-125 78.5z" />
    <glyph glyph-name="acute" unicode="&#xb4;" 
d="M530 1516h287l-325 -371h-154z" />
    <glyph glyph-name="mu" unicode="&#xb5;" horiz-adv-x="1233" 
d="M219 190q-12 -91 -27 -239q-39 -377 -163 -377q-57 0 -92 35q-35 33 -35 88q0 54 69 280.5t105 397.5l108 510h293l-106 -498l-16 -75l-5 -50q0 -55 27.5 -87t75.5 -32q61 0 103 53.5t69 172.5l110 516h291l-111 -525l-9 -49l-3 -43q0 -42 19 -68q20 -24 55 -24
q26 0 49.5 13t40.5 38l25 42q35 63 65 63q9 0 20 -12q9 -12 9 -27q0 -30 -21 -87.5t-53 -103.5q-39 -60 -94.5 -91t-126.5 -31q-90 0 -136 47.5t-55 146.5q-35 -95 -98 -144.5t-151 -49.5q-99 0 -159.5 53.5t-72.5 156.5z" />
    <glyph glyph-name="paragraph" unicode="&#xb6;" 
d="M997 1479v-123h-106v-1356h-176v1356h-150v-1356h-174v784q-81 0 -146 25.5t-117 75.5q-99 95 -99 245q0 157 105.5 253t283.5 96h579z" />
    <glyph glyph-name="cedilla" unicode="&#xb8;" 
d="M455 0h114v-84h19q111 0 170 -49.5t59 -142.5q0 -98 -66.5 -153.5t-187.5 -55.5q-59 0 -134 12q-43 7 -77 14.5t-80 20.5v137q78 -21 150 -33t121 -12q41 0 63.5 17.5t22.5 54.5q0 32 -28 47.5t-91 15.5h-33q-15 0 -22 -2v213z" />
    <glyph glyph-name="onesuperior" unicode="&#xb9;" horiz-adv-x="713" 
d="M438 1214h37q0 -14 -2 -22v-29v-20v-584h62v-74h-342v74h61v477l-82 -30v79q97 35 177 81t89 48z" />
    <glyph glyph-name="ordmasculine" unicode="&#xba;" horiz-adv-x="938" 
d="M614 952q0 141 -60.5 248t-131.5 107q-47 0 -72.5 -44t-25.5 -122q0 -148 59 -255.5t131 -107.5q50 0 75 44.5t25 129.5zM471 1415q184 0 304 -106t120 -267q0 -160 -120 -266t-304 -106t-306 105.5t-122 266.5q0 163 122.5 268t305.5 105z" />
    <glyph glyph-name="guillemotright" unicode="&#xbb;" horiz-adv-x="938" 
d="M471 920h191l221 -404l-234 -401h-188l112 401zM70 920h188l221 -404l-233 -401h-189l113 401z" />
    <glyph glyph-name="onequarter" unicode="&#xbc;" horiz-adv-x="1704" 
d="M1378 471l-190 -227h182zM1452 680h124l-2 -20l-1 -27v-19v-370l82 6l-25 -100h-57v-80h59v-70h-334v70h70v80h-287v83zM1167 1241h197l-825 -1270h-199zM416 1214h36l-3 -20v-27v-18v-545h59v-69h-328v69h60v445l-76 -29v74q92 32 167.5 75t84.5 45z" />
    <glyph glyph-name="onehalf" unicode="&#xbd;" horiz-adv-x="1704" 
d="M1356 152h123q43 0 63 13t29 48h71l-20 -238h-68l-6 25h-418l-18 98q150 81 234 176.5t84 182.5q0 62 -39.5 105.5t-90.5 43.5q-26 0 -42.5 -16t-16.5 -41q0 -30 34 -60q33 -27 89 -43l-109 -174q-83 13 -133.5 63t-50.5 120q0 95 95 168t220 73q117 0 194 -54.5
t77 -139.5q0 -73 -69.5 -154.5t-231.5 -195.5zM1167 1241h197l-825 -1270h-199zM416 1214h36l-3 -20v-27v-18v-545h59v-69h-328v69h60v445l-76 -29v74q92 32 167.5 75t84.5 45z" />
    <glyph glyph-name="threequarters" unicode="&#xbe;" horiz-adv-x="1704" 
d="M1378 471l-190 -227h182zM1452 680h124l-2 -20l-1 -27v-19v-370l82 6l-25 -100h-57v-80h59v-70h-334v70h70v80h-287v83zM1167 1241h197l-825 -1270h-199zM41 616l156 140q47 -63 87 -93q22 -15 41 -21.5t42 -6.5q35 0 58.5 19.5t23.5 50.5q0 53 -61.5 100t-131.5 47
l-20 -2q-11 0 -37 -6l-37 47l203 180h-99q-44 0 -72 -10.5t-57 -36.5l-69 23l102 213l61 -21l-6 -25h324l37 -79l-160 -146q86 -12 138 -63.5t52 -122.5q0 -115 -96 -200t-233 -85q-65 0 -127 24t-119 74z" />
    <glyph glyph-name="questiondown" unicode="&#xbf;" horiz-adv-x="985" 
d="M428 961l223 -1l4 -55l2 -39q0 -71 -26.5 -143t-83.5 -154l-24 -32q-103 -142 -103 -228q0 -72 37 -124t88 -52q42 0 68 33q24 33 24 96q0 37 -14 85.5t-43 107.5l292 135q26 -56 39 -113.5t13 -109.5q0 -171 -133.5 -283.5t-339.5 -112.5q-187 0 -300.5 96.5
t-113.5 251.5q0 167 193 318l59 47q80 68 109.5 126.5t29.5 141.5v9zM532 1421q60 0 106 -46t46 -105t-45 -105.5t-107 -46.5t-106.5 45t-44.5 107q0 61 45 106t106 45z" />
    <glyph glyph-name="Agrave" unicode="&#xc0;" horiz-adv-x="1403" 
d="M588 1042l-178 -516h350zM514 1395h373l430 -1239h74v-156h-629v156h119l-60 186h-475l-63 -186h120v-156h-405v156h90zM397 1905h287l192 -371h-154z" />
    <glyph glyph-name="Aacute" unicode="&#xc1;" horiz-adv-x="1403" 
d="M588 1042l-178 -516h350zM514 1395h373l430 -1239h74v-156h-629v156h119l-60 186h-475l-63 -186h120v-156h-405v156h90zM720 1905h287l-325 -371h-154z" />
    <glyph glyph-name="Acircumflex" unicode="&#xc2;" horiz-adv-x="1403" 
d="M588 1042l-178 -516h350zM514 1395h373l430 -1239h74v-156h-629v156h119l-60 186h-475l-63 -186h120v-156h-405v156h90zM573 1905h256l192 -371h-153l-166 198l-168 -198h-154z" />
    <glyph glyph-name="Atilde" unicode="&#xc3;" horiz-adv-x="1403" 
d="M588 1042l-178 -516h350zM514 1395h373l430 -1239h74v-156h-629v156h119l-60 186h-475l-63 -186h120v-156h-405v156h90zM915 1859h119q-31 -134 -83 -193.5t-136 -59.5h-15h-13q-9 2 -15.5 2.5t-14.5 2t-19 5.5l-91 26l-5 2q-49 13 -63 13q-33 0 -54 -18t-36 -60h-119
q27 127 80 186.5t135 59.5h21q11 -3 16 -4t18.5 -3.5t34.5 -9.5l95 -26l26 -7l31 -2q32 0 54 21t34 65z" />
    <glyph glyph-name="Adieresis" unicode="&#xc4;" horiz-adv-x="1403" 
d="M588 1042l-178 -516h350zM514 1395h373l430 -1239h74v-156h-629v156h119l-60 186h-475l-63 -186h120v-156h-405v156h90zM897 1862q57 0 100 -41.5t43 -100.5q0 -62 -41 -103.5t-102 -41.5q-59 0 -102.5 42.5t-43.5 100.5q0 57 44 100.5t102 43.5zM507 1862
q59 0 100.5 -41.5t41.5 -100.5q0 -63 -39.5 -104t-102.5 -41q-58 0 -101.5 42.5t-43.5 100.5q0 57 44 100.5t101 43.5z" />
    <glyph glyph-name="Aring" unicode="&#xc5;" horiz-adv-x="1403" 
d="M588 1042l-178 -516h350zM514 1395h373l430 -1239h74v-156h-629v156h119l-60 186h-475l-63 -186h120v-156h-405v156h90zM700 1845q-47 0 -80.5 -33.5t-33.5 -80.5q0 -48 33.5 -80.5t80.5 -32.5q48 0 80.5 32.5t32.5 80.5t-32.5 81t-80.5 33zM698 2003q114 0 193.5 -78.5
t79.5 -191.5q0 -114 -79.5 -193.5t-193.5 -79.5q-113 0 -191.5 78.5t-78.5 194.5q0 112 79 191t191 79z" />
    <glyph glyph-name="AE" unicode="&#xc6;" horiz-adv-x="1954" 
d="M844 1229l-402 -703h402v703zM522 1395h1252v-291h-142l-2 57q-44 30 -107.5 46t-136.5 16h-116v-305h362v102h142v-375h-142v88h-362v-557h86q92 0 160.5 24t115.5 74v91h142v-365h-1031v156h101v186h-508l-107 -186h103v-156h-404v156h88l621 1081h-115v158z" />
    <glyph glyph-name="Ccedilla" unicode="&#xc7;" horiz-adv-x="1290" 
d="M605 -24q-220 26 -368 184q-176 190 -176 485q0 148 46.5 276.5t138.5 237.5q104 125 238 194q66 34 133.5 51t140.5 17q101 0 185.5 -35t146.5 -106l65 53l86 -119l-434 -352l-84 101q25 22 36 50q3 8 8 25t5 37q0 61 -37.5 103.5t-93.5 42.5q-86 0 -139 -87t-53 -233
q0 -258 121.5 -435t301.5 -177q94 0 171.5 38.5t146.5 118.5l106 -96q-122 -192 -272 -286q-70 -44 -146.5 -68t-158.5 -24v-56h19q111 0 170 -49.5t59 -142.5q0 -98 -66.5 -153.5t-187.5 -55.5q-59 0 -134 12q-43 7 -77 14.5t-80 20.5v137q78 -21 150 -33t121 -12
q41 0 63.5 17.5t22.5 54.5q0 32 -28 47.5t-91 15.5h-33q-15 0 -22 -2v189z" />
    <glyph glyph-name="Egrave" unicode="&#xc8;" horiz-adv-x="1319" 
d="M1139 1395v-291h-142l-2 57q-32 30 -99.5 46t-174.5 16h-86v-305h362v102h142v-375h-142v88h-362v-557h86q92 0 160.5 24t115.5 74v91h142v-365h-1030v156h100v1081h-100v158h1030zM354 1905h287l192 -371h-154z" />
    <glyph glyph-name="Eacute" unicode="&#xc9;" horiz-adv-x="1319" 
d="M1139 1395v-291h-142l-2 57q-32 30 -99.5 46t-174.5 16h-86v-305h362v102h142v-375h-142v88h-362v-557h86q92 0 160.5 24t115.5 74v91h142v-365h-1030v156h100v1081h-100v158h1030zM677 1905h287l-325 -371h-154z" />
    <glyph glyph-name="Ecircumflex" unicode="&#xca;" horiz-adv-x="1319" 
d="M1139 1395v-291h-142l-2 57q-32 30 -99.5 46t-174.5 16h-86v-305h362v102h142v-375h-142v88h-362v-557h86q92 0 160.5 24t115.5 74v91h142v-365h-1030v156h100v1081h-100v158h1030zM530 1905h256l192 -371h-153l-166 198l-168 -198h-154z" />
    <glyph glyph-name="Edieresis" unicode="&#xcb;" horiz-adv-x="1319" 
d="M1139 1395v-291h-142l-2 57q-32 30 -99.5 46t-174.5 16h-86v-305h362v102h142v-375h-142v88h-362v-557h86q92 0 160.5 24t115.5 74v91h142v-365h-1030v156h100v1081h-100v158h1030zM854 1862q57 0 100 -41.5t43 -100.5q0 -62 -41 -103.5t-102 -41.5q-59 0 -102.5 42.5
t-43.5 100.5q0 57 44 100.5t102 43.5zM464 1862q59 0 100.5 -41.5t41.5 -100.5q0 -63 -39.5 -104t-102.5 -41q-58 0 -101.5 42.5t-43.5 100.5q0 57 44 100.5t101 43.5z" />
    <glyph glyph-name="Igrave" unicode="&#xcc;" horiz-adv-x="844" 
d="M109 1395h626v-158h-100v-1081h100v-156h-626v156h100v1081h-100v158zM117 1905h287l192 -371h-154z" />
    <glyph glyph-name="Iacute" unicode="&#xcd;" horiz-adv-x="844" 
d="M109 1395h626v-158h-100v-1081h100v-156h-626v156h100v1081h-100v158zM440 1905h287l-325 -371h-154z" />
    <glyph glyph-name="Icircumflex" unicode="&#xce;" horiz-adv-x="844" 
d="M109 1395h626v-158h-100v-1081h100v-156h-626v156h100v1081h-100v158zM293 1905h256l192 -371h-153l-166 198l-168 -198h-154z" />
    <glyph glyph-name="Idieresis" unicode="&#xcf;" horiz-adv-x="844" 
d="M109 1395h626v-158h-100v-1081h100v-156h-626v156h100v1081h-100v158zM617 1862q57 0 100 -41.5t43 -100.5q0 -62 -41 -103.5t-102 -41.5q-59 0 -102.5 42.5t-43.5 100.5q0 57 44 100.5t102 43.5zM227 1862q59 0 100.5 -41.5t41.5 -100.5q0 -63 -39.5 -104t-102.5 -41
q-58 0 -101.5 42.5t-43.5 100.5q0 57 44 100.5t101 43.5z" />
    <glyph glyph-name="Eth" unicode="&#xd0;" horiz-adv-x="1479" 
d="M963 692h-238v150h469q38 0 77.5 6.5t71.5 19.5l56 -94q-26 -28 -39.5 -61t-13.5 -66v-647h-113l-92 147q-102 -87 -220 -131.5t-247 -44.5q-275 0 -444 180t-169 478q0 80 12 152.5t38 142.5q49 136 147 245q105 120 249.5 186t301.5 66q100 0 190.5 -30.5t169.5 -92.5
l80 50l84 -127l-430 -283l-80 111q14 15 21 33q4 9 6 17.5t2 20.5q0 50 -37.5 84.5t-93.5 34.5q-113 0 -182.5 -107t-69.5 -286q0 -258 117 -435.5t291 -177.5l48 3q17 0 38 8v448zM424 1872h131q0 -35 12.5 -61t37.5 -45q46 -34 134 -34t133 35q24 18 36.5 43.5t12.5 60.5
l131 1q0 -75 -24 -135t-64 -100q-76 -74 -225 -74q-146 0 -223.5 74.5t-91.5 234.5z" />
    <glyph glyph-name="Ntilde" unicode="&#xd1;" horiz-adv-x="1470" 
d="M109 1395h464l504 -733v575h-100v158h383v-158h-98v-1237h-248q-11 27 -19.5 44t-24.5 43q-25 47 -59 95l-518 758v-784h119v-156h-403v156h100v1081h-100v158zM977 1859h119q-31 -134 -83 -193.5t-136 -59.5h-15h-13q-9 2 -15.5 2.5t-14.5 2t-19 5.5l-91 26l-5 2
q-49 13 -63 13q-33 0 -54 -18t-36 -60h-119q27 127 80 186.5t135 59.5h21q11 -3 16 -4t18.5 -3.5t34.5 -9.5l95 -26l26 -7l31 -2q32 0 54 21t34 65z" />
    <glyph glyph-name="Ograve" unicode="&#xd2;" horiz-adv-x="1554" 
d="M698 1241q-100 0 -154 -90q-26 -46 -39 -110t-13 -152q0 -61 7 -125.5t22 -130.5q30 -134 85 -252q51 -114 114.5 -171.5t137.5 -57.5q100 0 152.5 91t52.5 263q0 123 -29.5 256.5t-82 248t-116.5 172.5t-137 58zM778 1421q308 0 511.5 -205t203.5 -520t-203 -520
t-512 -205t-513 205t-204 520q0 316 204 520.5t513 204.5zM473 1905h287l192 -371h-154z" />
    <glyph glyph-name="Oacute" unicode="&#xd3;" horiz-adv-x="1554" 
d="M698 1241q-100 0 -154 -90q-26 -46 -39 -110t-13 -152q0 -61 7 -125.5t22 -130.5q30 -134 85 -252q51 -114 114.5 -171.5t137.5 -57.5q100 0 152.5 91t52.5 263q0 123 -29.5 256.5t-82 248t-116.5 172.5t-137 58zM778 1421q308 0 511.5 -205t203.5 -520t-203 -520
t-512 -205t-513 205t-204 520q0 316 204 520.5t513 204.5zM796 1905h287l-325 -371h-154z" />
    <glyph glyph-name="Ocircumflex" unicode="&#xd4;" horiz-adv-x="1554" 
d="M698 1241q-100 0 -154 -90q-26 -46 -39 -110t-13 -152q0 -61 7 -125.5t22 -130.5q30 -134 85 -252q51 -114 114.5 -171.5t137.5 -57.5q100 0 152.5 91t52.5 263q0 123 -29.5 256.5t-82 248t-116.5 172.5t-137 58zM778 1421q308 0 511.5 -205t203.5 -520t-203 -520
t-512 -205t-513 205t-204 520q0 316 204 520.5t513 204.5zM649 1905h256l192 -371h-153l-166 198l-168 -198h-154z" />
    <glyph glyph-name="Otilde" unicode="&#xd5;" horiz-adv-x="1554" 
d="M698 1241q-100 0 -154 -90q-26 -46 -39 -110t-13 -152q0 -61 7 -125.5t22 -130.5q30 -134 85 -252q51 -114 114.5 -171.5t137.5 -57.5q100 0 152.5 91t52.5 263q0 123 -29.5 256.5t-82 248t-116.5 172.5t-137 58zM778 1421q308 0 511.5 -205t203.5 -520t-203 -520
t-512 -205t-513 205t-204 520q0 316 204 520.5t513 204.5zM991 1859h119q-31 -134 -83 -193.5t-136 -59.5h-15h-13q-9 2 -15.5 2.5t-14.5 2t-19 5.5l-91 26l-5 2q-49 13 -63 13q-33 0 -54 -18t-36 -60h-119q27 127 80 186.5t135 59.5h21q11 -3 16 -4t18.5 -3.5t34.5 -9.5
l95 -26l26 -7l31 -2q32 0 54 21t34 65z" />
    <glyph glyph-name="Odieresis" unicode="&#xd6;" horiz-adv-x="1554" 
d="M698 1241q-100 0 -154 -90q-26 -46 -39 -110t-13 -152q0 -61 7 -125.5t22 -130.5q30 -134 85 -252q51 -114 114.5 -171.5t137.5 -57.5q100 0 152.5 91t52.5 263q0 123 -29.5 256.5t-82 248t-116.5 172.5t-137 58zM778 1421q308 0 511.5 -205t203.5 -520t-203 -520
t-512 -205t-513 205t-204 520q0 316 204 520.5t513 204.5zM973 1862q57 0 100 -41.5t43 -100.5q0 -62 -41 -103.5t-102 -41.5q-59 0 -102.5 42.5t-43.5 100.5q0 57 44 100.5t102 43.5zM583 1862q59 0 100.5 -41.5t41.5 -100.5q0 -63 -39.5 -104t-102.5 -41
q-58 0 -101.5 42.5t-43.5 100.5q0 57 44 100.5t101 43.5z" />
    <glyph glyph-name="multiply" unicode="&#xd7;" horiz-adv-x="1706" 
d="M430 1214l440 -440l441 440l162 -161l-441 -443l441 -440l-162 -162l-441 441l-440 -441l-162 162l441 440l-441 443z" />
    <glyph glyph-name="Oslash" unicode="&#xd8;" horiz-adv-x="1554" 
d="M1018 831l-400 -479q44 -93 108 -146.5t132 -53.5q100 0 152.5 91t52.5 263q0 74 -11 156t-34 169zM934 1044q-45 94 -106 145.5t-130 51.5q-100 0 -154 -90q-26 -46 -39 -110t-13 -152q0 -85 11 -163.5t34 -158.5zM1294 1479h260l-239 -287q89 -107 134 -230
q22 -60 33 -125.5t11 -140.5q0 -315 -203 -520t-512 -205q-104 0 -200.5 27t-188.5 82l-156 -189h-258l263 314q-87 95 -132 220.5t-45 270.5q0 316 204 520.5t513 204.5q113 0 205.5 -24.5t177.5 -77.5z" />
    <glyph glyph-name="Ugrave" unicode="&#xd9;" horiz-adv-x="1630" 
d="M109 1395h526v-987q0 -99 45 -147t139 -48q84 0 130 55q22 27 34 66.5t12 91.5v811h-100v158h526v-1239h101v-156h-506l-19 135q-84 -81 -181 -122.5t-206 -41.5q-190 0 -295.5 115.5t-105.5 329.5v821h-100v158zM510 1905h287l192 -371h-154z" />
    <glyph glyph-name="Uacute" unicode="&#xda;" horiz-adv-x="1630" 
d="M109 1395h526v-987q0 -99 45 -147t139 -48q84 0 130 55q22 27 34 66.5t12 91.5v811h-100v158h526v-1239h101v-156h-506l-19 135q-84 -81 -181 -122.5t-206 -41.5q-190 0 -295.5 115.5t-105.5 329.5v821h-100v158zM833 1905h287l-325 -371h-154z" />
    <glyph glyph-name="Ucircumflex" unicode="&#xdb;" horiz-adv-x="1630" 
d="M109 1395h526v-987q0 -99 45 -147t139 -48q84 0 130 55q22 27 34 66.5t12 91.5v811h-100v158h526v-1239h101v-156h-506l-19 135q-84 -81 -181 -122.5t-206 -41.5q-190 0 -295.5 115.5t-105.5 329.5v821h-100v158zM686 1905h256l192 -371h-153l-166 198l-168 -198h-154z
" />
    <glyph glyph-name="Udieresis" unicode="&#xdc;" horiz-adv-x="1630" 
d="M109 1395h526v-987q0 -99 45 -147t139 -48q84 0 130 55q22 27 34 66.5t12 91.5v811h-100v158h526v-1239h101v-156h-506l-19 135q-84 -81 -181 -122.5t-206 -41.5q-190 0 -295.5 115.5t-105.5 329.5v821h-100v158zM1010 1862q57 0 100 -41.5t43 -100.5q0 -62 -41 -103.5
t-102 -41.5q-59 0 -102.5 42.5t-43.5 100.5q0 57 44 100.5t102 43.5zM620 1862q59 0 100.5 -41.5t41.5 -100.5q0 -63 -39.5 -104t-102.5 -41q-58 0 -101.5 42.5t-43.5 100.5q0 57 44 100.5t101 43.5z" />
    <glyph glyph-name="Yacute" unicode="&#xdd;" horiz-adv-x="844" 
d="M109 1395h626v-158h-100v-1081h100v-156h-626v156h100v1081h-100v158zM422 1868q62 0 106 -44t44 -106q0 -63 -42.5 -106t-107.5 -43q-60 0 -103.5 44.5t-43.5 104.5q0 59 45 104.5t102 45.5z" />
    <glyph glyph-name="Thorn" unicode="&#xde;" horiz-adv-x="1280" 
d="M584 -28q-68 0 -138 15.5t-142 42.5q-153 60 -292 175l238 344q164 -174 297 -259t237 -85q69 0 112.5 33.5t43.5 87.5q0 33 -35 64t-121 67q-52 22 -212.5 80.5t-229.5 101.5q-91 56 -141.5 138.5t-50.5 176.5q0 182 158 325.5t366 143.5q80 0 167.5 -25t190.5 -77
l47 65l119 -73l-221 -348q-150 127 -252.5 189.5t-165.5 62.5q-49 0 -81 -24.5t-32 -62.5q0 -47 51 -89q48 -37 183 -89l71 -26q262 -97 341 -172q54 -52 82 -119t28 -139q0 -216 -170 -371q-143 -128 -334 -149v-60h19q111 0 170 -49.5t59 -142.5q0 -98 -66.5 -153.5
t-187.5 -55.5q-59 0 -134 12q-43 7 -77 14.5t-80 20.5v137q78 -21 150 -33t121 -12q41 0 63.5 17.5t22.5 54.5q0 32 -28 47.5t-91 15.5h-33q-15 0 -22 -2v185z" />
    <glyph glyph-name="germandbls" unicode="&#xdf;" horiz-adv-x="1346" 
d="M676 25v331q24 -27 48.5 -49.5t50.5 -39.5q50 -31 93 -31q41 0 72 30t31 72q0 59 -126 161l-50 42q-73 61 -108.5 123t-35.5 127q0 86 78 201t78 165q0 52 -35 84.5t-90 32.5q-68 0 -102.5 -42t-34.5 -124v-1108h-436v127h71v674h-121l66 162h55q28 228 161 343t372 115
q169 0 287 -76t118 -182q0 -78 -87 -167.5t-87 -123.5q0 -48 88 -103l58 -38q102 -74 151 -159t49 -195q0 -170 -119.5 -288t-287.5 -118q-67 0 -119 14t-88 40z" />
    <glyph glyph-name="agrave" unicode="&#xe0;" horiz-adv-x="1200" 
d="M663 533l-35 4l-16 2q-84 0 -132 -51.5t-48 -139.5q0 -79 29 -118.5t86 -39.5q53 0 85 36t32 93zM322 1077l108 -39l-20 -57q61 26 127 39.5t133 13.5q164 0 261 -87t97 -238v-582h72v-127h-406l-28 96q-68 -60 -141 -94q-35 -15 -69.5 -23t-70.5 -8q-144 0 -235 89
t-91 229q0 184 130.5 277t390.5 93l34 -1l49 -3l1 54q0 49 -35 78.5t-94 29.5q-62 0 -120.5 -32.5t-105.5 -94.5l-121 47zM326 1516h287l192 -371h-154z" />
    <glyph glyph-name="aacute" unicode="&#xe1;" horiz-adv-x="1200" 
d="M663 533l-35 4l-16 2q-84 0 -132 -51.5t-48 -139.5q0 -79 29 -118.5t86 -39.5q53 0 85 36t32 93zM322 1077l108 -39l-20 -57q61 26 127 39.5t133 13.5q164 0 261 -87t97 -238v-582h72v-127h-406l-28 96q-68 -60 -141 -94q-35 -15 -69.5 -23t-70.5 -8q-144 0 -235 89
t-91 229q0 184 130.5 277t390.5 93l34 -1l49 -3l1 54q0 49 -35 78.5t-94 29.5q-62 0 -120.5 -32.5t-105.5 -94.5l-121 47zM649 1516h287l-325 -371h-154z" />
    <glyph glyph-name="acircumflex" unicode="&#xe2;" horiz-adv-x="1200" 
d="M663 533l-35 4l-16 2q-84 0 -132 -51.5t-48 -139.5q0 -79 29 -118.5t86 -39.5q53 0 85 36t32 93zM322 1077l108 -39l-20 -57q61 26 127 39.5t133 13.5q164 0 261 -87t97 -238v-582h72v-127h-406l-28 96q-68 -60 -141 -94q-35 -15 -69.5 -23t-70.5 -8q-144 0 -235 89
t-91 229q0 184 130.5 277t390.5 93l34 -1l49 -3l1 54q0 49 -35 78.5t-94 29.5q-62 0 -120.5 -32.5t-105.5 -94.5l-121 47zM502 1516h256l192 -371h-153l-166 198l-168 -198h-154z" />
    <glyph glyph-name="atilde" unicode="&#xe3;" horiz-adv-x="1200" 
d="M663 533l-35 4l-16 2q-84 0 -132 -51.5t-48 -139.5q0 -79 29 -118.5t86 -39.5q53 0 85 36t32 93zM322 1077l108 -39l-20 -57q61 26 127 39.5t133 13.5q164 0 261 -87t97 -238v-582h72v-127h-406l-28 96q-68 -60 -141 -94q-35 -15 -69.5 -23t-70.5 -8q-144 0 -235 89
t-91 229q0 184 130.5 277t390.5 93l34 -1l49 -3l1 54q0 49 -35 78.5t-94 29.5q-62 0 -120.5 -32.5t-105.5 -94.5l-121 47zM844 1470h119q-31 -134 -83 -193.5t-136 -59.5h-15h-13q-9 2 -15.5 2.5t-14.5 2t-19 5.5l-91 26l-5 2q-49 13 -63 13q-33 0 -54 -18t-36 -60h-119
q27 127 80 186.5t135 59.5h21q11 -3 16 -4t18.5 -3.5t34.5 -9.5l95 -26l26 -7l31 -2q32 0 54 21t34 65z" />
    <glyph glyph-name="adieresis" unicode="&#xe4;" horiz-adv-x="1200" 
d="M663 533l-35 4l-16 2q-84 0 -132 -51.5t-48 -139.5q0 -79 29 -118.5t86 -39.5q53 0 85 36t32 93zM322 1077l108 -39l-20 -57q61 26 127 39.5t133 13.5q164 0 261 -87t97 -238v-582h72v-127h-406l-28 96q-68 -60 -141 -94q-35 -15 -69.5 -23t-70.5 -8q-144 0 -235 89
t-91 229q0 184 130.5 277t390.5 93l34 -1l49 -3l1 54q0 49 -35 78.5t-94 29.5q-62 0 -120.5 -32.5t-105.5 -94.5l-121 47zM826 1473q57 0 100 -41.5t43 -100.5q0 -62 -41 -103.5t-102 -41.5q-59 0 -102.5 42.5t-43.5 100.5q0 57 44 100.5t102 43.5zM436 1473
q59 0 100.5 -41.5t41.5 -100.5q0 -63 -39.5 -104t-102.5 -41q-58 0 -101.5 42.5t-43.5 100.5q0 57 44 100.5t101 43.5z" />
    <glyph glyph-name="aring" unicode="&#xe5;" horiz-adv-x="1200" 
d="M663 533l-35 4l-16 2q-84 0 -132 -51.5t-48 -139.5q0 -79 29 -118.5t86 -39.5q53 0 85 36t32 93zM322 1077l108 -39l-20 -57q61 26 127 39.5t133 13.5q164 0 261 -87t97 -238v-582h72v-127h-406l-28 96q-68 -60 -141 -94q-35 -15 -69.5 -23t-70.5 -8q-144 0 -235 89
t-91 229q0 184 130.5 277t390.5 93l34 -1l49 -3l1 54q0 49 -35 78.5t-94 29.5q-62 0 -120.5 -32.5t-105.5 -94.5l-121 47zM678 1485q-46 0 -79.5 -33.5t-33.5 -81.5q0 -49 33 -81t80 -32q48 0 81.5 33.5t33.5 79.5q0 48 -34 81.5t-81 33.5zM678 1642q113 0 192.5 -78.5
t79.5 -191.5q0 -114 -79 -193t-193 -79t-192 78t-78 194q0 111 78.5 190.5t191.5 79.5z" />
    <glyph glyph-name="ae" unicode="&#xe6;" horiz-adv-x="1669" 
d="M663 533l-35 4l-16 2q-84 0 -132 -51.5t-48 -139.5q0 -79 29 -118.5t86 -39.5q53 0 85 36t32 93zM1251 653q-33 106 -81.5 162.5t-104.5 56.5q-46 0 -74 -41q-26 -41 -26 -114q0 -48 6.5 -89t21.5 -81zM322 1077l108 -39l-20 -57q60 26 121 39.5t114 13.5q76 0 136 -21.5
t98 -64.5q55 42 119.5 64t136.5 22q105 0 192 -39.5t156 -117.5q53 -62 93 -143t40 -113q0 -12 -58.5 -27.5t-111.5 -36.5l-397 -162q44 -90 110 -135t152 -45q71 0 129.5 25.5t113.5 78.5l76 -79q-104 -134 -232.5 -201.5t-285.5 -67.5q-118 0 -212.5 45.5t-151.5 130.5
q-94 -87 -187 -132q-47 -22 -93 -33t-95 -11q-133 0 -223.5 90.5t-90.5 227.5q0 184 130.5 277t390.5 93l34 -1l49 -3l1 54q0 49 -35 78.5t-94 29.5q-62 0 -120.5 -32.5t-105.5 -94.5l-121 47z" />
    <glyph glyph-name="ccedilla" unicode="&#xe7;" horiz-adv-x="1020" 
d="M437 -25q-153 16 -258 129q-124 135 -124 340q0 239 165.5 414.5t383.5 175.5q111 0 203.5 -53.5t161.5 -157.5l-279 -268q-38 139 -93 216t-118 77q-47 0 -76 -42q-26 -43 -26 -120q0 -182 78.5 -301t199.5 -119q66 0 127 34t105 95l94 -69q-81 -173 -205 -264
q-101 -75 -225 -88v-58h19q111 0 170 -49.5t59 -142.5q0 -98 -66.5 -153.5t-187.5 -55.5q-59 0 -134 12q-43 7 -77 14.5t-80 20.5v137q78 -21 150 -33t121 -12q41 0 63.5 17.5t22.5 54.5q0 32 -28 47.5t-91 15.5h-33q-15 0 -22 -2v188z" />
    <glyph glyph-name="egrave" unicode="&#xe8;" horiz-adv-x="1090" 
d="M866 557l-397 -162q45 -88 111 -134t153 -46q36 0 67 6t64 20q58 25 113 78l74 -79q-104 -136 -231.5 -202.5t-284.5 -66.5q-209 0 -343.5 148.5t-134.5 378.5q0 228 146.5 382t351.5 154q106 0 192 -39t156 -118q53 -60 94 -143.5t41 -112.5q0 -12 -59 -26.5t-113 -37.5
zM674 653q-34 107 -82.5 163t-104.5 56q-46 0 -74 -41q-26 -41 -26 -114q0 -47 6.5 -84t11.5 -55q2 -6 11 -31zM240 1516h287l192 -371h-154z" />
    <glyph glyph-name="eacute" unicode="&#xe9;" horiz-adv-x="1090" 
d="M866 557l-397 -162q45 -88 111 -134t153 -46q36 0 67 6t64 20q58 25 113 78l74 -79q-104 -136 -231.5 -202.5t-284.5 -66.5q-209 0 -343.5 148.5t-134.5 378.5q0 228 146.5 382t351.5 154q106 0 192 -39t156 -118q53 -60 94 -143.5t41 -112.5q0 -12 -59 -26.5t-113 -37.5
zM674 653q-34 107 -82.5 163t-104.5 56q-46 0 -74 -41q-26 -41 -26 -114q0 -47 6.5 -84t11.5 -55q2 -6 11 -31zM563 1516h287l-325 -371h-154z" />
    <glyph glyph-name="ecircumflex" unicode="&#xea;" horiz-adv-x="1090" 
d="M866 557l-397 -162q45 -88 111 -134t153 -46q36 0 67 6t64 20q58 25 113 78l74 -79q-104 -136 -231.5 -202.5t-284.5 -66.5q-209 0 -343.5 148.5t-134.5 378.5q0 228 146.5 382t351.5 154q106 0 192 -39t156 -118q53 -60 94 -143.5t41 -112.5q0 -12 -59 -26.5t-113 -37.5
zM674 653q-34 107 -82.5 163t-104.5 56q-46 0 -74 -41q-26 -41 -26 -114q0 -47 6.5 -84t11.5 -55q2 -6 11 -31zM416 1516h256l192 -371h-153l-166 198l-168 -198h-154z" />
    <glyph glyph-name="edieresis" unicode="&#xeb;" horiz-adv-x="1090" 
d="M866 557l-397 -162q45 -88 111 -134t153 -46q36 0 67 6t64 20q58 25 113 78l74 -79q-104 -136 -231.5 -202.5t-284.5 -66.5q-209 0 -343.5 148.5t-134.5 378.5q0 228 146.5 382t351.5 154q106 0 192 -39t156 -118q53 -60 94 -143.5t41 -112.5q0 -12 -59 -26.5t-113 -37.5
zM674 653q-34 107 -82.5 163t-104.5 56q-46 0 -74 -41q-26 -41 -26 -114q0 -47 6.5 -84t11.5 -55q2 -6 11 -31zM740 1473q57 0 100 -41.5t43 -100.5q0 -62 -41 -103.5t-102 -41.5q-59 0 -102.5 42.5t-43.5 100.5q0 57 44 100.5t102 43.5zM350 1473q59 0 100.5 -41.5
t41.5 -100.5q0 -63 -39.5 -104t-102.5 -41q-58 0 -101.5 42.5t-43.5 100.5q0 57 44 100.5t101 43.5z" />
    <glyph glyph-name="igrave" unicode="&#xec;" horiz-adv-x="721" 
d="M541 1034h14l-8 -107l-2 -69v-731h71v-127h-507v127h71v686l-71 -12v114zM55 1516h287l192 -371h-154z" />
    <glyph glyph-name="iacute" unicode="&#xed;" horiz-adv-x="721" 
d="M541 1034h14l-8 -107l-2 -69v-731h71v-127h-507v127h71v686l-71 -12v114zM378 1516h287l-325 -371h-154z" />
    <glyph glyph-name="icircumflex" unicode="&#xee;" horiz-adv-x="721" 
d="M541 1034h14l-8 -107l-2 -69v-731h71v-127h-507v127h71v686l-71 -12v114zM231 1516h256l192 -371h-153l-166 198l-168 -198h-154z" />
    <glyph glyph-name="idieresis" unicode="&#xef;" horiz-adv-x="721" 
d="M541 1034h14l-8 -107l-2 -69v-731h71v-127h-507v127h71v686l-71 -12v114zM555 1473q57 0 100 -41.5t43 -100.5q0 -62 -41 -103.5t-102 -41.5q-59 0 -102.5 42.5t-43.5 100.5q0 57 44 100.5t102 43.5zM165 1473q59 0 100.5 -41.5t41.5 -100.5q0 -63 -39.5 -104t-102.5 -41
q-58 0 -101.5 42.5t-43.5 100.5q0 57 44 100.5t101 43.5z" />
    <glyph glyph-name="eth" unicode="&#xf0;" horiz-adv-x="1081" 
d="M391 780q0 -162 63 -291t138 -129q48 0 76 38t28 104q0 165 -63 288t-146 123q-45 0 -70.5 -35.5t-25.5 -97.5zM555 -29q-24 -33 -36 -66q-5 -15 -8 -32.5t-3 -34.5q0 -52 23 -81t63 -29q33 0 53.5 22t20.5 57q0 53 -30 97t-83 67zM33 135q119 25 210.5 55.5t164.5 67.5
q-163 35 -258 137.5t-95 239.5q0 169 140.5 284t347.5 115q51 0 99.5 -6t92.5 -18q33 113 72.5 150.5t120.5 37.5q21 0 34 -2l37 -6l-41 -193q-23 13 -39.5 19t-29.5 6q-17 0 -29 -9q-8 -8 -10 -24l91 -108q91 -108 91 -240q0 -167 -129 -279t-403 -180q261 -33 376 -99.5
t115 -182.5q0 -117 -123.5 -198t-304.5 -81q-156 0 -244 51.5t-88 143.5q0 68 48 116.5t145 77.5l-88 11l-62 4h-32q-16 -3 -26 -4t-27 -4t-35 -7zM226 1483h131q0 -35 12.5 -61t37.5 -45q46 -34 134 -34t133 35q24 18 36.5 43.5t12.5 60.5l131 1q0 -75 -24 -135t-64 -100
q-76 -74 -225 -74q-146 0 -223.5 74.5t-91.5 234.5z" />
    <glyph glyph-name="ntilde" unicode="&#xf1;" horiz-adv-x="1370" 
d="M541 1034h14l-10 -176q106 90 197 133t169 43q134 0 211.5 -82t77.5 -227v-598h70v-127h-506v127h70v535q0 64 -27.5 97.5t-83.5 33.5q-43 0 -88.5 -21.5t-89.5 -60.5v-584h71v-127h-507v127h71v686l-71 -12v114zM911 1470h119q-31 -134 -83 -193.5t-136 -59.5h-15h-13
q-9 2 -15.5 2.5t-14.5 2t-19 5.5l-91 26l-5 2q-49 13 -63 13q-33 0 -54 -18t-36 -60h-119q27 127 80 186.5t135 59.5h21q11 -3 16 -4t18.5 -3.5t34.5 -9.5l95 -26l26 -7l31 -2q32 0 54 21t34 65z" />
    <glyph glyph-name="ograve" unicode="&#xf2;" horiz-adv-x="1251" 
d="M819 375q0 202 -81.5 354t-176.5 152q-60 0 -94.5 -62.5t-34.5 -175.5q0 -210 78.5 -364t175.5 -154q64 0 98.5 64t34.5 186zM627 1034q244 0 405.5 -150.5t161.5 -381.5q0 -230 -160 -380.5t-407 -150.5q-245 0 -407.5 150t-162.5 381q0 232 162 382t408 150zM322 1516
h287l192 -371h-154z" />
    <glyph glyph-name="oacute" unicode="&#xf3;" horiz-adv-x="1251" 
d="M819 375q0 202 -81.5 354t-176.5 152q-60 0 -94.5 -62.5t-34.5 -175.5q0 -210 78.5 -364t175.5 -154q64 0 98.5 64t34.5 186zM627 1034q244 0 405.5 -150.5t161.5 -381.5q0 -230 -160 -380.5t-407 -150.5q-245 0 -407.5 150t-162.5 381q0 232 162 382t408 150zM645 1516
h287l-325 -371h-154z" />
    <glyph glyph-name="ocircumflex" unicode="&#xf4;" horiz-adv-x="1251" 
d="M819 375q0 202 -81.5 354t-176.5 152q-60 0 -94.5 -62.5t-34.5 -175.5q0 -210 78.5 -364t175.5 -154q64 0 98.5 64t34.5 186zM627 1034q244 0 405.5 -150.5t161.5 -381.5q0 -230 -160 -380.5t-407 -150.5q-245 0 -407.5 150t-162.5 381q0 232 162 382t408 150zM498 1516
h256l192 -371h-153l-166 198l-168 -198h-154z" />
    <glyph glyph-name="otilde" unicode="&#xf5;" horiz-adv-x="1251" 
d="M819 375q0 202 -81.5 354t-176.5 152q-60 0 -94.5 -62.5t-34.5 -175.5q0 -210 78.5 -364t175.5 -154q64 0 98.5 64t34.5 186zM627 1034q244 0 405.5 -150.5t161.5 -381.5q0 -230 -160 -380.5t-407 -150.5q-245 0 -407.5 150t-162.5 381q0 232 162 382t408 150zM840 1470
h119q-31 -134 -83 -193.5t-136 -59.5h-15h-13q-9 2 -15.5 2.5t-14.5 2t-19 5.5l-91 26l-5 2q-49 13 -63 13q-33 0 -54 -18t-36 -60h-119q27 127 80 186.5t135 59.5h21q11 -3 16 -4t18.5 -3.5t34.5 -9.5l95 -26l26 -7l31 -2q32 0 54 21t34 65z" />
    <glyph glyph-name="odieresis" unicode="&#xf6;" horiz-adv-x="1251" 
d="M819 375q0 202 -81.5 354t-176.5 152q-60 0 -94.5 -62.5t-34.5 -175.5q0 -210 78.5 -364t175.5 -154q64 0 98.5 64t34.5 186zM627 1034q244 0 405.5 -150.5t161.5 -381.5q0 -230 -160 -380.5t-407 -150.5q-245 0 -407.5 150t-162.5 381q0 232 162 382t408 150zM822 1473
q57 0 100 -41.5t43 -100.5q0 -62 -41 -103.5t-102 -41.5q-59 0 -102.5 42.5t-43.5 100.5q0 57 44 100.5t102 43.5zM432 1473q59 0 100.5 -41.5t41.5 -100.5q0 -63 -39.5 -104t-102.5 -41q-58 0 -101.5 42.5t-43.5 100.5q0 57 44 100.5t101 43.5z" />
    <glyph glyph-name="divide" unicode="&#xf7;" horiz-adv-x="1706" 
d="M854 371q67 0 115.5 -48.5t48.5 -117.5q0 -66 -47.5 -115t-116.5 -49q-68 0 -117 48t-49 116t49 117t117 49zM254 727h1198v-231h-1198v231zM854 1182q66 0 115 -49t49 -117q0 -67 -48.5 -115.5t-117.5 -48.5t-116.5 48.5t-47.5 115.5q0 68 49 117t117 49z" />
    <glyph glyph-name="oslash" unicode="&#xf8;" horiz-adv-x="1251" 
d="M801 588l-279 -340q34 -56 77.5 -89.5t84.5 -33.5q67 0 106 66t39 184q0 65 -6.5 115t-21.5 98zM733 754q-43 62 -86 94.5t-84 32.5q-66 0 -103.5 -65.5t-37.5 -182.5q0 -44 6 -99t21 -120zM1014 1096h209l-181 -219q77 -78 114.5 -171.5t37.5 -203.5q0 -232 -160 -381.5
t-407 -149.5q-78 0 -147.5 15.5t-135.5 48.5l-135 -162h-211l213 256q-74 68 -114 165t-40 208q0 229 162.5 380.5t407.5 151.5q37 0 73.5 -4t70.5 -13q72 -16 138 -50z" />
    <glyph glyph-name="ugrave" unicode="&#xf9;" horiz-adv-x="1327" 
d="M522 1034h15v-690q0 -64 25.5 -97.5t76.5 -33.5q35 0 75 18t72 50v532l-69 -12v114l422 119h12v-907h72v-127h-412l-43 123q-78 -72 -158 -112t-153 -40q-134 0 -210.5 81.5t-76.5 228.5v532l-70 -12v114zM379 1516h287l192 -371h-154z" />
    <glyph glyph-name="uacute" unicode="&#xfa;" horiz-adv-x="1327" 
d="M522 1034h15v-690q0 -64 25.5 -97.5t76.5 -33.5q35 0 75 18t72 50v532l-69 -12v114l422 119h12v-907h72v-127h-412l-43 123q-78 -72 -158 -112t-153 -40q-134 0 -210.5 81.5t-76.5 228.5v532l-70 -12v114zM702 1516h287l-325 -371h-154z" />
    <glyph glyph-name="ucircumflex" unicode="&#xfb;" horiz-adv-x="1327" 
d="M522 1034h15v-690q0 -64 25.5 -97.5t76.5 -33.5q35 0 75 18t72 50v532l-69 -12v114l422 119h12v-907h72v-127h-412l-43 123q-78 -72 -158 -112t-153 -40q-134 0 -210.5 81.5t-76.5 228.5v532l-70 -12v114zM555 1516h256l192 -371h-153l-166 198l-168 -198h-154z" />
    <glyph glyph-name="udieresis" unicode="&#xfc;" horiz-adv-x="1327" 
d="M522 1034h15v-690q0 -64 25.5 -97.5t76.5 -33.5q35 0 75 18t72 50v532l-69 -12v114l422 119h12v-907h72v-127h-412l-43 123q-78 -72 -158 -112t-153 -40q-134 0 -210.5 81.5t-76.5 228.5v532l-70 -12v114zM879 1473q57 0 100 -41.5t43 -100.5q0 -62 -41 -103.5
t-102 -41.5q-59 0 -102.5 42.5t-43.5 100.5q0 57 44 100.5t102 43.5zM489 1473q59 0 100.5 -41.5t41.5 -100.5q0 -63 -39.5 -104t-102.5 -41q-58 0 -101.5 42.5t-43.5 100.5q0 57 44 100.5t101 43.5z" />
    <glyph glyph-name="yacute" unicode="&#xfd;" horiz-adv-x="721" 
d="M541 1034h14l-8 -107l-2 -69v-731h71v-127h-507v127h71v686l-71 -12v114z" />
    <glyph glyph-name="thorn" unicode="&#xfe;" horiz-adv-x="901" 
d="M394 -29q-93 0 -196 36.5t-192 109.5l168 260q107 -119 194.5 -180.5t145.5 -61.5q33 0 51.5 16.5t18.5 47.5q0 52 -183 150l-31 17q-274 148 -274 326q0 151 106.5 246.5t280.5 95.5q91 0 175.5 -27.5t168.5 -84.5l-149 -236q-86 100 -153.5 150.5t-118.5 50.5
q-29 0 -46.5 -16t-17.5 -44q0 -30 33 -62q33 -30 135 -81q222 -111 284 -181.5t62 -168.5q0 -150 -128 -257q-92 -77 -220 -98v-63h19q111 0 170 -49.5t59 -142.5q0 -98 -66.5 -153.5t-187.5 -55.5q-59 0 -134 12q-43 7 -77 14.5t-80 20.5v137q78 -21 150 -33t121 -12
q41 0 63.5 17.5t22.5 54.5q0 32 -28 47.5t-91 15.5h-33q-15 0 -22 -2v184z" />
    <glyph glyph-name="ydieresis" unicode="&#xff;" horiz-adv-x="1110" 
d="M840 758l-24 -10l-21 -3q-16 0 -37 4t-44 13q-48 18 -71 18q-32 0 -63.5 -29t-59.5 -87l135 -299zM377 1034q12 -53 36 -117t70 -165q86 160 144 214t135 54q38 0 108.5 -18.5t104.5 -18.5q25 0 49.5 7.5t44.5 21.5l43 -45q-16 -22 -43 -72q-10 -19 -33 -67l-26 -54
l-385 -819q-82 -172 -170.5 -253t-196.5 -81q-42 0 -83 9t-73 24l58 270q24 -12 47 -21.5t45 -16.5q42 -13 72 -13q49 0 85.5 22.5t55.5 65.5l24 57l-391 732l-63 -27l-47 92zM750 1473q57 0 100 -41.5t43 -100.5q0 -62 -41 -103.5t-102 -41.5q-59 0 -102.5 42.5
t-43.5 100.5q0 57 44 100.5t102 43.5zM360 1473q59 0 100.5 -41.5t41.5 -100.5q0 -63 -39.5 -104t-102.5 -41q-58 0 -101.5 42.5t-43.5 100.5q0 57 44 100.5t101 43.5z" />
    <glyph glyph-name="Cacute" unicode="&#x106;" horiz-adv-x="1290" 
d="M1090 1280l65 53l86 -119l-434 -352l-84 101q25 22 36 50q3 8 8 25t5 37q0 61 -37.5 103.5t-93.5 42.5q-86 0 -139 -87t-53 -233q0 -258 121.5 -435t301.5 -177q94 0 171.5 38.5t146.5 118.5l106 -96q-122 -192 -271.5 -285.5t-334.5 -93.5q-276 0 -452.5 189.5
t-176.5 484.5q0 148 46.5 276.5t138.5 237.5q104 125 238 194q66 34 133.5 51t140.5 17q101 0 185.5 -35t146.5 -106zM759 1905h287l-325 -371h-154z" />
    <glyph glyph-name="cacute" unicode="&#x107;" horiz-adv-x="1020" 
d="M969 823l-279 -268q-38 139 -93 216t-118 77q-47 0 -76 -42q-26 -43 -26 -120q0 -182 78.5 -301t199.5 -119q66 0 127 34t105 95l94 -69q-81 -173 -205 -264t-278 -91q-193 0 -318 134t-125 339q0 239 165.5 414.5t383.5 175.5q111 0 203.5 -53.5t161.5 -157.5zM606 1516
h287l-325 -371h-154z" />
    <glyph glyph-name="Ccaron" unicode="&#x10c;" horiz-adv-x="1290" 
d="M1090 1280l65 53l86 -119l-434 -352l-84 101q25 22 36 50q3 8 8 25t5 37q0 61 -37.5 103.5t-93.5 42.5q-86 0 -139 -87t-53 -233q0 -258 121.5 -435t301.5 -177q94 0 171.5 38.5t146.5 118.5l106 -96q-122 -192 -271.5 -285.5t-334.5 -93.5q-276 0 -452.5 189.5
t-176.5 484.5q0 148 46.5 276.5t138.5 237.5q104 125 238 194q66 34 133.5 51t140.5 17q101 0 185.5 -35t146.5 -106zM419 1905h154l168 -201l166 201h153l-192 -371h-256z" />
    <glyph glyph-name="ccaron" unicode="&#x10d;" horiz-adv-x="1020" 
d="M969 823l-279 -268q-38 139 -93 216t-118 77q-47 0 -76 -42q-26 -43 -26 -120q0 -182 78.5 -301t199.5 -119q66 0 127 34t105 95l94 -69q-81 -173 -205 -264t-278 -91q-193 0 -318 134t-125 339q0 239 165.5 414.5t383.5 175.5q111 0 203.5 -53.5t161.5 -157.5zM266 1516
h154l168 -201l166 201h153l-192 -371h-256z" />
    <glyph glyph-name="dcroat" unicode="&#x111;" horiz-adv-x="1262" 
d="M721 690q0 75 -37.5 120.5t-95.5 45.5q-81 0 -125.5 -76t-44.5 -215q0 -161 57.5 -257.5t153.5 -96.5q27 0 50.5 9t41.5 28v442zM1085 1413v-182h177v-144h-177v-960h72v-127h-409l-27 115q-37 -37 -71 -63t-72 -45q-72 -36 -142 -36q-166 0 -273.5 132.5t-107.5 340.5
q0 243 138.5 402.5t341.5 159.5q32 0 53.5 -2t46.5 -9q45 -9 86 -32v124h-201v144h201v117z" />
    <glyph glyph-name="Gbreve" unicode="&#x11e;" horiz-adv-x="1479" 
d="M963 692h-238v150h469q38 0 77.5 6.5t71.5 19.5l56 -94q-26 -28 -39.5 -61t-13.5 -66v-647h-113l-92 147q-102 -87 -220 -131.5t-247 -44.5q-275 0 -444 180t-169 478q0 80 12 152.5t38 142.5q49 136 147 245q105 120 249.5 186t301.5 66q100 0 190.5 -30.5t169.5 -92.5
l80 50l84 -127l-430 -283l-80 111q14 15 21 33q4 9 6 17.5t2 20.5q0 50 -37.5 84.5t-93.5 34.5q-113 0 -182.5 -107t-69.5 -286q0 -258 117 -435.5t291 -177.5l48 3q17 0 38 8v448zM424 1872h131q0 -35 12.5 -61t37.5 -45q46 -34 134 -34t133 35q24 18 36.5 43.5t12.5 60.5
l131 1q0 -75 -24 -135t-64 -100q-76 -74 -225 -74q-146 0 -223.5 74.5t-91.5 234.5z" />
    <glyph glyph-name="gbreve" unicode="&#x11f;" horiz-adv-x="1081" 
d="M391 780q0 -162 63 -291t138 -129q48 0 76 38t28 104q0 165 -63 288t-146 123q-45 0 -70.5 -35.5t-25.5 -97.5zM555 -29q-24 -33 -36 -66q-5 -15 -8 -32.5t-3 -34.5q0 -52 23 -81t63 -29q33 0 53.5 22t20.5 57q0 53 -30 97t-83 67zM33 135q119 25 210.5 55.5t164.5 67.5
q-163 35 -258 137.5t-95 239.5q0 169 140.5 284t347.5 115q51 0 99.5 -6t92.5 -18q33 113 72.5 150.5t120.5 37.5q21 0 34 -2l37 -6l-41 -193q-23 13 -39.5 19t-29.5 6q-17 0 -29 -9q-8 -8 -10 -24l91 -108q91 -108 91 -240q0 -167 -129 -279t-403 -180q261 -33 376 -99.5
t115 -182.5q0 -117 -123.5 -198t-304.5 -81q-156 0 -244 51.5t-88 143.5q0 68 48 116.5t145 77.5l-88 11l-62 4h-32q-16 -3 -26 -4t-27 -4t-35 -7zM226 1483h131q0 -35 12.5 -61t37.5 -45q46 -34 134 -34t133 35q24 18 36.5 43.5t12.5 60.5l131 1q0 -75 -24 -135t-64 -100
q-76 -74 -225 -74q-146 0 -223.5 74.5t-91.5 234.5z" />
    <glyph glyph-name="Idotaccent" unicode="&#x130;" horiz-adv-x="844" 
d="M109 1395h626v-158h-100v-1081h100v-156h-626v156h100v1081h-100v158zM422 1868q62 0 106 -44t44 -106q0 -63 -42.5 -106t-107.5 -43q-60 0 -103.5 44.5t-43.5 104.5q0 59 45 104.5t102 45.5z" />
    <glyph glyph-name="dotlessi" unicode="&#x131;" horiz-adv-x="721" 
d="M541 1034h14l-8 -107l-2 -69v-731h71v-127h-507v127h71v686l-71 -12v114z" />
    <glyph glyph-name="Lslash" unicode="&#x141;" horiz-adv-x="1139" 
d="M109 1395h684v-158h-158v-322l280 183v-232l-280 -182v-514h78q135 0 194.5 48.5t75.5 172.5h133l-39 -452h-139l-2 61h-827v156h100v311l-209 -137v233l209 135v539h-100v158z" />
    <glyph glyph-name="lslash" unicode="&#x142;" horiz-adv-x="717" 
d="M616 1413v-129l-75 -24v-345l176 115v-182l-176 -113v-608h71v-127h-508v127h72v432l-176 -113v181l176 114v402l-72 -23v129z" />
    <glyph glyph-name="OE" unicode="&#x152;" horiz-adv-x="2181" 
d="M1071 940q0 149 -66.5 229t-191.5 80q-147 0 -222 -123.5t-75 -367.5q0 -292 86.5 -453.5t243.5 -161.5q121 0 173 77q26 39 39 105.5t13 166.5v448zM1296 1395h705v-291h-139l-4 57q-45 29 -108.5 45.5t-135.5 16.5h-117v-305h365v102h139v-375h-139v88h-365v-557h86
q92 0 162 24t117 74v91h139v-365h-705q-53 0 -113 -3t-149 -11q-164 -15 -229 -15q-331 0 -537.5 201t-206.5 524q0 322 206 523.5t538 201.5q6 0 118 -8q70 -5 111 -5q65 0 155 -6.5t107 -6.5z" />
    <glyph glyph-name="oe" unicode="&#x153;" horiz-adv-x="1821" 
d="M1403 653q-34 107 -82.5 163t-103.5 56q-49 0 -75 -41t-26 -114q0 -47 6.5 -84t11.5 -55q2 -6 11 -31zM819 375q0 202 -81.5 354t-176.5 152q-60 0 -94.5 -62.5t-34.5 -175.5q0 -210 78.5 -364t175.5 -154q64 0 98.5 64t34.5 186zM985 922q78 56 154 84t147 28
q106 0 192 -39t156 -118q54 -62 93.5 -143t39.5 -113q0 -12 -58.5 -27.5t-111.5 -36.5l-397 -162q45 -88 111 -134t151 -46q36 0 67 6t64 20q58 25 113 78l76 -79q-104 -134 -232.5 -201.5t-285.5 -67.5q-44 0 -83.5 6t-78.5 20q-74 25 -133 75q-80 -51 -164 -76t-178 -25
q-245 0 -407.5 150t-162.5 381q0 232 162 382t408 150q99 0 188 -27.5t170 -84.5z" />
    <glyph glyph-name="Scedilla" unicode="&#x15e;" horiz-adv-x="1280" 
d="M1032 1321l47 65l119 -73l-221 -348q-150 127 -252.5 189.5t-165.5 62.5q-49 0 -81 -24.5t-32 -62.5q0 -47 51 -89q48 -37 183 -89l71 -26q262 -97 341 -172q54 -52 82 -119t28 -139q0 -216 -170.5 -370.5t-410.5 -154.5q-83 0 -159.5 14t-157.5 45q-153 60 -292 175
l238 344q164 -174 297 -259t237 -85q69 0 112.5 33.5t43.5 87.5q0 33 -35 64t-121 67q-52 22 -212.5 80.5t-229.5 101.5q-91 56 -141.5 138.5t-50.5 176.5q0 182 158 325.5t366 143.5q80 0 167.5 -25t190.5 -77zM584 0h114v-84h19q111 0 170 -49.5t59 -142.5
q0 -98 -66.5 -153.5t-187.5 -55.5q-59 0 -134 12q-43 7 -77 14.5t-80 20.5v137q78 -21 150 -33t121 -12q41 0 63.5 17.5t22.5 54.5q0 32 -28 47.5t-91 15.5h-33q-15 0 -22 -2v213z" />
    <glyph glyph-name="scedilla" unicode="&#x15f;" horiz-adv-x="901" 
d="M827 922l-149 -236q-86 100 -153.5 150.5t-118.5 50.5q-29 0 -46.5 -16t-17.5 -44q0 -30 33 -62q33 -30 135 -81q222 -111 284 -181.5t62 -168.5q0 -150 -127.5 -256.5t-316.5 -106.5q-110 0 -213.5 36.5t-192.5 109.5l168 260q107 -119 194.5 -180.5t145.5 -61.5
q33 0 51.5 16.5t18.5 47.5q0 52 -183 150l-31 17q-274 148 -274 326q0 151 106.5 246.5t280.5 95.5q91 0 175.5 -27.5t168.5 -84.5zM394 0h114v-84h19q111 0 170 -49.5t59 -142.5q0 -98 -66.5 -153.5t-187.5 -55.5q-59 0 -134 12q-43 7 -77 14.5t-80 20.5v137
q78 -21 150 -33t121 -12q41 0 63.5 17.5t22.5 54.5q0 32 -28 47.5t-91 15.5h-33q-15 0 -22 -2v213z" />
    <glyph glyph-name="Scaron" unicode="&#x160;" horiz-adv-x="1280" 
d="M1032 1321l47 65l119 -73l-221 -348q-150 127 -252.5 189.5t-165.5 62.5q-49 0 -81 -24.5t-32 -62.5q0 -47 51 -89q48 -37 183 -89l71 -26q262 -97 341 -172q54 -52 82 -119t28 -139q0 -216 -170.5 -370.5t-410.5 -154.5q-83 0 -159.5 14t-157.5 45q-153 60 -292 175
l238 344q164 -174 297 -259t237 -85q69 0 112.5 33.5t43.5 87.5q0 33 -35 64t-121 67q-52 22 -212.5 80.5t-229.5 101.5q-91 56 -141.5 138.5t-50.5 176.5q0 182 158 325.5t366 143.5q80 0 167.5 -25t190.5 -77zM319 1905h154l168 -201l166 201h153l-192 -371h-256z" />
    <glyph glyph-name="scaron" unicode="&#x161;" horiz-adv-x="901" 
d="M827 922l-149 -236q-86 100 -153.5 150.5t-118.5 50.5q-29 0 -46.5 -16t-17.5 -44q0 -30 33 -62q33 -30 135 -81q222 -111 284 -181.5t62 -168.5q0 -150 -127.5 -256.5t-316.5 -106.5q-110 0 -213.5 36.5t-192.5 109.5l168 260q107 -119 194.5 -180.5t145.5 -61.5
q33 0 51.5 16.5t18.5 47.5q0 52 -183 150l-31 17q-274 148 -274 326q0 151 106.5 246.5t280.5 95.5q91 0 175.5 -27.5t168.5 -84.5zM129 1516h154l168 -201l166 201h153l-192 -371h-256z" />
    <glyph glyph-name="Ydieresis" unicode="&#x178;" horiz-adv-x="1280" 
d="M-6 1395h663v-158h-116l221 -391l231 391h-125v158h408v-158h-70l-567 -965q34 17 65.5 27t57.5 10t75 -9t70 -9q49 0 78.5 20t54.5 68l88 -23l-90 -350q-32 -17 -75 -26t-95 -9t-157.5 21.5t-157.5 21.5q-37 0 -76 -7q-19 -3 -43.5 -9t-56.5 -16l-82 77l240 398
l-478 780h-63v158zM836 1862q57 0 100 -41.5t43 -100.5q0 -62 -41 -103.5t-102 -41.5q-59 0 -102.5 42.5t-43.5 100.5q0 57 44 100.5t102 43.5zM446 1862q59 0 100.5 -41.5t41.5 -100.5q0 -63 -39.5 -104t-102.5 -41q-58 0 -101.5 42.5t-43.5 100.5q0 57 44 100.5t101 43.5z
" />
    <glyph glyph-name="Zcaron" unicode="&#x17d;" horiz-adv-x="1139" 
d="M156 1456h147l2 -61h692l76 -203l-69 -85l-99 -122l-508 -618q48 -8 106 -13l101 -4q164 0 244 34t104 114h129l-39 -564h-141l-6 66h-764l-90 221l704 862q-23 4 -56 8.5t-61 7.5q-24 0 -39 1q-60 4 -65 4q-115 0 -181 -39.5t-97 -130.5h-144zM247 1905h154l168 -201
l166 201h153l-192 -371h-256z" />
    <glyph glyph-name="zcaron" unicode="&#x17e;" horiz-adv-x="901" 
d="M154 1057h112l4 -51h514l52 -123q-33 -28 -76 -80l-10 -12l-440 -519l45 -11l51 -3q119 0 204 42.5t148 133.5l102 -20l-72 -475h-112l-4 61h-576l-84 172l516 604l-66 9l-50 3q-85 0 -143.5 -31t-102.5 -98l-92 27zM129 1516h154l168 -201l166 201h153l-192 -371h-256z
" />
    <glyph glyph-name="florin" unicode="&#x192;" horiz-adv-x="1081" 
d="M1051 1110l-262 -184q0 42 -7.5 76t-20.5 59q-23 47 -63 47q-36 0 -58 -37.5t-22 -99.5q0 -139 65 -220q34 -41 78.5 -63.5t100.5 -22.5l-22 -128h-187l-63 -439q-30 -212 -120.5 -313.5t-254.5 -101.5q-40 0 -80.5 5.5t-74.5 16.5l24 123l9 -1l26 -3q50 0 77.5 36
t41.5 120l79 557h-167l30 141h156l20 141q30 214 136 318t294 104q46 0 81 -7t70 -25q64 -31 114 -99z" />
    <glyph glyph-name="circumflex" unicode="&#x2c6;" 
d="M383 1516h256l192 -371h-153l-166 198l-168 -198h-154z" />
    <glyph glyph-name="caron" unicode="&#x2c7;" 
d="M190 1516h154l168 -201l166 201h153l-192 -371h-256z" />
    <glyph glyph-name="breve" unicode="&#x2d8;" 
d="M197 1483h131q0 -35 12.5 -61t37.5 -45q46 -34 134 -34t133 35q24 18 36.5 43.5t12.5 60.5l131 1q0 -75 -24 -135t-64 -100q-76 -74 -225 -74q-146 0 -223.5 74.5t-91.5 234.5z" />
    <glyph glyph-name="dotaccent" unicode="&#x2d9;" 
d="M512 1479q62 0 106 -44t44 -106q0 -63 -42.5 -106t-107.5 -43q-60 0 -103.5 44.5t-43.5 104.5q0 59 45 104.5t102 45.5z" />
    <glyph glyph-name="ring" unicode="&#x2da;" 
d="M512 1511q-45 0 -79 -33t-34 -81q0 -49 33 -81t80 -32q48 0 81.5 33.5t33.5 79.5t-34 80t-81 34zM513 1669q111 0 191 -80t80 -192q0 -113 -79 -192t-193 -79t-192 78t-78 193q0 110 78 191q39 39 87.5 60t105.5 21z" />
    <glyph glyph-name="ogonek" unicode="&#x2db;" 
d="M524 0h109q-64 -58 -91.5 -103.5t-27.5 -93.5q0 -40 18.5 -59.5t57.5 -19.5h102v-191h-153q-93 0 -150 54t-57 143q0 75 45.5 139t146.5 131z" />
    <glyph glyph-name="tilde" unicode="&#x2dc;" 
d="M725 1470h119q-31 -134 -83 -193.5t-136 -59.5h-15h-13q-9 2 -15.5 2.5t-14.5 2t-19 5.5l-91 26l-5 2q-49 13 -63 13q-33 0 -54 -18t-36 -60h-119q27 127 80 186.5t135 59.5h21q11 -3 16 -4t18.5 -3.5t34.5 -9.5l95 -26l26 -7l31 -2q32 0 54 21t34 65z" />
    <glyph glyph-name="Omega" unicode="&#x3a9;" horiz-adv-x="1581" 
d="M1153 297v-14h283l37 120h81l-120 -403h-545q82 202 127 421.5t45 432.5q0 278 -66.5 413.5t-201.5 135.5t-204 -137q-33 -69 -50 -170.5t-17 -239.5q0 -212 43 -427t129 -429h-544l-121 403h82l36 -120h283v14q-170 66 -264 209t-94 334q0 280 205 468.5t516 188.5
q308 0 514 -189t206 -470q0 -189 -94.5 -331t-265.5 -210z" />
    <glyph glyph-name="pi" unicode="&#x3c0;" horiz-adv-x="1513" 
d="M1481 885l-68 -320h-358v-49v-70q0 -28 1 -45q5 -85 5 -103q0 -43 1.5 -71t4.5 -65q0 -101 -38.5 -154t-113.5 -53q-59 0 -93 33t-34 94q0 69 66 228q63 152 92 255h-377l-1 -25l-1 -24v-70q0 -26 1 -43q5 -84 5 -103l7 -138q0 -101 -38.5 -154t-113.5 -53q-59 0 -93 33
t-34 94q0 65 65.5 222t94.5 261h-207q-91 0 -126.5 -25.5t-51.5 -97.5h-72q48 249 144 346t303 97h1030z" />
    <glyph glyph-name="endash" unicode="&#x2013;" 
d="M0 635h1024v-246h-1024v246z" />
    <glyph glyph-name="emdash" unicode="&#x2014;" horiz-adv-x="2048" 
d="M0 635h2048v-246h-2048v246z" />
    <glyph glyph-name="quoteleft" unicode="&#x2018;" horiz-adv-x="541" 
d="M342 1421l35 -78q-34 -17 -57.5 -38t-32.5 -43q54 0 92.5 -42t38.5 -98q0 -59 -40 -100t-102 -41q-69 0 -111 46t-42 124q0 93 57.5 164.5t161.5 105.5z" />
    <glyph glyph-name="quoteright" unicode="&#x2019;" horiz-adv-x="541" 
d="M199 981l-35 78q35 15 57.5 36t31.5 46q-51 0 -90.5 41.5t-39.5 97.5q0 61 41.5 101t105.5 40q65 0 106.5 -47.5t41.5 -128.5q0 -88 -58 -159t-161 -105z" />
    <glyph glyph-name="quotesinglbase" unicode="&#x201a;" horiz-adv-x="541" 
d="M199 -166l-35 78q33 18 56.5 38.5t32.5 43.5q-53 0 -91.5 41t-38.5 98q0 61 41.5 101t105.5 40q65 0 106.5 -47.5t41.5 -128.5q0 -88 -58 -159t-161 -105z" />
    <glyph glyph-name="quotedblleft" unicode="&#x201c;" horiz-adv-x="958" 
d="M760 1421l35 -78q-36 -18 -59 -39t-31 -42q53 0 91 -42t38 -98q0 -60 -40 -101q-20 -20 -44 -30t-56 -10q-69 0 -111 46t-42 124q0 92 56.5 163.5t162.5 106.5zM342 1421l35 -78q-34 -17 -57.5 -38t-32.5 -43q54 0 92.5 -42t38.5 -98q0 -59 -40 -100t-102 -41
q-69 0 -111 46t-42 124q0 93 57.5 164.5t161.5 105.5z" />
    <glyph glyph-name="quotedblright" unicode="&#x201d;" horiz-adv-x="958" 
d="M614 979l-32 80q36 19 56 37.5t31 44.5q-52 0 -90 42t-38 97q0 61 40 101q21 20 46.5 30t60.5 10q65 0 106 -48q20 -24 30 -55t10 -73q0 -88 -58.5 -160t-161.5 -106zM199 979l-35 80q35 15 57.5 36t31.5 46q-51 0 -90.5 41.5t-39.5 97.5q0 61 41.5 101t105.5 40
q65 0 106.5 -47.5t41.5 -128.5q0 -88 -58.5 -160t-160.5 -106z" />
    <glyph glyph-name="quotedblbase" unicode="&#x201e;" horiz-adv-x="958" 
d="M614 -166l-32 78q35 18 57.5 38.5t29.5 43.5q-52 0 -90 40.5t-38 98.5q0 61 40 101q21 20 46.5 30t60.5 10q65 0 106 -48q20 -24 30 -55t10 -73q0 -88 -59 -159t-161 -105zM199 -166l-35 78q33 18 56.5 38.5t32.5 43.5q-53 0 -91.5 41t-38.5 98q0 61 41.5 101t105.5 40
q65 0 106.5 -47.5t41.5 -128.5q0 -88 -58 -159t-161 -105z" />
    <glyph glyph-name="dagger" unicode="&#x2020;" 
d="M369 1395h286l-96 -428l348 92l2 -279l-350 99q25 -138 47 -212q10 -38 21.5 -72t25.5 -65q-30 -95 -53 -288q-10 -90 -15 -138q-10 -97 -15 -180.5t-5 -179.5h-106q0 154 -13 301q-6 71 -24 222t-51 263q22 55 44.5 136.5t49.5 212.5l-350 -99v279l350 -92z" />
    <glyph glyph-name="daggerdbl" unicode="&#x2021;" 
d="M369 1395h286l-96 -428l348 92l2 -279l-350 99q11 -66 33 -137.5t61 -172.5l-6 -17q-36 -100 -57.5 -173.5t-30.5 -120.5l350 98l-2 -276l-348 92l96 -428h-286l96 428l-350 -92v276l350 -98q-14 71 -36.5 147t-57.5 164q13 32 26 69t26 78q24 79 42 163l-350 -99v279
l350 -92z" />
    <glyph glyph-name="bullet" unicode="&#x2022;" horiz-adv-x="1208" 
d="M307 762q0 122 87.5 208.5t209.5 86.5q121 0 208 -86.5t87 -208.5t-87.5 -209.5t-209.5 -87.5t-208.5 87.5t-86.5 209.5z" />
    <glyph glyph-name="ellipsis" unicode="&#x2026;" horiz-adv-x="2048" 
d="M342 274q63 0 107.5 -44t44.5 -107t-45.5 -107.5t-106.5 -44.5q-59 0 -105 45t-46 107q0 59 45 105t106 46zM1024 274q63 0 107.5 -44t44.5 -107t-45.5 -107.5t-106.5 -44.5q-59 0 -105 45t-46 107q0 59 45 105t106 46zM1708 274q63 0 107.5 -44t44.5 -107t-45.5 -107.5
t-106.5 -44.5q-59 0 -105 45t-46 107q0 59 45 105t106 46z" />
    <glyph glyph-name="perthousand" unicode="&#x2030;" horiz-adv-x="2232" 
d="M1812 551q-30 0 -47.5 -19t-17.5 -53q0 -41 24 -114.5t66 -149.5q29 -55 55 -78.5t54 -23.5q26 0 43.5 21.5t17.5 58.5q0 36 -18.5 94t-55.5 131q-30 63 -62 98q-30 35 -59 35zM1124 551q-30 0 -47.5 -19t-17.5 -53q0 -41 24 -114.5t66 -149.5q29 -53 55.5 -77.5
t55.5 -24.5q26 0 42.5 21.5t16.5 58.5q0 36 -18.5 94t-55.5 131q-30 63 -62 98q-30 35 -59 35zM1876 690q130 0 213.5 -99.5t83.5 -258.5q0 -160 -83 -260.5t-214 -100.5q-130 0 -213.5 100.5t-83.5 260.5t83 258q43 50 95.5 75t118.5 25zM1190 690q130 0 213.5 -99.5
t83.5 -258.5q0 -160 -83 -260.5t-214 -100.5q-130 0 -213.5 100.5t-83.5 260.5t83 258q43 50 95.5 75t118.5 25zM293 1102q-30 0 -49 -19q-17 -19 -17 -53q0 -43 25 -117q11 -35 28 -73.5t37 -73.5q31 -55 56 -78.5t53 -23.5q26 0 42.5 21.5t16.5 57.5q0 37 -19 95
q-10 31 -22.5 61.5t-30.5 67t-33 61t-30 40.5q-31 34 -57 34zM1028 1241h197l-705 -1270h-196zM358 1241q130 0 213.5 -99.5t83.5 -258.5q0 -160 -83 -260.5t-214 -100.5q-130 0 -213.5 100.5t-83.5 260.5t83 258q43 50 95.5 75t118.5 25z" />
    <glyph glyph-name="guilsinglleft" unicode="&#x2039;" horiz-adv-x="537" 
d="M289 920h190l-114 -404l102 -401h-191l-219 401z" />
    <glyph glyph-name="guilsinglright" unicode="&#x203a;" horiz-adv-x="537" 
d="M70 920h188l221 -404l-233 -401h-189l113 401z" />
    <glyph glyph-name="franc" unicode="&#x20a3;" horiz-adv-x="2177" 
d="M109 1395h1030v-291h-142l-2 57q-44 30 -107.5 46t-135.5 16h-117v-305h362v102h142v-375h-142v88h-362v-577h143v-156h-669v156h100v1081h-100v158zM2089 1044l109 -38l-121 -342q-55 21 -100 34q-18 5 -35.5 8t-32.5 3q-60 0 -95.5 -41.5t-35.5 -114.5v-426h104v-127
h-540v127h71v514q0 40 -6.5 53.5t-26.5 26.5l-38 -31l-74 82l221 262q93 -42 147 -92t78 -115q85 129 128.5 168t90.5 39q27 0 60 -10q32 -8 74 -27z" />
    <glyph glyph-name="trademark" unicode="&#x2122;" horiz-adv-x="1683" 
d="M745 1460h222l127 -356l123 356h206v-26l-22 -7q-18 -3 -26.5 -14.5t-8.5 -34.5v-383q0 -22 7.5 -32.5t27.5 -16.5l22 -6v-33h-260v33l30 6q18 3 27 15t9 34v355l-148 -445h-43l-166 457v-367q0 -20 9 -33t27 -16l34 -6v-33h-197v33l35 6q17 3 26 15.5t9 33.5v375
q0 21 -9 33t-25 16l-36 6v35zM229 1460h457l12 -198h-36q0 39 -9.5 66t-28.5 50q-31 37 -92 37v-420q0 -22 8 -34t24 -15l30 -6v-33h-272v33l30 6q14 3 23 15q5 8 6.5 15.5t1.5 18.5v420h-4q-58 0 -90 -38q-29 -37 -37 -115h-35z" />
    <glyph glyph-name="partialdiff" unicode="&#x2202;" horiz-adv-x="1114" 
d="M766 684q8 44 17 100.5t15 105.5q11 97 11 150q0 86 -29.5 147.5t-68.5 61.5q-34 0 -131 -93t-181 -93q-47 0 -79.5 33.5t-32.5 83.5q0 68 93 125t220 57q210 0 332.5 -161t122.5 -441q0 -344 -163 -564.5t-417 -220.5q-182 0 -299 116.5t-117 299.5q0 204 120 336.5
t298 132.5q100 0 169 -42t120 -134zM698 532q0 114 -36.5 176t-104.5 62q-95 0 -160 -137t-65 -346q0 -114 36 -175t107 -61q95 0 159 135t64 346z" />
    <glyph glyph-name="Delta" unicode="&#x2206;" horiz-adv-x="1346" 
d="M528 1085l-356 -751h713zM639 1497h76l712 -1497h-1509z" />
    <glyph glyph-name="product" unicode="&#x220f;" horiz-adv-x="1774" 
d="M43 1473h1681v-91h-192v-1685h192v-90h-753v90h168v1685h-512v-1685h170v-90h-754v90h193v1685h-193v91z" />
    <glyph glyph-name="c294" unicode="&#x2211;" horiz-adv-x="1585" 
d="M27 1473h1276l153 -463h-92l-102 262q-24 61 -73 85.5t-202 24.5h-485l590 -757v-41l-689 -652h885q41 0 57.5 13t28.5 50l70 230h94l-188 -618h-1325v88l766 725l-764 981v72z" />
    <glyph glyph-name="c295" unicode="&#x2212;" horiz-adv-x="1706" 
d="M254 729h1198v-235h-1198v235z" />
    <glyph glyph-name="fraction" unicode="&#x2215;" horiz-adv-x="342" 
d="M485 1241h197l-825 -1270h-199z" />
    <glyph glyph-name="periodcentered" unicode="&#x2219;" horiz-adv-x="541" 
d="M270 758q62 0 107 -44.5t45 -107.5q0 -60 -45 -107q-46 -44 -107 -44q-59 0 -105 45t-46 106q0 59 45.5 105.5t105.5 46.5z" />
    <glyph glyph-name="radical" unicode="&#x221a;" horiz-adv-x="1366" 
d="M1155 1714h215v-149h-96l-590 -1606h-119l-307 846l-145 -55l-37 129l360 127l223 -635z" />
    <glyph glyph-name="infinity" unicode="&#x221e;" horiz-adv-x="1706" 
d="M956 561q43 -66 103 -104q61 -35 131 -35q88 0 145.5 51.5t57.5 132.5q0 77 -51.5 129.5t-127.5 52.5q-70 0 -129 -50.5t-129 -176.5zM752 657q-42 68 -101.5 102t-132.5 34q-90 0 -146.5 -51t-56.5 -130q0 -77 51 -130.5t128 -53.5q70 0 129.5 53t128.5 176zM856 442
q-67 -129 -146.5 -192.5t-177.5 -63.5q-138 0 -237.5 121.5t-99.5 300.5q0 186 87 304t228 118q89 0 165 -56t177 -200q69 131 148 193.5t176 62.5q139 0 238 -120.5t99 -299.5q0 -189 -87.5 -306.5t-227.5 -117.5q-90 0 -164.5 54t-177.5 202z" />
    <glyph glyph-name="integral" unicode="&#x222b;" horiz-adv-x="1249" 
d="M362 -248q119 0 119 667l4 154q0 253 36 449q33 181 94 304q114 230 350 230q105 0 170 -53t65 -137q0 -63 -41 -103t-106 -40q-63 0 -97 38q-32 40 -32 113q0 38 -8 49q-6 11 -25 11q-124 0 -124 -667l-3 -91q0 -151 -8.5 -264.5t-22.5 -208.5q-18 -142 -57 -244
q-62 -166 -159.5 -249t-229.5 -83q-107 0 -171.5 52t-64.5 139q0 63 42 103t112 40q59 0 92 -36t33 -103q0 -16 -2 -24q0 -28 8 -37t26 -9z" />
    <glyph glyph-name="approxequal" unicode="&#x2248;" horiz-adv-x="1706" 
d="M1530 602v-254q-102 -69 -194 -103t-183 -34q-92 0 -283.5 65.5t-308.5 65.5q-81 0 -173 -37q-43 -17 -96.5 -47.5t-113.5 -73.5v254q111 73 209.5 108.5t194.5 35.5q113 0 303.5 -65.5t273.5 -65.5q84 0 172 35.5t199 115.5zM1530 1036v-254q-106 -69 -197 -102
t-178 -33q-91 0 -284 64.5t-310 64.5q-83 0 -172 -36q-45 -19 -96.5 -48.5t-114.5 -73.5v256q112 74 209 108q47 16 96.5 25t98.5 9q113 0 303.5 -65.5t273.5 -65.5q84 0 170 35q46 19 94 46.5t107 69.5z" />
    <glyph glyph-name="notequal" unicode="&#x2260;" horiz-adv-x="1706" 
d="M1194 1251l168 -137l-135 -168h225v-221h-377l-180 -227h557v-222h-704l-246 -307l-170 137l135 170h-213v222h360l183 227h-543v221h694z" />
    <glyph glyph-name="lessequal" unicode="&#x2264;" horiz-adv-x="1706" 
d="M256 213h1196v-229h-1196v229zM1450 1257v-239l-776 -240l776 -239v-240l-1194 379v201z" />
    <glyph glyph-name="greaterequal" unicode="&#x2265;" horiz-adv-x="1706" 
d="M256 213h1196v-229h-1196v229zM256 1257l1194 -378v-201l-1194 -379v240l778 239l-778 240v239z" />
    <glyph glyph-name="lozenge" unicode="&#x25ca;" horiz-adv-x="1012" 
d="M506 1409l-385 -817l385 -825l385 825zM506 1653l500 -1061l-500 -1069l-500 1069z" />
    <glyph glyph-name="apple" unicode="&#xf000;" horiz-adv-x="1618" 
d="M836 1216l-2 14v23q0 124 95 229t236 132l1 -23l1 -39q0 -131 -103.5 -234.5t-203.5 -103.5h-8l-8 1zM1505 403q-114 -246 -204.5 -342t-204.5 -96q-49 0 -131 33t-123 33q-44 0 -130.5 -33t-127.5 -33q-64 0 -128 44t-130 132q-100 137 -158 295q-27 78 -41 153t-14 148
q0 219 125 356.5t323 137.5q68 0 156.5 -34t122.5 -34q17 0 45.5 8t75.5 26q90 34 153 34q112 0 199.5 -39.5t159.5 -122.5q-101 -64 -151 -145.5t-50 -182.5q0 -111 60 -199.5t173 -138.5z" />
    <glyph glyph-name="fi" unicode="&#xf001;" horiz-adv-x="1389" 
d="M1042 1272l-264 -152q-61 74 -122 114t-109 40q-34 0 -52 -19.5t-18 -58.5q0 -113 85 -174t243 -61q120 0 223.5 18t181.5 55h13l-7 -93l-2 -83v-731h70v-127h-506v127h70v674h-303v-674h71v-127h-507v127h71v674h-121l66 162h104q-32 43 -45.5 76.5t-13.5 68.5
q0 53 33 104t100 97q76 51 169.5 81.5t174.5 30.5q114 0 216 -38.5t179 -110.5z" />
    <glyph glyph-name="fl" unicode="&#xf002;" horiz-adv-x="1389" 
d="M995 1315l295 98v-129l-76 -24v-1133h70v-127h-506v127h70v1016l-70 -23q-61 74 -122 114t-109 40q-33 0 -51.5 -19t-18.5 -57q0 -93 66.5 -164t161.5 -71h59l-66 -162h-153v-674h71v-127h-507v127h71v674h-121l66 162h104q-32 43 -45.5 76.5t-13.5 68.5q0 53 33 104
t100 97q74 50 167 81t177 31q92 0 177 -26t171 -80z" />
    </font>
</defs>
</svg>
