<?xml version="1.0" encoding="utf-8"?>
<!-- Generator: Adobe Illustrator 22.0.1, SVG Export Plug-In . SVG Version: 6.00 Build 0)  -->
<svg version="1.1" xmlns="http://www.w3.org/2000/svg" xmlns:xlink="http://www.w3.org/1999/xlink" x="0px" y="0px"
	 viewBox="0 0 153 138.1" style="enable-background:new 0 0 153 138.1;" xml:space="preserve">
<style type="text/css">
	.st0{display:none;}
	.st1{display:inline;}
	.st2{fill:#231F20;}
	.st3{display:inline;fill:#CD519D;}
	.st4{fill:#CD519D;}
	.st5{fill:#0E4BA0;}
	.st6{fill:#FFFFFF;}
</style>
<g id="Layer_1" class="st0">
	<path class="st3" d="M107.3,23L82.8,2.6c-3.6-3-8.9-3-12.5,0L45.7,23c-2.3,1.9-3.5,4.6-3.5,7.6v49.3c0,1.1,0.9,2,2,2
		c1.1,0,2-0.9,2-2V30.5c0-1.7,0.8-3.3,2.1-4.4L72.8,5.7C74.9,4,78,4,80.2,5.7l24.5,20.4c1.3,1.1,2.1,2.7,2.1,4.4v49.3
		c0,1.1,0.9,2,2,2s2-0.9,2-2V30.5C110.8,27.6,109.6,24.9,107.3,23"/>
	<path class="st3" d="M105.9,86c-8.9-2.6-19-3.9-29.4-4c-10.3,0-20.5,1.2-29.4,3.7c-1.1,0.3-1.7,1.4-1.4,2.5
		c0.3,1.1,1.4,1.7,2.5,1.4c8.5-2.4,18.3-3.6,28.3-3.6c10,0,19.7,1.4,28.2,3.8c0.2,0.1,0.4,0.1,0.6,0.1c0.9,0,1.7-0.6,1.9-1.5
		C107.6,87.5,106.9,86.3,105.9,86"/>
	<path class="st3" d="M65.7,61.4c-2.2,0-3.7-1-4.5-2.8c-0.4-0.8-0.9-1.2-1.6-1.2c-1,0-1.7,0.7-1.7,1.6c0,0.2,0,0.5,0.1,0.8
		c0.9,2.9,3.7,4.9,7.8,4.9c3.6,0,6.6-1.8,7.6-5c0.4-1.1,0.6-2.6,0.6-4.7c0-2.3-0.3-3.7-0.6-4.9c-1-3.1-3.5-4.7-7-4.7
		c-2.3,0-4,0.9-4.8,1.9h-0.1v-8.1c0-0.2,0.1-0.3,0.3-0.3h10.1c1.1,0,1.7-0.7,1.7-1.6c0-1-0.6-1.6-1.7-1.6H59.7c-1,0-1.6,0.6-1.6,1.6
		v13c0,1.1,0.6,1.8,1.7,1.8c0.8,0,1.3-0.3,2-1.3c1-1.4,2.2-2.1,4-2.1c2,0,3.4,0.8,4.1,2.8c0.3,0.8,0.4,1.8,0.4,3.6
		c0,1.7-0.1,2.8-0.4,3.6C69.4,60.4,67.7,61.4,65.7,61.4"/>
	<path class="st3" d="M85.7,64.6c3.9,0,6.7-1.9,7.8-5.4c0,0,0,0,0,0h-3.8c-0.8,1.4-2.2,2.2-4,2.2c-2.1,0-3.6-1-4.3-2.9
		c-0.3-0.9-0.5-2.1-0.5-8.6c0-6.5,0.2-7.7,0.5-8.6c0.7-1.9,2.2-2.9,4.3-2.9c2.1,0,3.6,1,4.3,2.9c0.3,0.8,0.4,2,0.5,7.6h3.6
		c0-5.9-0.3-7.3-0.6-8.3c-1.1-3.5-3.9-5.4-7.8-5.4s-6.7,1.9-7.8,5.4c-0.3,1.1-0.6,2.6-0.6,9.3c0,6.7,0.3,8.2,0.6,9.3
		C79,62.7,81.8,64.6,85.7,64.6"/>
	<path class="st3" d="M90.3,57.4c-0.3,0-0.4-0.2-0.4-0.5v-2.4L88,51.3c0,0-0.1-0.1-0.1-0.2c0-0.2,0.2-0.4,0.4-0.4
		c0.2,0,0.3,0.1,0.4,0.2l1.6,2.9l1.4-2.9c0.1-0.1,0.2-0.2,0.4-0.2c0.2,0,0.4,0.2,0.4,0.4c0,0.1,0,0.2-0.1,0.2l-1.8,3.4l0,2.3
		C90.7,57.2,90.5,57.4,90.3,57.4"/>
	<path class="st3" d="M94.2,53.7l1.5,0c0.8,0,1.2-0.4,1.2-1.1c0-0.7-0.4-1.1-1.2-1.1h-1.5L94.2,53.7z M97.4,57.4
		c-0.1,0-0.3,0-0.4-0.3l-1.3-2.7l-1.5,0.1l0,2.4c0,0.3-0.2,0.5-0.4,0.5c-0.3,0-0.4-0.2-0.4-0.5v-5.9c0-0.2,0.2-0.4,0.4-0.4h2
		c1.3,0,2.1,0.7,2.1,1.9c0,0.9-0.5,1.6-1.3,1.8l1.3,2.4c0,0.1,0,0.1,0,0.2C97.9,57.2,97.7,57.4,97.4,57.4"/>
	<g class="st1">
		<path class="st4" d="M46.3,118c0-1.6-1-2.1-2.8-2.4c-1.7-0.3-2-0.7-2-1.5c0-0.8,0.6-1.4,1.7-1.4c1.2,0,1.8,0.4,2,1.5h0.9
			c-0.2-1.5-1.2-2.3-2.9-2.3c-1.6,0-2.7,1-2.7,2.3c0,1.5,1,2,2.8,2.3c1.6,0.3,2,0.7,2,1.6c0,0.9-0.8,1.6-1.9,1.6
			c-1.7,0-2.1-0.8-2.2-1.8h-1c0.2,1.4,1,2.7,3.2,2.7C45.1,120.5,46.3,119.4,46.3,118"/>
		<polygon class="st4" points="50.5,120.4 50.5,112.8 52.9,112.8 52.9,112 47.1,112 47.1,112.8 49.5,112.8 49.5,120.4 		"/>
		<path class="st4" d="M55.3,115.9v-3.1h1.6c1.1,0,1.8,0.4,1.8,1.5v0c0,1-0.6,1.5-1.8,1.5H55.3z M57.7,116.7
			c1.1-0.2,2.1-0.9,2.1-2.3v0c0-1.7-1.3-2.3-2.9-2.3h-2.5v8.4h1v-3.6h1.3l2.5,3.6h1.1L57.7,116.7z"/>
		<path class="st4" d="M66.7,117.1c0,2-0.8,2.6-2.1,2.6c-1.4,0-2-0.7-2-2.4V112h-1v5.3c0,2,1.1,3.2,3,3.2c2.1,0,3.2-1.3,3.2-3.3V112
			h-1V117.1z"/>
		<path class="st4" d="M73.3,112.7c1.4,0,2.2,0.7,2.4,1.9h1c-0.2-1.8-1.6-2.7-3.4-2.7c-2.3,0-3.9,1.8-3.9,4.3v0.1
			c0,2.6,1.5,4.2,3.9,4.2c1.9,0,3.2-0.9,3.5-2.9h-0.9c-0.2,1.4-1.2,2-2.5,2c-1.8,0-2.9-1.3-2.9-3.4v-0.1
			C70.4,114,71.5,112.7,73.3,112.7"/>
		<polygon class="st4" points="77.4,112.8 79.9,112.8 79.9,120.4 80.9,120.4 80.9,112.8 83.3,112.8 83.3,112 77.4,112 		"/>
		<path class="st4" d="M89.8,117.1c0,2-0.8,2.6-2.1,2.6c-1.4,0-2-0.7-2-2.4V112h-1v5.3c0,2,1.1,3.2,3,3.2c2.1,0,3.2-1.3,3.2-3.3V112
			h-1V117.1z"/>
		<path class="st4" d="M93.8,115.9v-3.1h1.6c1.1,0,1.8,0.4,1.8,1.5v0c0,1-0.6,1.5-1.8,1.5H93.8z M96.2,116.7
			c1.1-0.2,2.1-0.9,2.1-2.3v0c0-1.7-1.3-2.3-2.9-2.3h-2.5v8.4h1v-3.6h1.3l2.5,3.6h1.1L96.2,116.7z"/>
		<path class="st4" d="M101.6,117.2l1.4-4.3l1.5,4.3H101.6z M106.6,120.4l-2.8-8.4h-1.3l-2.9,8.4h1l0.8-2.4h3.4l0.8,2.4H106.6z"/>
		<polygon class="st4" points="109,112 108,112 108,120.4 112.9,120.4 112.9,119.5 109,119.5 		"/>
		<path class="st4" d="M47.3,131h2.4c0,1.5-0.8,2.7-2.6,2.7c-2,0-3-1.4-3-3.4v-0.1c0-2,1.1-3.4,3-3.4c1.2,0,2.1,0.5,2.4,1.8h1
			c-0.3-1.9-1.7-2.7-3.4-2.7c-2.4,0-4,1.8-4,4.3v0.1c0,2.4,1.5,4.2,4,4.2c2.1,0,3.6-1.3,3.6-3.7v-0.6h-3.4V131z"/>
		<path class="st4" d="M57.5,131.1c0,2-0.8,2.6-2.1,2.6c-1.4,0-2-0.7-2-2.4V126h-1v5.3c0,2,1.1,3.2,3,3.2c2.1,0,3.2-1.2,3.2-3.3V126
			h-1V131.1z"/>
		<path class="st4" d="M63.1,126.9l1.4,4.3h-2.9L63.1,126.9z M62.5,126l-2.9,8.4h1l0.8-2.4h3.4l0.8,2.4h1l-2.8-8.4H62.5z"/>
		<path class="st4" d="M69.1,129.9v-3.1h1.6c1.1,0,1.8,0.4,1.8,1.5v0c0,1-0.6,1.5-1.8,1.5H69.1z M73.6,128.4L73.6,128.4
			c0-1.7-1.3-2.4-2.9-2.4h-2.5v8.4h1v-3.6h1.3l2.5,3.6H74l-2.6-3.7C72.6,130.5,73.6,129.8,73.6,128.4"/>
		<path class="st4" d="M78.3,126.9l1.4,4.3h-2.9L78.3,126.9z M77.7,126l-2.9,8.4h1l0.8-2.4H80l0.8,2.4h1L79,126H77.7z"/>
		<polygon class="st4" points="88.7,126 88.7,132.9 84.6,126 83.3,126 83.3,134.4 84.3,134.4 84.3,127.2 88.5,134.4 89.7,134.4
			89.7,126 		"/>
		<polygon class="st4" points="91.1,126 91.1,126.9 93.5,126.9 93.5,134.4 94.5,134.4 94.5,126.9 96.9,126.9 96.9,126 		"/>
		<polygon class="st4" points="98.3,126 98.3,134.4 103.4,134.4 103.4,133.6 99.4,133.6 99.4,130.5 102.5,130.5 102.5,129.7
			99.4,129.7 99.4,126.9 103.2,126.9 103.2,126 		"/>
		<polygon class="st4" points="104.9,126 104.9,134.4 110,134.4 110,133.6 106,133.6 106,130.5 109.1,130.5 109.1,129.7 106,129.7
			106,126.9 109.8,126.9 109.8,126 		"/>
	</g>
	<g class="st1">
		<path class="st4" d="M36.9,118c0-1.6-1-2.1-2.8-2.4c-1.7-0.3-2-0.7-2-1.5c0-0.8,0.6-1.4,1.7-1.4c1.2,0,1.8,0.4,2,1.5h0.9
			c-0.2-1.5-1.2-2.3-2.9-2.3c-1.6,0-2.7,1-2.7,2.3c0,1.5,1,2,2.8,2.3c1.6,0.3,2,0.7,2,1.6c0,0.9-0.8,1.6-1.9,1.6
			c-1.7,0-2.1-0.8-2.2-1.8h-1c0.2,1.4,1,2.7,3.2,2.7C35.7,120.5,36.9,119.4,36.9,118"/>
		<polygon class="st4" points="41.1,120.4 41.1,112.8 43.5,112.8 43.5,112 37.7,112 37.7,112.8 40.1,112.8 40.1,120.4 		"/>
		<path class="st4" d="M45.9,115.9v-3.1h1.6c1.1,0,1.8,0.4,1.8,1.5v0c0,1-0.6,1.5-1.8,1.5H45.9z M48.3,116.7
			c1.1-0.2,2.1-0.9,2.1-2.3v0c0-1.7-1.3-2.3-2.9-2.3h-2.5v8.4h1v-3.6h1.3l2.5,3.6h1.1L48.3,116.7z"/>
		<path class="st4" d="M57.3,117.1c0,2-0.8,2.6-2.1,2.6c-1.4,0-2-0.7-2-2.4V112h-1v5.3c0,2,1.1,3.2,3,3.2c2.1,0,3.2-1.3,3.2-3.3V112
			h-1V117.1z"/>
		<path class="st4" d="M63.9,112.7c1.4,0,2.2,0.7,2.4,1.9h1c-0.2-1.8-1.6-2.7-3.4-2.7c-2.3,0-3.9,1.8-3.9,4.3v0.1
			c0,2.6,1.5,4.2,3.9,4.2c1.9,0,3.2-0.9,3.5-2.9h-0.9c-0.2,1.4-1.2,2-2.5,2c-1.8,0-2.9-1.3-2.9-3.4v-0.1
			C61,114,62.1,112.7,63.9,112.7"/>
		<polygon class="st4" points="68,112.8 70.5,112.8 70.5,120.4 71.5,120.4 71.5,112.8 73.9,112.8 73.9,112 68,112 		"/>
		<path class="st4" d="M80.4,117.1c0,2-0.8,2.6-2.1,2.6c-1.4,0-2-0.7-2-2.4V112h-1v5.3c0,2,1.1,3.2,3,3.2c2.1,0,3.2-1.3,3.2-3.3V112
			h-1V117.1z"/>
		<path class="st4" d="M84.4,115.9v-3.1H86c1.1,0,1.8,0.4,1.8,1.5v0c0,1-0.6,1.5-1.8,1.5H84.4z M86.8,116.7c1.1-0.2,2.1-0.9,2.1-2.3
			v0c0-1.7-1.3-2.3-2.9-2.3h-2.5v8.4h1v-3.6h1.3l2.5,3.6h1.1L86.8,116.7z"/>
		<path class="st4" d="M92.2,117.2l1.4-4.3l1.5,4.3H92.2z M97.2,120.4l-2.8-8.4H93l-2.9,8.4h1l0.8-2.4h3.4l0.8,2.4H97.2z"/>
		<polygon class="st4" points="99.6,112 98.6,112 98.6,120.4 103.5,120.4 103.5,119.5 99.6,119.5 		"/>
		<path class="st4" d="M37.9,131h2.4c0,1.5-0.8,2.7-2.6,2.7c-2,0-3-1.4-3-3.4v-0.1c0-2,1.1-3.4,3-3.4c1.2,0,2.1,0.5,2.4,1.8h1
			c-0.3-1.9-1.7-2.7-3.4-2.7c-2.4,0-4,1.8-4,4.3v0.1c0,2.4,1.5,4.2,4,4.2c2.1,0,3.6-1.3,3.6-3.7v-0.6h-3.4V131z"/>
		<path class="st4" d="M48.1,131.1c0,2-0.8,2.6-2.1,2.6c-1.4,0-2-0.7-2-2.4V126h-1v5.3c0,2,1.1,3.2,3,3.2c2.1,0,3.2-1.2,3.2-3.3V126
			h-1V131.1z"/>
		<path class="st4" d="M53.7,126.9l1.4,4.3h-2.9L53.7,126.9z M53.1,126l-2.9,8.4h1L52,132h3.4l0.8,2.4h1l-2.8-8.4H53.1z"/>
		<path class="st4" d="M59.7,129.9v-3.1h1.6c1.1,0,1.8,0.4,1.8,1.5v0c0,1-0.6,1.5-1.8,1.5H59.7z M64.2,128.4L64.2,128.4
			c0-1.7-1.3-2.4-2.9-2.4h-2.5v8.4h1v-3.6H61l2.5,3.6h1.1l-2.6-3.7C63.2,130.5,64.2,129.8,64.2,128.4"/>
		<path class="st4" d="M68.9,126.9l1.4,4.3h-2.9L68.9,126.9z M68.3,126l-2.9,8.4h1l0.8-2.4h3.4l0.8,2.4h1l-2.8-8.4H68.3z"/>
		<polygon class="st4" points="79.3,126 79.3,132.9 75.3,126 73.9,126 73.9,134.4 74.9,134.4 74.9,127.2 79.1,134.4 80.3,134.4
			80.3,126 		"/>
		<polygon class="st4" points="81.7,126 81.7,126.9 84.1,126.9 84.1,134.4 85.1,134.4 85.1,126.9 87.5,126.9 87.5,126 		"/>
		<polygon class="st4" points="88.9,126 88.9,134.4 94,134.4 94,133.6 90,133.6 90,130.5 93.1,130.5 93.1,129.7 90,129.7 90,126.9
			93.8,126.9 93.8,126 		"/>
		<polygon class="st4" points="95.5,126 95.5,134.4 100.6,134.4 100.6,133.6 96.6,133.6 96.6,130.5 99.7,130.5 99.7,129.7
			96.6,129.7 96.6,126.9 100.4,126.9 100.4,126 		"/>
	</g>
</g>
<g id="Layer_2">
	<g>
		<polygon class="st6" points="36.1,112.2 37.5,112.2 40.1,118.7 42.5,112.2 43.9,112.2 43.9,120.5 42.9,120.5 42.9,113.5
			40.2,120.5 39.9,120.5 37,113.5 37,120.5 36.1,120.5 		"/>
		<path class="st6" d="M47.4,117.3h2.9l-1.4-4.3L47.4,117.3z M48.3,112.2h1.3l2.8,8.3h-1l-0.8-2.4h-3.4l-0.8,2.4h-1L48.3,112.2z"/>
		<rect x="53.9" y="112.2" class="st6" width="1" height="8.3"/>
		<polygon class="st6" points="57.1,112.2 58.4,112.2 62.5,119.1 62.5,112.2 63.4,112.2 63.4,120.5 62.3,120.5 58.1,113.4
			58.1,120.5 57.1,120.5 		"/>
		<polygon class="st6" points="67.3,113 64.8,113 64.8,112.2 70.7,112.2 70.7,113 68.3,113 68.3,120.5 67.3,120.5 		"/>
		<polygon class="st6" points="72.1,112.2 76.9,112.2 76.9,113 73.1,113 73.1,115.8 76.2,115.8 76.2,116.7 73.1,116.7 73.1,119.7
			77.1,119.7 77.1,120.5 72.1,120.5 		"/>
		<polygon class="st6" points="78.7,112.2 80,112.2 84,119.1 84,112.2 85,112.2 85,120.5 83.8,120.5 79.6,113.4 79.6,120.5
			78.7,120.5 		"/>
		<path class="st6" d="M88.5,117.3h2.9l-1.4-4.3L88.5,117.3z M89.3,112.2h1.3l2.8,8.3h-1l-0.8-2.4h-3.4l-0.8,2.4h-1L89.3,112.2z"/>
		<polygon class="st6" points="94.9,112.2 96.3,112.2 100.3,119.1 100.3,112.2 101.3,112.2 101.3,120.5 100.1,120.5 95.9,113.4
			95.9,120.5 94.9,120.5 		"/>
		<path class="st6" d="M103,116.4L103,116.4c0-2.6,1.7-4.3,3.9-4.3c1.7,0,3.2,0.9,3.4,2.7h-1c-0.2-1.3-0.9-1.9-2.4-1.9
			c-1.7,0-2.9,1.3-2.9,3.4v0.1c0,2.1,1.1,3.4,2.9,3.4c1.4,0,2.3-0.7,2.5-2h0.9c-0.3,1.9-1.6,2.9-3.5,2.9
			C104.4,120.6,103,119,103,116.4"/>
		<polygon class="st6" points="111.9,112.2 116.7,112.2 116.7,113 112.9,113 112.9,115.8 116,115.8 116,116.7 112.9,116.7
			112.9,119.7 116.9,119.7 116.9,120.5 111.9,120.5 		"/>
		<polygon class="st6" points="25.9,126.2 25.9,134.5 31,134.5 31,133.6 26.9,133.6 26.9,130.6 30,130.6 30,129.8 26.9,129.8
			26.9,127 30.8,127 30.8,126.2 		"/>
		<polygon class="st6" points="39,126.2 36.5,132.6 33.9,126.2 32.5,126.2 32.5,134.5 33.4,134.5 33.4,127.5 36.3,134.5 36.6,134.5
			39.4,127.5 39.4,134.5 40.4,134.5 40.4,126.2 		"/>
		<polygon class="st6" points="42.5,126.2 42.5,134.5 47.5,134.5 47.5,133.6 43.5,133.6 43.5,130.6 46.6,130.6 46.6,129.8
			43.5,129.8 43.5,127 47.3,127 47.3,126.2 		"/>
		<path class="st6" d="M51.6,130.1c1.2,0,1.8-0.5,1.8-1.5v0c0-1.1-0.7-1.5-1.8-1.5h-1.6v3.1H51.6z M49.1,126.2h2.5
			c1.6,0,2.9,0.7,2.9,2.3v0c0,1.4-0.9,2-2.1,2.3l2.5,3.7h-1.1l-2.5-3.6h-1.3v3.6h-1V126.2z"/>
		<path class="st6" d="M55.9,130.4L55.9,130.4c0-2.5,1.6-4.3,4-4.3c1.7,0,3.1,0.8,3.4,2.6h-1c-0.2-1.3-1.1-1.8-2.3-1.8
			c-1.9,0-3,1.4-3,3.4v0.1c0,2.1,1,3.4,3,3.4c1.8,0,2.6-1.2,2.6-2.7h-2.4v-0.8h3.4v0.6c0,2.4-1.5,3.7-3.6,3.7
			C57.3,134.6,55.9,132.8,55.9,130.4"/>
		<polygon class="st6" points="65.2,126.2 65.2,134.5 70.3,134.5 70.3,133.6 66.2,133.6 66.2,130.6 69.3,130.6 69.3,129.8
			66.2,129.8 66.2,127 70,127 70,126.2 		"/>
		<polygon class="st6" points="77.2,126.2 77.2,133 73.1,126.2 71.8,126.2 71.8,134.5 72.8,134.5 72.8,127.3 77,134.5 78.1,134.5
			78.1,126.2 		"/>
		<path class="st6" d="M79.8,130.4L79.8,130.4c0-2.6,1.7-4.3,3.9-4.3c1.7,0,3.2,0.9,3.4,2.7h-1c-0.2-1.3-0.9-1.9-2.4-1.9
			c-1.7,0-2.9,1.3-2.9,3.4v0.1c0,2.1,1.1,3.4,2.9,3.4c1.4,0,2.3-0.7,2.5-2h0.9c-0.3,1.9-1.6,2.9-3.5,2.9
			C81.3,134.6,79.8,132.9,79.8,130.4"/>
		<polygon class="st6" points="93.1,126.2 91,130 88.8,126.2 87.7,126.2 90.5,130.8 90.5,134.5 91.5,134.5 91.5,130.9 94.1,126.2
			"/>
		<path class="st6" d="M98.1,130.4L98.1,130.4c0-2.6,1.7-4.3,3.9-4.3c1.7,0,3.2,0.9,3.4,2.7h-1c-0.2-1.3-0.9-1.9-2.4-1.9
			c-1.7,0-2.9,1.3-2.9,3.4v0.1c0,2.1,1.1,3.4,2.9,3.4c1.4,0,2.3-0.7,2.5-2h0.9c-0.3,1.9-1.6,2.9-3.5,2.9
			C99.6,134.6,98.1,132.9,98.1,130.4"/>
		<path class="st6" d="M109.7,127l1.4,4.3h-2.9L109.7,127z M109.1,126.2l-2.9,8.3h1l0.8-2.4h3.4l0.8,2.4h1l-2.8-8.3H109.1z"/>
		<path class="st6" d="M117.3,130.1c1.2,0,1.8-0.5,1.8-1.5v0c0-1.1-0.7-1.5-1.8-1.5h-1.6v3.1H117.3z M114.7,126.2h2.5
			c1.6,0,2.9,0.7,2.9,2.3v0c0,1.4-0.9,2-2.1,2.3l2.5,3.7h-1.1l-2.5-3.6h-1.3v3.6h-1V126.2z"/>
		<polygon class="st6" points="122,126.2 122,134.5 127.1,134.5 127.1,133.6 123,133.6 123,130.6 126.1,130.6 126.1,129.8
			123,129.8 123,127 126.9,127 126.9,126.2 		"/>
	</g>
	<g>
		<path class="st6" d="M108.8,81.8c-1.1,0-2-0.9-2-2V30.4c0-1.7-0.8-3.3-2.1-4.4L80.2,5.6c-2.1-1.8-5.2-1.8-7.4,0L48.3,26
			c-1.3,1.1-2.1,2.7-2.1,4.4v49.3c0,1.1-0.9,2-2,2s-2-0.9-2-2V30.4c0-2.9,1.3-5.7,3.5-7.6L70.2,2.5c3.6-3,8.9-3,12.5,0l24.5,20.4
			c2.3,1.9,3.5,4.6,3.5,7.6v49.3C110.8,80.9,109.9,81.8,108.8,81.8"/>
		<path class="st6" d="M105.3,89.9c-0.2,0-0.4,0-0.6-0.1c-8.5-2.5-18.3-3.8-28.2-3.8c-10,0-19.7,1.2-28.3,3.6
			c-1.1,0.3-2.2-0.3-2.5-1.4c-0.3-1.1,0.3-2.2,1.4-2.5c8.9-2.5,19-3.8,29.4-3.7c10.4,0,20.5,1.4,29.4,4c1.1,0.3,1.7,1.4,1.4,2.5
			C107,89.3,106.2,89.9,105.3,89.9"/>
		<path class="st6" d="M62,54.7h-0.1c-1.1,0-2-1.1-2-2.4v-3.2c0-1.3,0.9-2.4,2-2.4c0,0,0.1,0,0.1,0V54.7z M73.2,60.6
			c-1.2,0-2.3,0.7-2.9,1.7c-1.7,0-3.1-0.6-4-1.6c-1.6-1.8-1.4-4.7-1.4-4.7c0,0,0-0.1,0-0.1V43.3c0-0.1-0.1-5.4,3.3-8.9
			c2-2,4.8-3.1,8.4-3.2c0.1,0,0.2,0,0.3-0.1c0.1,0,0.1,0,0.2,0c3.6,0,6.4,1.1,8.4,3.2c1.4,1.4,2.2,3.2,2.7,4.7h3
			c-0.5-2.1-1.5-4.6-3.6-6.7c-2.5-2.6-6.1-4-10.4-4h0c-0.1,0-0.2,0-0.3,0.1c-0.1,0-0.1,0-0.2,0h0c-4.4,0.1-7.9,1.4-10.4,4
			C61.9,36.8,62,43.1,62,43.3V44c0,0-0.1,0-0.1,0c-2.7,0-4.8,2.3-4.8,5.2v3.2c0,2.9,2.2,5.2,4.8,5.2h0.2c0.2,1.4,0.6,3.5,2.1,5.1
			c1.4,1.6,3.4,2.4,6,2.5c0.5,1.2,1.7,2,3,2c1.8,0,3.3-1.5,3.3-3.3C76.5,62.1,75,60.6,73.2,60.6"/>
		<path class="st6" d="M70.3,50l3.6-4.6c0.5-0.6,0.7-1.2,0.7-1.8c0-1-0.6-1.7-1.7-1.7c-0.9,0-1.4,0.5-1.7,1.3
			c-0.1,0.3-0.3,0.5-0.6,0.5c-0.4,0-0.6-0.2-0.6-0.6c0-0.1,0-0.2,0-0.2c0.2-1.1,1.2-2.1,2.9-2.1c1.8,0,2.9,1.2,2.9,2.9
			c0,0.9-0.4,1.7-1,2.5l-3.2,4v0h3.7c0.4,0,0.6,0.2,0.6,0.6c0,0.4-0.2,0.6-0.6,0.6h-4.9c-0.4,0-0.6-0.2-0.6-0.6
			C70,50.6,70.1,50.4,70.3,50"/>
		<path class="st6" d="M76.8,48.9c0-0.2,0-0.4,0.2-0.8l3.2-6.8c0.1-0.3,0.3-0.4,0.6-0.4c0.3,0,0.6,0.2,0.6,0.6c0,0.1,0,0.2-0.1,0.3
			l-3,6.5v0h2.8c0.1,0,0.1,0,0.1-0.1v-2.2c0-0.4,0.3-0.7,0.6-0.7c0.4,0,0.6,0.2,0.6,0.7v2.2c0,0.1,0,0.1,0.1,0.1h0.6
			c0.4,0,0.6,0.2,0.6,0.6c0,0.3-0.2,0.6-0.6,0.6h-0.6c-0.1,0-0.1,0-0.1,0.1v1.2c0,0.4-0.3,0.7-0.6,0.7c-0.4,0-0.6-0.3-0.6-0.7v-1.2
			c0-0.1,0-0.1-0.1-0.1h-3.6C77,49.6,76.8,49.3,76.8,48.9"/>
		<path class="st6" d="M84.4,50.9l3.1-9.7c0.1-0.3,0.3-0.5,0.5-0.5c0.3,0,0.6,0.2,0.6,0.6c0,0.1,0,0.2,0,0.2l-3.1,9.7
			c-0.1,0.3-0.3,0.5-0.5,0.5c-0.3,0-0.6-0.2-0.6-0.6C84.4,51.1,84.4,51,84.4,50.9"/>
		<path class="st6" d="M91.1,50.6l3.3-8.4v0h-3.2c-0.1,0-0.1,0-0.1,0.1v0.8c0,0.4-0.2,0.7-0.6,0.7s-0.6-0.3-0.6-0.7v-1.5
			c0-0.4,0.2-0.6,0.6-0.6h4.7c0.4,0,0.7,0.3,0.7,0.7c0,0.2,0,0.4-0.2,0.8l-3.4,8.7c-0.1,0.3-0.4,0.4-0.6,0.4c-0.4,0-0.6-0.3-0.6-0.6
			C91,50.8,91.1,50.7,91.1,50.6"/>
	</g>
</g>
</svg>
