<?xml version="1.0" encoding="utf-8"?>
<!-- Generator: Adobe Illustrator 22.0.1, SVG Export Plug-In . SVG Version: 6.00 Build 0)  -->
<svg version="1.1" xmlns="http://www.w3.org/2000/svg" xmlns:xlink="http://www.w3.org/1999/xlink" x="0px" y="0px"
	 viewBox="0 0 153 138.1" style="enable-background:new 0 0 153 138.1;" xml:space="preserve">
<style type="text/css">
	.st0{display:none;}
	.st1{display:inline;}
	.st2{fill:#231F20;}
	.st3{display:inline;fill:#CD519D;}
	.st4{fill:#CD519D;}
	.st5{fill:#0E4BA0;}
	.st6{fill:#FFFFFF;}
</style>
<g id="Layer_1" class="st0">
	<path class="st3" d="M107.3,23L82.8,2.6c-3.6-3-8.9-3-12.5,0L45.7,23c-2.3,1.9-3.5,4.6-3.5,7.6v49.3c0,1.1,0.9,2,2,2
		c1.1,0,2-0.9,2-2V30.5c0-1.7,0.8-3.3,2.1-4.4L72.8,5.7C74.9,4,78,4,80.2,5.7l24.5,20.4c1.3,1.1,2.1,2.7,2.1,4.4v49.3
		c0,1.1,0.9,2,2,2s2-0.9,2-2V30.5C110.8,27.6,109.6,24.9,107.3,23"/>
	<path class="st3" d="M105.9,86c-8.9-2.6-19-3.9-29.4-4c-10.3,0-20.5,1.2-29.4,3.7c-1.1,0.3-1.7,1.4-1.4,2.5
		c0.3,1.1,1.4,1.7,2.5,1.4c8.5-2.4,18.3-3.6,28.3-3.6c10,0,19.7,1.4,28.2,3.8c0.2,0.1,0.4,0.1,0.6,0.1c0.9,0,1.7-0.6,1.9-1.5
		C107.6,87.5,106.9,86.3,105.9,86"/>
	<path class="st3" d="M65.7,61.4c-2.2,0-3.7-1-4.5-2.8c-0.4-0.8-0.9-1.2-1.6-1.2c-1,0-1.7,0.7-1.7,1.6c0,0.2,0,0.5,0.1,0.8
		c0.9,2.9,3.7,4.9,7.8,4.9c3.6,0,6.6-1.8,7.6-5c0.4-1.1,0.6-2.6,0.6-4.7c0-2.3-0.3-3.7-0.6-4.9c-1-3.1-3.5-4.7-7-4.7
		c-2.3,0-4,0.9-4.8,1.9h-0.1v-8.1c0-0.2,0.1-0.3,0.3-0.3h10.1c1.1,0,1.7-0.7,1.7-1.6c0-1-0.6-1.6-1.7-1.6H59.7c-1,0-1.6,0.6-1.6,1.6
		v13c0,1.1,0.6,1.8,1.7,1.8c0.8,0,1.3-0.3,2-1.3c1-1.4,2.2-2.1,4-2.1c2,0,3.4,0.8,4.1,2.8c0.3,0.8,0.4,1.8,0.4,3.6
		c0,1.7-0.1,2.8-0.4,3.6C69.4,60.4,67.7,61.4,65.7,61.4"/>
	<path class="st3" d="M85.7,64.6c3.9,0,6.7-1.9,7.8-5.4c0,0,0,0,0,0h-3.8c-0.8,1.4-2.2,2.2-4,2.2c-2.1,0-3.6-1-4.3-2.9
		c-0.3-0.9-0.5-2.1-0.5-8.6c0-6.5,0.2-7.7,0.5-8.6c0.7-1.9,2.2-2.9,4.3-2.9c2.1,0,3.6,1,4.3,2.9c0.3,0.8,0.4,2,0.5,7.6h3.6
		c0-5.9-0.3-7.3-0.6-8.3c-1.1-3.5-3.9-5.4-7.8-5.4s-6.7,1.9-7.8,5.4c-0.3,1.1-0.6,2.6-0.6,9.3c0,6.7,0.3,8.2,0.6,9.3
		C79,62.7,81.8,64.6,85.7,64.6"/>
	<path class="st3" d="M90.3,57.4c-0.3,0-0.4-0.2-0.4-0.5v-2.4L88,51.3c0,0-0.1-0.1-0.1-0.2c0-0.2,0.2-0.4,0.4-0.4
		c0.2,0,0.3,0.1,0.4,0.2l1.6,2.9l1.4-2.9c0.1-0.1,0.2-0.2,0.4-0.2c0.2,0,0.4,0.2,0.4,0.4c0,0.1,0,0.2-0.1,0.2l-1.8,3.4l0,2.3
		C90.7,57.2,90.5,57.4,90.3,57.4"/>
	<path class="st3" d="M94.2,53.7l1.5,0c0.8,0,1.2-0.4,1.2-1.1c0-0.7-0.4-1.1-1.2-1.1h-1.5L94.2,53.7z M97.4,57.4
		c-0.1,0-0.3,0-0.4-0.3l-1.3-2.7l-1.5,0.1l0,2.4c0,0.3-0.2,0.5-0.4,0.5c-0.3,0-0.4-0.2-0.4-0.5v-5.9c0-0.2,0.2-0.4,0.4-0.4h2
		c1.3,0,2.1,0.7,2.1,1.9c0,0.9-0.5,1.6-1.3,1.8l1.3,2.4c0,0.1,0,0.1,0,0.2C97.9,57.2,97.7,57.4,97.4,57.4"/>
</g>
<g id="Layer_2">
	<g>
		<path class="st6" d="M30,118.3h1c0.2,0.9,0.5,1.5,1.8,1.5c1.1,0,1.8-0.8,1.8-2c0-1.2-0.7-1.9-1.7-1.9c-1,0-1.5,0.3-2,0.8h-0.4
			v-4.5h4.7v0.9h-3.8v2.5c0.3-0.3,0.9-0.6,1.7-0.6c1.5,0,2.6,1.1,2.6,2.8c0,1.8-1.3,2.8-2.9,2.8C31,120.6,30.2,119.6,30,118.3"/>
		<path class="st6" d="M45.4,119.6l-0.9-1l0.6-0.6l1.1,1.2c0.7-0.6,1.1-1.6,1.1-2.8v-0.1c0-1.9-1.1-3.4-3-3.4c-1.9,0-3,1.4-3,3.4
			v0.1c0,2,1.3,3.4,3.1,3.4C44.6,119.8,45,119.7,45.4,119.6 M46,120.2c-0.5,0.2-1.1,0.4-1.7,0.4c-2.5,0-4.1-1.9-4.1-4.2v-0.1
			c0-2.4,1.7-4.2,4.1-4.2s4.1,1.9,4.1,4.2v0.1c0,1.4-0.6,2.6-1.6,3.4l1,1.2l-0.6,0.6L46,120.2z"/>
		<path class="st6" d="M49.9,117.5v-5.3h1v5.2c0,1.7,0.6,2.4,2,2.4c1.3,0,2.1-0.5,2.1-2.6v-5h1v5.2c0,2-1,3.3-3.2,3.3
			C51,120.6,49.9,119.5,49.9,117.5"/>
		<path class="st6" d="M59.2,117.3h2.9l-1.4-4.3L59.2,117.3z M60,112.2h1.3l2.8,8.3h-1l-0.8-2.4h-3.4l-0.8,2.4h-1L60,112.2z"/>
		<polygon class="st6" points="65.6,112.2 66.6,112.2 66.6,119.7 70.4,119.7 70.4,120.5 65.6,120.5 		"/>
		<rect x="71.9" y="112.2" class="st6" width="1" height="8.3"/>
		<polygon class="st6" points="76.8,113 74.3,113 74.3,112.2 80.2,112.2 80.2,113 77.8,113 77.8,120.5 76.8,120.5 		"/>
		<polygon class="st6" points="83.7,116.9 80.9,112.2 82.1,112.2 84.2,116 86.3,112.2 87.3,112.2 84.7,116.9 84.7,120.5 83.7,120.5
					"/>
		<path class="st6" d="M94.6,119.7c1.2,0,1.8-0.5,1.8-1.5v0c0-1-0.6-1.5-1.9-1.5h-1.7v3.1H94.6z M94.3,115.8c1.2,0,1.7-0.4,1.7-1.5
			v0c0-0.9-0.5-1.3-1.7-1.3h-1.5v2.8H94.3z M91.8,112.2h2.5c1.5,0,2.7,0.5,2.7,2.2v0c0,0.8-0.3,1.4-1.3,1.8c1.2,0.3,1.7,0.9,1.7,2v0
			c0,1.6-1.1,2.3-2.7,2.3h-2.9V112.2z"/>
		<path class="st6" d="M98.9,117.5v-5.3h1v5.2c0,1.7,0.6,2.4,2,2.4c1.3,0,2.1-0.5,2.1-2.6v-5h1v5.2c0,2-1,3.3-3.2,3.3
			C100,120.6,98.9,119.5,98.9,117.5"/>
		<rect x="107.2" y="112.2" class="st6" width="1" height="8.3"/>
		<polygon class="st6" points="110.3,112.2 111.3,112.2 111.3,119.7 115.1,119.7 115.1,120.5 110.3,120.5 		"/>
		<path class="st6" d="M118.7,119.7c2.1,0,3.2-1.3,3.2-3.3v-0.1c0-1.9-0.9-3.3-3.2-3.3h-1.1v6.7H118.7z M116.6,112.2h2.2
			c2.9,0,4.2,1.8,4.2,4.1v0.1c0,2.3-1.3,4.1-4.2,4.1h-2.2V112.2z"/>
		<rect x="39.9" y="126.2" class="st6" width="1" height="8.3"/>
		<polygon class="st6" points="48.5,126.2 48.5,133 44.4,126.2 43.1,126.2 43.1,134.5 44.1,134.5 44.1,127.3 48.3,134.5 49.4,134.5
			49.4,126.2 		"/>
		<path class="st6" d="M51,131.9h1c0.1,1,0.5,1.8,2.2,1.8c1.1,0,1.9-0.6,1.9-1.6c0-0.9-0.4-1.3-2-1.6c-1.7-0.3-2.8-0.8-2.8-2.3
			c0-1.3,1.1-2.3,2.7-2.3c1.7,0,2.7,0.8,2.9,2.3h-0.9c-0.2-1-0.8-1.5-2-1.5c-1.1,0-1.7,0.6-1.7,1.3c0,0.8,0.3,1.2,2,1.5
			c1.8,0.3,2.8,0.9,2.8,2.4c0,1.4-1.2,2.5-2.9,2.5C52,134.6,51.2,133.4,51,131.9"/>
		<path class="st6" d="M61.3,130.3c1.2,0,1.8-0.6,1.8-1.7v0c0-1.2-0.7-1.6-1.8-1.6h-1.4v3.3H61.3z M58.8,126.2h2.4
			c1.6,0,2.9,0.7,2.9,2.4v0c0,1.8-1.3,2.5-2.9,2.5h-1.4v3.4h-1V126.2z"/>
		<polygon class="st6" points="65.6,126.2 65.6,134.5 70.6,134.5 70.6,133.6 66.6,133.6 66.6,130.6 69.7,130.6 69.7,129.8
			66.6,129.8 66.6,127 70.4,127 70.4,126.2 		"/>
		<path class="st6" d="M71.7,130.4L71.7,130.4c0-2.6,1.7-4.3,3.9-4.3c1.7,0,3.2,0.9,3.4,2.7h-1c-0.2-1.3-0.9-1.9-2.4-1.9
			c-1.7,0-2.9,1.3-2.9,3.4v0.1c0,2.1,1.1,3.4,2.9,3.4c1.4,0,2.3-0.7,2.5-2H79c-0.3,1.9-1.6,2.9-3.5,2.9
			C73.1,134.6,71.7,132.9,71.7,130.4"/>
		<polygon class="st6" points="79.7,126.2 79.7,127 82.2,127 82.2,134.5 83.2,134.5 83.2,127 85.6,127 85.6,126.2 		"/>
		<rect x="87" y="126.2" class="st6" width="1" height="8.3"/>
		<path class="st6" d="M96.9,130.3L96.9,130.3c0-2-1.1-3.5-3-3.5c-1.9,0-3,1.4-3,3.4v0.1c0,2,1.3,3.4,3.1,3.4
			C95.8,133.7,96.9,132.3,96.9,130.3 M89.8,130.4L89.8,130.4c0-2.5,1.7-4.3,4.1-4.3c2.4,0,4.1,1.9,4.1,4.2v0.1c0,2.3-1.6,4.2-4,4.2
			C91.5,134.6,89.8,132.7,89.8,130.4"/>
		<polygon class="st6" points="105,126.2 105,133 101,126.2 99.6,126.2 99.6,134.5 100.6,134.5 100.6,127.3 104.8,134.5 106,134.5
			106,126.2 		"/>
		<path class="st6" d="M107.6,131.9h1c0.1,1,0.5,1.8,2.2,1.8c1.1,0,1.9-0.6,1.9-1.6c0-0.9-0.4-1.3-2-1.6c-1.7-0.3-2.8-0.8-2.8-2.3
			c0-1.3,1.1-2.3,2.7-2.3c1.7,0,2.7,0.8,2.9,2.3h-0.9c-0.2-1-0.8-1.5-2-1.5c-1.1,0-1.7,0.6-1.7,1.3c0,0.8,0.3,1.2,2,1.5
			c1.8,0.3,2.8,0.9,2.8,2.4c0,1.4-1.2,2.5-2.9,2.5C108.5,134.6,107.7,133.4,107.6,131.9"/>
	</g>
	<g>
		<path class="st6" d="M105.3,90c-0.2,0-0.4,0-0.6-0.1c-8.5-2.5-18.3-3.8-28.2-3.8c-10,0-19.7,1.2-28.3,3.6
			c-1.1,0.3-2.2-0.3-2.5-1.4c-0.3-1.1,0.3-2.2,1.4-2.5c8.9-2.5,19-3.8,29.4-3.7c10.4,0,20.5,1.4,29.4,4c1.1,0.3,1.7,1.4,1.4,2.5
			C107,89.4,106.2,90,105.3,90"/>
		<path class="st6" d="M108.8,81.8c-1.1,0-2-0.9-2-2V30.5c0-1.7-0.8-3.3-2.1-4.4L80.2,5.7c-2.1-1.8-5.2-1.8-7.4,0L48.3,26.1
			c-1.3,1.1-2.1,2.7-2.1,4.4v49.3c0,1.1-0.9,2-2,2c-1.1,0-2-0.9-2-2V30.5c0-2.9,1.3-5.7,3.5-7.6L70.2,2.6c3.6-3,8.9-3,12.5,0
			L107.3,23c2.3,1.9,3.5,4.6,3.5,7.6v49.3C110.8,80.9,109.9,81.8,108.8,81.8"/>
		<path class="st6" d="M82.5,48c-1.3-2-3.4-3-6.2-3c-2.3,0-4,0.9-4.7,1.9h-0.1v-8c0-0.2,0.1-0.3,0.3-0.3h10c1.1,0,1.7-0.7,1.7-1.6
			s-0.6-1.6-1.7-1.6h-12c-1,0-1.5,0.6-1.5,1.5v12.9c0,1.1,0.6,1.8,1.7,1.8c0.8,0,1.3-0.3,2-1.2c1-1.4,2.2-2.1,4-2.1
			c1.5,0,2.7,0.5,3.5,1.6C80.2,49,81.3,48.3,82.5,48"/>
		<path class="st6" d="M78.3,60.2c-0.7,0.4-1.6,0.7-2.5,0.7c-2.2,0-3.7-1-4.5-2.8c-0.4-0.8-0.9-1.2-1.6-1.2c-1,0-1.7,0.7-1.7,1.6
			c0,0.2,0,0.5,0.1,0.8c0.9,2.8,3.7,4.9,7.7,4.9c2,0,3.8-0.6,5.2-1.6c-0.3-0.2-0.6-0.3-0.8-0.5C79.4,61.5,78.8,60.8,78.3,60.2"/>
		<path class="st6" d="M84.9,57.6c-0.1,0-0.1,0-0.2-0.1L83,56.3c-0.2-0.1-0.2-0.3-0.1-0.5c0.1-0.2,0.3-0.2,0.5-0.1l1.4,1l2.2-3.3
			c0.1-0.2,0.3-0.2,0.5-0.1c0.2,0.1,0.2,0.3,0.1,0.5l-2.4,3.7C85.1,57.5,85,57.6,84.9,57.6C84.9,57.6,84.9,57.6,84.9,57.6"/>
		<path class="st6" d="M85.7,61.1c-3,0.5-5.9-1.6-6.4-4.6c-0.2-1.4,0.1-2.9,1-4.1c0.9-1.2,2.2-2,3.7-2.2c0.3,0,0.6-0.1,0.8-0.1
			c2.7,0,5.1,2,5.5,4.7c0.2,1.4-0.1,2.9-1,4.1C88.5,60.1,87.1,60.9,85.7,61.1 M95,64l-4.9-4.3c0,0,0.1-0.1,0.1-0.1
			c1-1.4,1.5-3.1,1.2-4.8c-0.6-3.6-3.9-6-7.5-5.5c-1.8,0.3-3.3,1.2-4.4,2.6c-1,1.4-1.5,3.1-1.2,4.8c0.5,3.2,3.3,5.6,6.5,5.6
			c0.3,0,0.7,0,1-0.1c1-0.2,1.9-0.6,2.8-1.1l4,5.1c0,0,1.4,1.6,2.6,0.4C96.4,65.2,95,64,95,64"/>
	</g>
</g>
</svg>
