<?xml version="1.0" encoding="utf-8"?>
<!-- Generator: Adobe Illustrator 22.0.1, SVG Export Plug-In . SVG Version: 6.00 Build 0)  -->
<svg version="1.1" xmlns="http://www.w3.org/2000/svg" xmlns:xlink="http://www.w3.org/1999/xlink" x="0px" y="0px"
	 viewBox="0 0 153 138.1" style="enable-background:new 0 0 153 138.1;" xml:space="preserve">
<style type="text/css">
	.st0{display:none;}
	.st1{display:inline;}
	.st2{fill:#231F20;}
	.st3{display:inline;fill:#CD519D;}
	.st4{fill:#CD519D;}
	.st5{fill:#0E4BA0;}
	.st6{fill:#FFFFFF;}
</style>
<g id="Layer_1" class="st0">
	<path class="st3" d="M107.3,23L82.8,2.6c-3.6-3-8.9-3-12.5,0L45.7,23c-2.3,1.9-3.5,4.6-3.5,7.6v49.3c0,1.1,0.9,2,2,2
		c1.1,0,2-0.9,2-2V30.5c0-1.7,0.8-3.3,2.1-4.4L72.8,5.7C74.9,4,78,4,80.2,5.7l24.5,20.4c1.3,1.1,2.1,2.7,2.1,4.4v49.3
		c0,1.1,0.9,2,2,2s2-0.9,2-2V30.5C110.8,27.6,109.6,24.9,107.3,23"/>
	<path class="st3" d="M105.9,86c-8.9-2.6-19-3.9-29.4-4c-10.3,0-20.5,1.2-29.4,3.7c-1.1,0.3-1.7,1.4-1.4,2.5
		c0.3,1.1,1.4,1.7,2.5,1.4c8.5-2.4,18.3-3.6,28.3-3.6c10,0,19.7,1.4,28.2,3.8c0.2,0.1,0.4,0.1,0.6,0.1c0.9,0,1.7-0.6,1.9-1.5
		C107.6,87.5,106.9,86.3,105.9,86"/>
	<path class="st3" d="M65.7,61.4c-2.2,0-3.7-1-4.5-2.8c-0.4-0.8-0.9-1.2-1.6-1.2c-1,0-1.7,0.7-1.7,1.6c0,0.2,0,0.5,0.1,0.8
		c0.9,2.9,3.7,4.9,7.8,4.9c3.6,0,6.6-1.8,7.6-5c0.4-1.1,0.6-2.6,0.6-4.7c0-2.3-0.3-3.7-0.6-4.9c-1-3.1-3.5-4.7-7-4.7
		c-2.3,0-4,0.9-4.8,1.9h-0.1v-8.1c0-0.2,0.1-0.3,0.3-0.3h10.1c1.1,0,1.7-0.7,1.7-1.6c0-1-0.6-1.6-1.7-1.6H59.7c-1,0-1.6,0.6-1.6,1.6
		v13c0,1.1,0.6,1.8,1.7,1.8c0.8,0,1.3-0.3,2-1.3c1-1.4,2.2-2.1,4-2.1c2,0,3.4,0.8,4.1,2.8c0.3,0.8,0.4,1.8,0.4,3.6
		c0,1.7-0.1,2.8-0.4,3.6C69.4,60.4,67.7,61.4,65.7,61.4"/>
	<path class="st3" d="M85.7,64.6c3.9,0,6.7-1.9,7.8-5.4c0,0,0,0,0,0h-3.8c-0.8,1.4-2.2,2.2-4,2.2c-2.1,0-3.6-1-4.3-2.9
		c-0.3-0.9-0.5-2.1-0.5-8.6c0-6.5,0.2-7.7,0.5-8.6c0.7-1.9,2.2-2.9,4.3-2.9c2.1,0,3.6,1,4.3,2.9c0.3,0.8,0.4,2,0.5,7.6h3.6
		c0-5.9-0.3-7.3-0.6-8.3c-1.1-3.5-3.9-5.4-7.8-5.4s-6.7,1.9-7.8,5.4c-0.3,1.1-0.6,2.6-0.6,9.3c0,6.7,0.3,8.2,0.6,9.3
		C79,62.7,81.8,64.6,85.7,64.6"/>
	<path class="st3" d="M90.3,57.4c-0.3,0-0.4-0.2-0.4-0.5v-2.4L88,51.3c0,0-0.1-0.1-0.1-0.2c0-0.2,0.2-0.4,0.4-0.4
		c0.2,0,0.3,0.1,0.4,0.2l1.6,2.9l1.4-2.9c0.1-0.1,0.2-0.2,0.4-0.2c0.2,0,0.4,0.2,0.4,0.4c0,0.1,0,0.2-0.1,0.2l-1.8,3.4l0,2.3
		C90.7,57.2,90.5,57.4,90.3,57.4"/>
	<path class="st3" d="M94.2,53.7l1.5,0c0.8,0,1.2-0.4,1.2-1.1c0-0.7-0.4-1.1-1.2-1.1h-1.5L94.2,53.7z M97.4,57.4
		c-0.1,0-0.3,0-0.4-0.3l-1.3-2.7l-1.5,0.1l0,2.4c0,0.3-0.2,0.5-0.4,0.5c-0.3,0-0.4-0.2-0.4-0.5v-5.9c0-0.2,0.2-0.4,0.4-0.4h2
		c1.3,0,2.1,0.7,2.1,1.9c0,0.9-0.5,1.6-1.3,1.8l1.3,2.4c0,0.1,0,0.1,0,0.2C97.9,57.2,97.7,57.4,97.4,57.4"/>
	<g class="st1">
		<path class="st4" d="M46.3,118c0-1.6-1-2.1-2.8-2.4c-1.7-0.3-2-0.7-2-1.5c0-0.8,0.6-1.4,1.7-1.4c1.2,0,1.8,0.4,2,1.5h0.9
			c-0.2-1.5-1.2-2.3-2.9-2.3c-1.6,0-2.7,1-2.7,2.3c0,1.5,1,2,2.8,2.3c1.6,0.3,2,0.7,2,1.6c0,0.9-0.8,1.6-1.9,1.6
			c-1.7,0-2.1-0.8-2.2-1.8h-1c0.2,1.4,1,2.7,3.2,2.7C45.1,120.5,46.3,119.4,46.3,118"/>
		<polygon class="st4" points="50.5,120.4 50.5,112.8 52.9,112.8 52.9,112 47.1,112 47.1,112.8 49.5,112.8 49.5,120.4 		"/>
		<path class="st4" d="M55.3,115.9v-3.1h1.6c1.1,0,1.8,0.4,1.8,1.5v0c0,1-0.6,1.5-1.8,1.5H55.3z M57.7,116.7
			c1.1-0.2,2.1-0.9,2.1-2.3v0c0-1.7-1.3-2.3-2.9-2.3h-2.5v8.4h1v-3.6h1.3l2.5,3.6h1.1L57.7,116.7z"/>
		<path class="st4" d="M66.7,117.1c0,2-0.8,2.6-2.1,2.6c-1.4,0-2-0.7-2-2.4V112h-1v5.3c0,2,1.1,3.2,3,3.2c2.1,0,3.2-1.3,3.2-3.3V112
			h-1V117.1z"/>
		<path class="st4" d="M73.3,112.7c1.4,0,2.2,0.7,2.4,1.9h1c-0.2-1.8-1.6-2.7-3.4-2.7c-2.3,0-3.9,1.8-3.9,4.3v0.1
			c0,2.6,1.5,4.2,3.9,4.2c1.9,0,3.2-0.9,3.5-2.9h-0.9c-0.2,1.4-1.2,2-2.5,2c-1.8,0-2.9-1.3-2.9-3.4v-0.1
			C70.4,114,71.5,112.7,73.3,112.7"/>
		<polygon class="st4" points="77.4,112.8 79.9,112.8 79.9,120.4 80.9,120.4 80.9,112.8 83.3,112.8 83.3,112 77.4,112 		"/>
		<path class="st4" d="M89.8,117.1c0,2-0.8,2.6-2.1,2.6c-1.4,0-2-0.7-2-2.4V112h-1v5.3c0,2,1.1,3.2,3,3.2c2.1,0,3.2-1.3,3.2-3.3V112
			h-1V117.1z"/>
		<path class="st4" d="M93.8,115.9v-3.1h1.6c1.1,0,1.8,0.4,1.8,1.5v0c0,1-0.6,1.5-1.8,1.5H93.8z M96.2,116.7
			c1.1-0.2,2.1-0.9,2.1-2.3v0c0-1.7-1.3-2.3-2.9-2.3h-2.5v8.4h1v-3.6h1.3l2.5,3.6h1.1L96.2,116.7z"/>
		<path class="st4" d="M101.6,117.2l1.4-4.3l1.5,4.3H101.6z M106.6,120.4l-2.8-8.4h-1.3l-2.9,8.4h1l0.8-2.4h3.4l0.8,2.4H106.6z"/>
		<polygon class="st4" points="109,112 108,112 108,120.4 112.9,120.4 112.9,119.5 109,119.5 		"/>
		<path class="st4" d="M47.3,131h2.4c0,1.5-0.8,2.7-2.6,2.7c-2,0-3-1.4-3-3.4v-0.1c0-2,1.1-3.4,3-3.4c1.2,0,2.1,0.5,2.4,1.8h1
			c-0.3-1.9-1.7-2.7-3.4-2.7c-2.4,0-4,1.8-4,4.3v0.1c0,2.4,1.5,4.2,4,4.2c2.1,0,3.6-1.3,3.6-3.7v-0.6h-3.4V131z"/>
		<path class="st4" d="M57.5,131.1c0,2-0.8,2.6-2.1,2.6c-1.4,0-2-0.7-2-2.4V126h-1v5.3c0,2,1.1,3.2,3,3.2c2.1,0,3.2-1.2,3.2-3.3V126
			h-1V131.1z"/>
		<path class="st4" d="M63.1,126.9l1.4,4.3h-2.9L63.1,126.9z M62.5,126l-2.9,8.4h1l0.8-2.4h3.4l0.8,2.4h1l-2.8-8.4H62.5z"/>
		<path class="st4" d="M69.1,129.9v-3.1h1.6c1.1,0,1.8,0.4,1.8,1.5v0c0,1-0.6,1.5-1.8,1.5H69.1z M73.6,128.4L73.6,128.4
			c0-1.7-1.3-2.4-2.9-2.4h-2.5v8.4h1v-3.6h1.3l2.5,3.6H74l-2.6-3.7C72.6,130.5,73.6,129.8,73.6,128.4"/>
		<path class="st4" d="M78.3,126.9l1.4,4.3h-2.9L78.3,126.9z M77.7,126l-2.9,8.4h1l0.8-2.4H80l0.8,2.4h1L79,126H77.7z"/>
		<polygon class="st4" points="88.7,126 88.7,132.9 84.6,126 83.3,126 83.3,134.4 84.3,134.4 84.3,127.2 88.5,134.4 89.7,134.4
			89.7,126 		"/>
		<polygon class="st4" points="91.1,126 91.1,126.9 93.5,126.9 93.5,134.4 94.5,134.4 94.5,126.9 96.9,126.9 96.9,126 		"/>
		<polygon class="st4" points="98.3,126 98.3,134.4 103.4,134.4 103.4,133.6 99.4,133.6 99.4,130.5 102.5,130.5 102.5,129.7
			99.4,129.7 99.4,126.9 103.2,126.9 103.2,126 		"/>
		<polygon class="st4" points="104.9,126 104.9,134.4 110,134.4 110,133.6 106,133.6 106,130.5 109.1,130.5 109.1,129.7 106,129.7
			106,126.9 109.8,126.9 109.8,126 		"/>
	</g>
</g>
<g id="Layer_2">
	<g>
		<polygon class="st6" points="48,112 52.9,112 52.9,112.8 49,112.8 49,115.6 52.1,115.6 52.1,116.5 49,116.5 49,119.5 53.1,119.5
			53.1,120.3 48,120.3 		"/>
		<polygon class="st6" points="56.8,116 54.3,112 55.4,112 57.4,115.3 59.5,112 60.5,112 58,116 60.7,120.3 59.5,120.3 57.3,116.8
			55.1,120.3 54.1,120.3 		"/>
		<polygon class="st6" points="63.9,112.8 61.5,112.8 61.5,112 67.3,112 67.3,112.8 64.9,112.8 64.9,120.3 63.9,120.3 		"/>
		<polygon class="st6" points="68.7,112 73.6,112 73.6,112.8 69.7,112.8 69.7,115.6 72.8,115.6 72.8,116.5 69.7,116.5 69.7,119.5
			73.8,119.5 73.8,120.3 68.7,120.3 		"/>
		<polygon class="st6" points="75.3,112 76.6,112 80.7,118.9 80.7,112 81.6,112 81.6,120.3 80.5,120.3 76.3,113.2 76.3,120.3
			75.3,120.3 		"/>
		<path class="st6" d="M85.9,119.5c2.1,0,3.2-1.3,3.2-3.3v-0.1c0-1.9-0.9-3.3-3.2-3.3h-1.1v6.7H85.9z M83.7,112h2.2
			c2.9,0,4.2,1.8,4.2,4.1v0.1c0,2.3-1.3,4.1-4.2,4.1h-2.2V112z"/>
		<polygon class="st6" points="91.8,112 96.7,112 96.7,112.8 92.8,112.8 92.8,115.6 95.9,115.6 95.9,116.5 92.8,116.5 92.8,119.5
			96.9,119.5 96.9,120.3 91.8,120.3 		"/>
		<path class="st6" d="M100.6,119.5c2.1,0,3.2-1.3,3.2-3.3v-0.1c0-1.9-0.9-3.3-3.2-3.3h-1.1v6.7H100.6z M98.4,112h2.2
			c2.9,0,4.2,1.8,4.2,4.1v0.1c0,2.3-1.3,4.1-4.2,4.1h-2.2V112z"/>
		<polygon class="st6" points="42.5,126.2 40.1,132.6 37.5,126.2 36.1,126.2 36.1,134.5 37,134.5 37,127.5 39.9,134.5 40.2,134.5
			42.9,127.5 42.9,134.5 43.9,134.5 43.9,126.2 		"/>
		<path class="st6" d="M48.9,127l1.4,4.3h-2.9L48.9,127z M48.3,126.2l-2.9,8.3h1l0.8-2.4h3.4l0.8,2.4h1l-2.8-8.3H48.3z"/>
		<rect x="53.9" y="126.2" class="st6" width="1" height="8.3"/>
		<polygon class="st6" points="62.5,126.2 62.5,133 58.4,126.2 57.1,126.2 57.1,134.5 58.1,134.5 58.1,127.3 62.3,134.5 63.4,134.5
			63.4,126.2 		"/>
		<polygon class="st6" points="64.8,126.2 64.8,127 67.2,127 67.2,134.5 68.3,134.5 68.3,127 70.7,127 70.7,126.2 		"/>
		<polygon class="st6" points="72.1,126.2 72.1,134.5 77.1,134.5 77.1,133.6 73.1,133.6 73.1,130.6 76.2,130.6 76.2,129.8
			73.1,129.8 73.1,127 76.9,127 76.9,126.2 		"/>
		<polygon class="st6" points="84,126.2 84,133 80,126.2 78.7,126.2 78.7,134.5 79.6,134.5 79.6,127.3 83.8,134.5 85,134.5
			85,126.2 		"/>
		<path class="st6" d="M89.9,127l1.4,4.3h-2.9L89.9,127z M89.3,126.2l-2.9,8.3h1l0.8-2.4h3.4l0.8,2.4h1l-2.8-8.3H89.3z"/>
		<polygon class="st6" points="100.3,126.2 100.3,133 96.3,126.2 94.9,126.2 94.9,134.5 95.9,134.5 95.9,127.3 100.1,134.5
			101.3,134.5 101.3,126.2 		"/>
		<path class="st6" d="M103,130.4L103,130.4c0-2.6,1.7-4.3,3.9-4.3c1.7,0,3.2,0.9,3.4,2.7h-1c-0.2-1.3-0.9-1.9-2.4-1.9
			c-1.7,0-2.9,1.3-2.9,3.4v0.1c0,2.1,1.1,3.4,2.9,3.4c1.4,0,2.3-0.7,2.5-2h0.9c-0.3,1.9-1.6,2.9-3.5,2.9
			C104.4,134.6,103,132.9,103,130.4"/>
		<polygon class="st6" points="111.9,126.2 111.9,134.5 116.9,134.5 116.9,133.6 112.9,133.6 112.9,130.6 116,130.6 116,129.8
			112.9,129.8 112.9,127 116.7,127 116.7,126.2 		"/>
	</g>
	<g>
		<path class="st6" d="M108.8,82c-1.1,0-2-0.9-2-2V30.7c0-1.7-0.8-3.3-2.1-4.4L80.2,5.9c-2.1-1.8-5.2-1.8-7.4,0L48.3,26.2
			c-1.3,1.1-2.1,2.7-2.1,4.4V80c0,1.1-0.9,2-2,2s-2-0.9-2-2V30.7c0-2.9,1.3-5.7,3.5-7.6L70.2,2.7c3.6-3,8.9-3,12.5,0l24.5,20.4
			c2.3,1.9,3.5,4.6,3.5,7.6V80C110.8,81.1,109.9,82,108.8,82"/>
		<path class="st6" d="M105.3,90.1c-0.2,0-0.4,0-0.6-0.1c-8.5-2.5-18.3-3.8-28.2-3.8c-10,0-19.7,1.2-28.3,3.6
			c-1.1,0.3-2.2-0.3-2.5-1.4c-0.3-1.1,0.3-2.2,1.4-2.5c8.9-2.5,19-3.8,29.4-3.7c10.4,0,20.5,1.4,29.4,4c1.1,0.3,1.7,1.4,1.4,2.5
			C107,89.6,106.2,90.1,105.3,90.1"/>
		<path class="st6" d="M65.5,40.4L65.5,40.4l-3.7,2.5c-0.3,0.2-0.6,0.3-1,0.3c-1,0-1.6-0.7-1.6-1.6c0-0.5,0.3-1.1,0.9-1.6l4.6-3.4
			c1-0.7,1.7-1,2.4-1c1.1,0,1.9,0.8,1.9,2v25c0,1.2-0.8,1.9-1.8,1.9c-1,0-1.8-0.7-1.8-1.9V40.4z"/>
		<path class="st6" d="M105.3,90.1c-0.2,0-0.4,0-0.6-0.1c-8.5-2.5-18.3-3.8-28.2-3.8c-10,0-19.7,1.2-28.3,3.6
			c-1.1,0.3-2.2-0.3-2.5-1.4c-0.3-1.1,0.3-2.2,1.4-2.5c8.9-2.5,19-3.8,29.4-3.7c10.4,0,20.5,1.4,29.4,4c1.1,0.3,1.7,1.4,1.4,2.5
			C107,89.5,106.2,90.1,105.3,90.1"/>
		<path class="st6" d="M89.5,43.3c0-4.4-3.1-7.8-8-7.8c-4.7,0-7.3,2.9-8,5.8c0,0.2-0.1,0.5-0.1,0.6c0,1,0.7,1.6,1.8,1.6
			c0.7,0,1.3-0.5,1.6-1.4c0.6-2.1,2-3.4,4.5-3.4c2.8,0,4.5,1.9,4.5,4.5c0,1-0.2,1.9-0.6,2.8h3.8C89.4,45.2,89.5,44.2,89.5,43.3"/>
		<path class="st6" d="M81.9,56.3h-4.3l-3.4,4.3c-0.8,1-1,1.6-1,2.3c0,0.9,0.6,1.6,1.7,1.6h13.2c1.1,0,1.7-0.7,1.7-1.6
			c0-1-0.6-1.6-1.7-1.6H78v-0.1L81.9,56.3z"/>
		<path class="st6" d="M79.2,54.5c-0.3,0-0.4-0.2-0.4-0.5v-4.3l-1.5,3.4c-0.1,0.3-0.2,0.4-0.5,0.4c-0.3,0-0.4-0.1-0.5-0.4l-1.5-3.4
			l0.1,4.3c0,0.3-0.2,0.5-0.4,0.5c-0.3,0-0.4-0.2-0.4-0.5v-5.8c0-0.3,0.2-0.5,0.5-0.5c0.2,0,0.4,0.1,0.5,0.4l1.9,4.2l1.8-4.2
			c0.1-0.3,0.3-0.4,0.5-0.4c0.3,0,0.5,0.2,0.5,0.5v5.8C79.6,54.4,79.4,54.5,79.2,54.5"/>
		<path class="st6" d="M85.2,54.5c-0.3,0-0.4-0.2-0.5-0.4l-2.9-4.8l0.1,4.7c0,0.3-0.2,0.5-0.4,0.5c-0.2,0-0.4-0.2-0.4-0.5v-5.8
			c0-0.3,0.2-0.5,0.5-0.5c0.3,0,0.4,0.2,0.5,0.4l2.9,4.8l-0.1-4.7c0-0.3,0.2-0.5,0.4-0.5c0.3,0,0.4,0.2,0.4,0.5V54
			C85.7,54.3,85.5,54.5,85.2,54.5"/>
		<path class="st6" d="M88.9,54.5c-0.3,0-0.4-0.2-0.4-0.5v-5.5l-1.6,0c-0.3,0-0.4-0.2-0.4-0.4c0-0.2,0.2-0.4,0.4-0.4h4
			c0.3,0,0.4,0.2,0.4,0.4c0,0.2-0.2,0.4-0.4,0.4h-1.6l0,5.4C89.3,54.4,89.1,54.5,88.9,54.5"/>
		<path class="st6" d="M96.3,54.5c-0.3,0-0.4-0.2-0.4-0.5v-2.6l-2.9,0l0,2.6c0,0.3-0.2,0.5-0.4,0.5c-0.3,0-0.4-0.2-0.4-0.5v-5.9
			c0-0.3,0.2-0.5,0.4-0.5c0.3,0,0.4,0.2,0.4,0.5v2.5l2.9,0v-2.5c0-0.3,0.2-0.5,0.4-0.5c0.3,0,0.4,0.2,0.4,0.5v5.9
			C96.7,54.4,96.5,54.5,96.3,54.5"/>
	</g>
</g>
</svg>
