<?xml version="1.0" encoding="utf-8"?>
<!-- Generator: Adobe Illustrator 23.0.1, SVG Export Plug-In . SVG Version: 6.00 Build 0)  -->
<svg version="1.1" id="Layer_1" xmlns="http://www.w3.org/2000/svg" xmlns:xlink="http://www.w3.org/1999/xlink" x="0px" y="0px"
	 viewBox="0 0 153 138.1" style="enable-background:new 0 0 153 138.1;" xml:space="preserve">
<style type="text/css">
	.st0{fill:#fff;}
</style>
<g>
	<g>
		<path class="st0" d="M67.1,112h2.5c1.6,0,2.9,0.7,2.9,2.3v0c0,1.4-0.9,2.1-2.1,2.3l2.6,3.7h-1.1l-2.5-3.7h-1.3v3.7h-1V112z
			 M69.7,115.9c1.2,0,1.8-0.5,1.8-1.6v0c0-1.1-0.7-1.5-1.8-1.5h-1.6v3.1H69.7z"/>
		<path class="st0" d="M37.7,112h4.9v0.8h-3.9v3h3v0.8h-3v3.8h-1V112z"/>
		<path class="st0" d="M44.1,117.3V112h1v5.2c0,1.8,0.6,2.4,2,2.4c1.3,0,2.1-0.5,2.1-2.6V112h1v5.2c0,2-1,3.3-3.2,3.3
			C45.1,120.5,44.1,119.4,44.1,117.3z"/>
		<path class="st0" d="M54,112.8h-2.4V112h5.9v0.8h-2.4v7.6h-1V112.8z"/>
		<path class="st0" d="M58.8,117.3V112h1v5.2c0,1.8,0.6,2.4,2,2.4c1.3,0,2.1-0.5,2.1-2.6V112h1v5.2c0,2-1,3.3-3.2,3.3
			C59.9,120.5,58.8,119.4,58.8,117.3z"/>
		<path class="st0" d="M74.5,112h4.9v0.8h-3.9v2.9h3.1v0.8h-3.1v3h4.1v0.8h-5.1V112z"/>
		<path class="st0" d="M84.2,112h2.4c1.6,0,2.9,0.7,2.9,2.5v0c0,1.8-1.3,2.5-2.9,2.5h-1.4v3.4h-1V112z M86.7,116.2
			c1.2,0,1.8-0.6,1.8-1.7v0c0-1.2-0.7-1.6-1.8-1.6h-1.4v3.3H86.7z"/>
		<path class="st0" d="M91.1,112h2.5c1.6,0,2.9,0.7,2.9,2.3v0c0,1.4-0.9,2.1-2.1,2.3l2.6,3.7h-1.1l-2.5-3.7h-1.3v3.7h-1V112z
			 M93.7,115.9c1.2,0,1.8-0.5,1.8-1.6v0c0-1.1-0.7-1.5-1.8-1.5h-1.6v3.1H93.7z"/>
		<path class="st0" d="M98.5,112h1v8.4h-1V112z"/>
		<path class="st0" d="M101.3,116.3L101.3,116.3c0-2.6,1.7-4.4,3.9-4.4c1.8,0,3.2,0.9,3.4,2.7h-1c-0.2-1.3-1-1.9-2.4-1.9
			c-1.7,0-2.9,1.4-2.9,3.5v0.1c0,2.1,1.1,3.4,2.9,3.4c1.4,0,2.3-0.7,2.5-2.1h1c-0.3,1.9-1.6,2.9-3.5,2.9
			C102.8,120.5,101.3,118.8,101.3,116.3z"/>
		<path class="st0" d="M110.3,112h4.9v0.8h-3.9v2.9h3.1v0.8h-3.1v3h4.1v0.8h-5.1V112z"/>
	</g>
	<g>
		<path class="st0" d="M42.9,130.2L42.9,130.2c0-2.5,1.7-4.4,4.1-4.4c1.7,0,3.2,0.8,3.4,2.7h-1c-0.2-1.3-1.2-1.9-2.4-1.9
			c-1.9,0-3,1.4-3,3.5v0.1c0,2.1,1,3.4,3,3.4c1.8,0,2.6-1.2,2.6-2.7h-2.5v-0.8h3.5v0.6c0,2.4-1.5,3.7-3.6,3.7
			C44.3,134.5,42.9,132.7,42.9,130.2z"/>
		<path class="st0" d="M52.2,131.3V126h1v5.2c0,1.8,0.6,2.4,2,2.4c1.3,0,2.1-0.5,2.1-2.6V126h1v5.2c0,2-1,3.3-3.2,3.3
			C53.3,134.5,52.2,133.4,52.2,131.3z"/>
		<path class="st0" d="M62.4,126h1.3l2.8,8.4h-1l-0.8-2.4h-3.5l-0.8,2.4h-1L62.4,126z M61.6,131.2h2.9l-1.5-4.3L61.6,131.2z"/>
		<path class="st0" d="M68.1,126h2.5c1.6,0,2.9,0.7,2.9,2.3v0c0,1.4-0.9,2.1-2.1,2.3l2.6,3.7h-1.1l-2.5-3.7h-1.3v3.7h-1V126z
			 M70.7,129.9c1.2,0,1.8-0.5,1.8-1.5v0c0-1.1-0.7-1.5-1.8-1.5h-1.6v3.1H70.7z"/>
		<path class="st0" d="M77.7,126h1.3l2.8,8.4h-1l-0.8-2.4h-3.5l-0.8,2.4h-1L77.7,126z M76.9,131.2h2.9l-1.5-4.3L76.9,131.2z"/>
		<path class="st0" d="M83.4,126h1.3l4.1,6.9V126h1v8.4h-1.2l-4.2-7.2v7.2h-1V126z"/>
		<path class="st0" d="M93.6,126.8h-2.4V126h5.9v0.8h-2.4v7.6h-1V126.8z"/>
		<path class="st0" d="M98.5,126h4.9v0.8h-3.9v2.9h3.1v0.8h-3.1v3h4.1v0.8h-5.1V126z"/>
		<path class="st0" d="M105.1,126h4.9v0.8h-3.9v2.9h3.1v0.8h-3.1v3h4.1v0.8h-5.1V126z"/>
	</g>
</g>
<g>
	<path class="st0" d="M108.8,81.9c-1.1,0-2-0.9-2-2V30.6c0-1.7-0.8-3.3-2.1-4.4L80.1,5.8c-2.1-1.8-5.2-1.8-7.4,0L48.3,26.2
		c-1.3,1.1-2.1,2.7-2.1,4.4v49.2c0,1.1-0.9,2-2,2s-2-0.9-2-2V30.6c0-2.9,1.3-5.7,3.5-7.5L70.2,2.7c3.6-3,8.9-3,12.5,0l24.5,20.4
		c2.3,1.9,3.5,4.6,3.5,7.5v49.2C110.8,81,109.9,81.9,108.8,81.9"/>
	<path class="st0" d="M105.2,90c-0.2,0-0.4,0-0.6-0.1c-8.5-2.5-18.2-3.8-28.2-3.8c-10,0-19.7,1.2-28.2,3.6c-1.1,0.3-2.2-0.3-2.5-1.4
		c-0.3-1.1,0.3-2.2,1.4-2.5c8.9-2.5,19-3.8,29.3-3.7c10.3,0,20.5,1.4,29.3,4c1.1,0.3,1.7,1.4,1.4,2.5C106.9,89.4,106.1,90,105.2,90"
		/>
	<g>
		<g>
			<path class="st0" d="M63.8,40.4L63.8,40.4l-3.7,2.5c-0.3,0.2-0.6,0.3-1,0.3c-1,0-1.6-0.7-1.6-1.6c0-0.5,0.2-1.1,0.9-1.5l4.6-3.3
				c1-0.7,1.7-1,2.4-1c1.1,0,1.9,0.7,1.9,2v24.8c0,1.2-0.7,1.9-1.7,1.9c-1,0-1.7-0.7-1.7-1.9V40.4z"/>
			<path class="st0" d="M71.6,58.9c0,0.2,0,0.5,0.1,0.8c0.9,2.8,3.7,4.9,7.7,4.9c3.6,0,6.5-1.7,7.6-4.9h-4c-0.8,1-2.1,1.6-3.6,1.6
				c-2.2,0-3.7-1-4.5-2.8c-0.4-0.8-0.9-1.2-1.6-1.2C72.2,57.3,71.6,58,71.6,58.9 M87.2,37.3c0-1-0.6-1.6-1.7-1.6h-12
				c-1,0-1.5,0.6-1.5,1.5v13c0,1.1,0.6,1.8,1.7,1.8c0.8,0,1.3-0.3,2-1.3c1-1.4,2.2-2.1,4-2.1c1.2,0,2.2,0.3,3,1h4.3
				c-1.1-2.8-3.5-4.3-6.8-4.3c-2.3,0-4,0.9-4.8,1.9h-0.1v-8c0-0.2,0.1-0.3,0.3-0.3h10.1C86.6,39,87.2,38.3,87.2,37.3"/>
			<path class="st0" d="M81.4,57.6c-0.2,0-0.4-0.2-0.4-0.4v-3.8l-1.3,3c-0.1,0.2-0.2,0.4-0.4,0.4c-0.2,0-0.3-0.1-0.4-0.4l-1.3-3
				l0.1,3.8c0,0.2-0.2,0.4-0.4,0.4c-0.2,0-0.4-0.2-0.4-0.4V52c0-0.3,0.2-0.4,0.4-0.4c0.2,0,0.3,0.1,0.4,0.3l1.7,3.7L81,52
				c0.1-0.2,0.2-0.3,0.4-0.3c0.3,0,0.4,0.2,0.4,0.4v5.1C81.8,57.4,81.7,57.6,81.4,57.6"/>
			<path class="st0" d="M86.8,57.6c-0.2,0-0.4-0.2-0.5-0.3L83.8,53l0.1,4.1c0,0.2-0.2,0.4-0.4,0.4c-0.2,0-0.4-0.2-0.4-0.4V52
				c0-0.3,0.2-0.4,0.4-0.4c0.2,0,0.4,0.2,0.5,0.3l2.5,4.2L86.4,52c0-0.2,0.2-0.4,0.4-0.4c0.2,0,0.4,0.2,0.4,0.4v5.1
				C87.2,57.4,87,57.6,86.8,57.6"/>
			<path class="st0" d="M90,57.6c-0.2,0-0.4-0.2-0.4-0.4v-4.8l-1.4,0c-0.2,0-0.4-0.1-0.4-0.4c0-0.2,0.2-0.4,0.4-0.4h3.5
				c0.2,0,0.4,0.1,0.4,0.4c0,0.2-0.2,0.4-0.4,0.4h-1.4l0,4.8C90.3,57.4,90.2,57.6,90,57.6"/>
			<path class="st0" d="M96.5,57.6c-0.2,0-0.4-0.2-0.4-0.4v-2.3l-2.6,0l0,2.3c0,0.2-0.2,0.4-0.4,0.4c-0.2,0-0.4-0.2-0.4-0.4V52
				c0-0.2,0.2-0.4,0.4-0.4c0.2,0,0.4,0.2,0.4,0.4v2.2l2.6,0l0-2.2c0-0.2,0.2-0.4,0.4-0.4c0.2,0,0.4,0.2,0.4,0.4v5.2
				C96.8,57.4,96.7,57.6,96.5,57.6"/>
		</g>
	</g>
</g>
</svg>
