<svg xmlns="http://www.w3.org/2000/svg" width="30" height="47" viewBox="0 0 30 47"><defs><style>.a{fill:#dba658;}</style></defs><path class="a" d="M13.388,46.13h0C1.7,28.824.11,19.568.023,16.105Q0,15.7,0,15.283A15.142,15.142,0,0,1,15,0,15.13,15.13,0,0,1,29.987,14.792a11.03,11.03,0,0,1,0,1.173,15.531,15.531,0,0,1-.184,1.805c-.652,4.47-3.273,13.636-13.172,28.3H16.62a1.9,1.9,0,0,1-3.233.06ZM6.472,14.489A8.61,8.61,0,0,0,15,23.178a8.61,8.61,0,0,0,8.528-8.689A8.61,8.61,0,0,0,15,5.8,8.61,8.61,0,0,0,6.472,14.489Z"/></svg>