<svg width="222" height="116" viewBox="0 0 222 116" fill="none" xmlns="http://www.w3.org/2000/svg">
<path d="M26.5179 97.6422H21.6859V74.6495L14.4633 97.6422H11.971L4.69762 74.6495V97.6422H0.832031V71.3794H8.20718L13.7004 88.2918L19.0919 71.3794H26.5179V97.6422Z" fill="#E4AF39"/>
<path d="M54.9511 71.3795V88.2408C54.9511 90.5401 54.6968 92.2773 54.1881 93.5036C53.6795 94.7299 52.7131 95.8029 51.2381 96.6715C49.7631 97.5401 47.9828 98 45.8975 98C43.7612 98 42.0319 97.5912 40.6586 96.8248C39.2853 96.0584 38.3189 94.9854 37.7085 93.6569C37.0981 92.3284 36.793 90.5912 36.793 88.5474V71.3284H41.625V88.1898C41.625 90.489 42.0827 92.0219 43.0491 92.7372C44.0155 93.4525 45.1345 93.8102 46.4061 93.8102C47.8811 93.8102 49.051 93.4014 49.9156 92.635C50.7803 91.8686 51.2381 90.3868 51.2381 88.1387V71.2773H54.9511V71.3795Z" fill="#E4AF39"/>
<path d="M81.145 97.6422H65.0723V71.3794H70.0568V93.3502H81.1959V97.6422H81.145Z" fill="#E4AF39"/>
<path d="M89.334 97.6422V71.3794H99.5066C101.236 71.3794 102.66 71.5838 103.779 71.9414C104.898 72.2991 105.915 73.0655 106.729 74.1896C107.543 75.3137 107.95 76.6933 107.95 78.2261C107.95 79.6568 107.543 80.9341 106.678 82.0071C105.814 83.0801 104.695 83.7444 103.169 84.0509C105 84.3575 106.424 85.1239 107.34 86.2991C108.306 87.4743 108.764 88.8538 108.764 90.4889C108.764 92.5327 108.102 94.2188 106.78 95.5984C105.458 96.9779 103.423 97.6422 100.676 97.6422H89.334ZM93.8099 82.3648H99.5575C100.727 82.3648 101.643 82.0071 102.355 81.2918C103.016 80.5765 103.372 79.7079 103.372 78.5838C103.372 77.3575 102.965 76.4889 102.202 75.9268C101.439 75.3648 100.524 75.0582 99.4557 75.0582H93.8099V82.3648ZM93.8099 93.6568H99.9135C101.185 93.6568 102.202 93.2991 102.965 92.6349C103.728 91.9706 104.084 91.0509 104.084 89.8757C104.084 88.7517 103.728 87.883 102.965 87.1677C102.202 86.4524 101.185 86.0947 99.9644 86.0947H93.8608V93.6568H93.8099Z" fill="#E4AF39"/>
<path d="M134.855 97.6422H117.867V71.3794H134.703V75.2626H122.597V82.3648H132.312V86.1969H122.597V93.5546H134.855V97.6422Z" fill="#E4AF39"/>
<path d="M164.001 97.6422H159.017L154.948 86.8611H148.336V97.6422H143.656V71.3794H154.999C158.152 71.3794 160.492 72.0947 161.967 73.5254C163.442 74.956 164.205 76.7955 164.205 79.0947C164.205 82.467 162.628 84.8173 159.475 86.0436L164.001 97.6422ZM148.336 83.029H154.185C155.863 83.029 157.135 82.6714 158 81.956C158.813 81.2407 159.22 80.2699 159.22 78.9925C159.22 77.8174 158.813 76.8976 158 76.1823C157.186 75.467 156.016 75.1093 154.592 75.1093H148.336V83.029Z" fill="#E4AF39"/>
<path d="M193.959 97.6422H188.974L184.905 86.8611H178.293V97.6422H173.562V71.3794H184.905C188.058 71.3794 190.398 72.0947 191.873 73.5254C193.348 74.956 194.111 76.7955 194.111 79.0947C194.111 82.467 192.534 84.8173 189.381 86.0436L193.959 97.6422ZM178.293 83.029H184.142C185.82 83.029 187.092 82.6714 187.957 81.956C188.771 81.2407 189.177 80.2699 189.177 78.9925C189.177 77.8174 188.771 76.8976 187.957 76.1823C187.143 75.467 185.973 75.1093 184.549 75.1093H178.293V83.029Z" fill="#E4AF39"/>
<path d="M213.339 97.6422H208.354V86.5546L199.453 71.3794H205.15L211.355 82.2115L217.306 71.3794H221.833L213.339 86.5546V97.6422Z" fill="#E4AF39"/>
<path d="M106.219 65.0949L107.389 46.0876L101.235 37.5036L87.7559 35.1022L98.5388 34.3869L93.9103 27.3869L107.389 41.5912L109.424 14L112.018 44.8613L128.751 30.2993L121.885 40.927L130.786 41.4379L119.698 43.6861L113.035 53.292L113.543 65.0949H106.219Z" fill="#160F04"/>
<path d="M114.459 34.2335C114.459 34.2335 108.61 21.2043 123.36 13.54C123.411 13.54 129.667 27.3868 114.459 34.2335Z" fill="#160F04"/>
<path d="M103.93 32.241C103.93 32.241 94.622 27.7957 99.1997 16.606C99.1997 16.606 109.118 21.3067 103.93 32.241Z" fill="#160F04"/>
<path d="M93.5036 27.1315C93.5036 27.1315 82.3646 26.1607 82.8223 13.0293C82.8223 13.0804 94.6734 14.1023 93.5036 27.1315Z" fill="#160F04"/>
<path d="M86.5864 34.6423C86.5864 34.6423 82.2121 40.2628 75.3965 35.5109C75.3965 35.5109 80.025 29.5328 86.5864 34.6423Z" fill="#160F04"/>
<path d="M94.3179 31.7298C94.3179 31.7298 88.1126 35.2042 83.6875 28.1531C83.6875 28.1531 90.2997 24.4232 94.3179 31.7298Z" fill="#160F04"/>
<path d="M136.127 33.9272C136.127 33.9272 134.449 40.825 126.311 39.3433C126.311 39.2922 128.091 31.9345 136.127 33.9272Z" fill="#160F04"/>
<path d="M138.417 20.3866C138.417 20.3866 138.162 28.8173 128.346 29.0216C128.346 29.0216 128.6 20.08 138.417 20.3866Z" fill="#160F04"/>
<path d="M109.729 0C109.729 0 115.73 5.87591 109.22 13.2847C109.22 13.2847 102.862 7.05109 109.729 0Z" fill="#160F04"/>
<path d="M101.795 40.518C101.795 40.518 96.6575 54.6202 81.2969 48.8976C81.2969 48.8976 86.1289 35.7151 101.795 40.518Z" fill="#160F04"/>
<path d="M148.589 40.365C148.589 40.365 141.824 50.1752 131.143 42.6643C131.143 42.7154 137.45 33.5183 148.589 40.365Z" fill="#160F04"/>
<line x1="0.832031" y1="111.115" x2="60.832" y2="111.115" stroke="#160F04"/>
<path d="M70.832 115.15V108.05H73.972C74.2987 108.05 74.5987 108.117 74.872 108.25C75.152 108.383 75.392 108.563 75.592 108.79C75.7987 109.017 75.9554 109.27 76.062 109.55C76.1754 109.83 76.232 110.117 76.232 110.41C76.232 110.71 76.1787 111 76.072 111.28C75.972 111.553 75.8254 111.793 75.632 112C75.4387 112.207 75.212 112.367 74.952 112.48L76.572 115.15H75.052L73.592 112.77H72.212V115.15H70.832ZM72.212 111.56H73.942C74.1154 111.56 74.2687 111.51 74.402 111.41C74.5354 111.303 74.642 111.163 74.722 110.99C74.802 110.817 74.842 110.623 74.842 110.41C74.842 110.183 74.7954 109.987 74.702 109.82C74.6087 109.647 74.4887 109.51 74.342 109.41C74.202 109.31 74.0487 109.26 73.882 109.26H72.212V111.56Z" fill="#160F04"/>
<path d="M85.6124 113.94V115.15H80.6824V108.05H85.5224V109.26H82.0624V110.97H85.0524V112.09H82.0624V113.94H85.6124Z" fill="#160F04"/>
<path d="M94.1183 109.91C94.0716 109.863 93.9849 109.8 93.8583 109.72C93.7383 109.64 93.5883 109.563 93.4083 109.49C93.2349 109.417 93.0449 109.353 92.8383 109.3C92.6316 109.24 92.4216 109.21 92.2083 109.21C91.8349 109.21 91.5516 109.28 91.3583 109.42C91.1716 109.56 91.0783 109.757 91.0783 110.01C91.0783 110.203 91.1383 110.357 91.2583 110.47C91.3783 110.583 91.5583 110.68 91.7983 110.76C92.0383 110.84 92.3383 110.927 92.6983 111.02C93.1649 111.133 93.5683 111.273 93.9083 111.44C94.2549 111.6 94.5183 111.813 94.6983 112.08C94.8849 112.34 94.9783 112.687 94.9783 113.12C94.9783 113.5 94.9083 113.827 94.7683 114.1C94.6283 114.367 94.4349 114.583 94.1883 114.75C93.9416 114.917 93.6616 115.04 93.3483 115.12C93.0349 115.193 92.7016 115.23 92.3483 115.23C91.9949 115.23 91.6416 115.193 91.2883 115.12C90.9349 115.047 90.5949 114.943 90.2683 114.81C89.9416 114.67 89.6416 114.503 89.3683 114.31L89.9783 113.12C90.0383 113.18 90.1449 113.26 90.2983 113.36C90.4516 113.453 90.6383 113.55 90.8583 113.65C91.0783 113.743 91.3183 113.823 91.5783 113.89C91.8383 113.957 92.1016 113.99 92.3683 113.99C92.7416 113.99 93.0249 113.927 93.2183 113.8C93.4116 113.673 93.5083 113.493 93.5083 113.26C93.5083 113.047 93.4316 112.88 93.2783 112.76C93.1249 112.64 92.9116 112.537 92.6383 112.45C92.3649 112.357 92.0416 112.257 91.6683 112.15C91.2216 112.023 90.8483 111.883 90.5483 111.73C90.2483 111.57 90.0249 111.37 89.8783 111.13C89.7316 110.89 89.6583 110.59 89.6583 110.23C89.6583 109.743 89.7716 109.337 89.9983 109.01C90.2316 108.677 90.5449 108.427 90.9383 108.26C91.3316 108.087 91.7683 108 92.2483 108C92.5816 108 92.8949 108.037 93.1883 108.11C93.4883 108.183 93.7683 108.28 94.0283 108.4C94.2883 108.52 94.5216 108.65 94.7283 108.79L94.1183 109.91Z" fill="#160F04"/>
<path d="M99.2211 115.15V108.05H100.601V115.15H99.2211Z" fill="#160F04"/>
<path d="M105.282 115.15V108.05H107.862C108.636 108.05 109.282 108.21 109.802 108.53C110.322 108.843 110.712 109.27 110.972 109.81C111.232 110.343 111.362 110.937 111.362 111.59C111.362 112.31 111.219 112.937 110.932 113.47C110.646 114.003 110.239 114.417 109.712 114.71C109.192 115.003 108.576 115.15 107.862 115.15H105.282ZM109.972 111.59C109.972 111.13 109.889 110.727 109.722 110.38C109.556 110.027 109.316 109.753 109.002 109.56C108.689 109.36 108.309 109.26 107.862 109.26H106.662V113.94H107.862C108.316 113.94 108.699 113.84 109.012 113.64C109.326 113.433 109.562 113.153 109.722 112.8C109.889 112.44 109.972 112.037 109.972 111.59Z" fill="#160F04"/>
<path d="M120.571 113.94V115.15H115.641V108.05H120.481V109.26H117.021V110.97H120.011V112.09H117.021V113.94H120.571Z" fill="#160F04"/>
<path d="M126.226 110.59V115.15H124.846V108.05H125.946L129.616 112.73V108.06H130.996V115.15H129.846L126.226 110.59Z" fill="#160F04"/>
<path d="M135.243 111.55C135.243 111.117 135.32 110.693 135.473 110.28C135.633 109.86 135.863 109.48 136.163 109.14C136.463 108.793 136.83 108.52 137.263 108.32C137.697 108.113 138.19 108.01 138.743 108.01C139.397 108.01 139.96 108.153 140.433 108.44C140.913 108.727 141.27 109.1 141.503 109.56L140.443 110.29C140.323 110.023 140.167 109.813 139.973 109.66C139.78 109.5 139.573 109.39 139.353 109.33C139.133 109.263 138.917 109.23 138.703 109.23C138.357 109.23 138.053 109.3 137.793 109.44C137.54 109.58 137.327 109.763 137.153 109.99C136.98 110.217 136.85 110.47 136.763 110.75C136.683 111.03 136.643 111.31 136.643 111.59C136.643 111.903 136.693 112.207 136.793 112.5C136.893 112.787 137.033 113.043 137.213 113.27C137.4 113.49 137.62 113.667 137.873 113.8C138.133 113.927 138.417 113.99 138.723 113.99C138.943 113.99 139.167 113.953 139.393 113.88C139.62 113.807 139.83 113.69 140.023 113.53C140.217 113.37 140.367 113.163 140.473 112.91L141.603 113.56C141.463 113.913 141.233 114.213 140.913 114.46C140.6 114.707 140.247 114.893 139.853 115.02C139.46 115.147 139.07 115.21 138.683 115.21C138.177 115.21 137.713 115.107 137.293 114.9C136.873 114.687 136.51 114.407 136.203 114.06C135.903 113.707 135.667 113.313 135.493 112.88C135.327 112.44 135.243 111.997 135.243 111.55Z" fill="#160F04"/>
<path d="M150.659 113.94V115.15H145.729V108.05H150.569V109.26H147.109V110.97H150.099V112.09H147.109V113.94H150.659Z" fill="#160F04"/>
<line x1="160.658" y1="111.115" x2="220.658" y2="111.115" stroke="#160F04"/>
</svg>
