<?xml version="1.0" encoding="utf-8"?>
<!-- Generator: Adobe Illustrator 24.0.0, SVG Export Plug-In . SVG Version: 6.00 Build 0)  -->
<svg version="1.1" id="Layer_1" xmlns="http://www.w3.org/2000/svg" xmlns:xlink="http://www.w3.org/1999/xlink" x="0px" y="0px"
	 viewBox="0 0 1054.5 176.1" style="enable-background:new 0 0 1054.5 176.1;" xml:space="preserve">
<style type="text/css">
	.st0{fill:#FFFFFF;}
	.st1{fill-rule:evenodd;clip-rule:evenodd;fill:#FFFFFF;}
</style>
<title>Asset 1</title>
<path class="st0" d="M107.2,102.5c-4.6,0-8.1-1-11.1-4l3.9-3.8c1.9,1.9,4.5,2.6,7.3,2.6c3.5,0,5.4-1.3,5.4-3.8
	c0.1-0.9-0.3-1.9-0.9-2.6c-0.8-0.6-1.7-1-2.7-1.1l-3.7-0.5c-2.2-0.2-4.2-1.1-5.9-2.5c-1.5-1.6-2.3-3.8-2.2-6c0-5.4,4-9.2,10.6-9.2
	c4.2,0,7.2,1,9.8,3.5l-3.8,3.7c-1.7-1.5-4-2.3-6.2-2.1c-3.2,0-4.7,1.8-4.7,3.8c0,0.8,0.3,1.6,0.9,2.2c0.8,0.7,1.8,1.1,2.8,1.2
	l3.6,0.5c2.8,0.4,4.5,1.2,5.8,2.3c1.6,1.7,2.5,4.1,2.3,6.4C118.5,99.2,113.6,102.5,107.2,102.5z"/>
<path class="st0" d="M134.1,102.3v-2c-1.5,1.5-3.5,2.3-5.6,2.3c-1.9,0.1-3.8-0.7-5.3-2c-1.6-1.7-2.5-4-2.3-6.3V80.1h5.5v13.4
	c0,3,1.9,4.1,3.7,4.1s3.7-1,3.7-4.1V80.1h5.6v22.2H134.1z"/>
<path class="st0" d="M150.8,102.5c-3.5,0-6.7-0.4-9.5-3.2l3.6-3.6c1.6,1.5,3.8,2.2,5.9,2.1c1.9,0,3.9-0.6,3.9-2.3
	c0-1.1-0.6-1.9-2.4-2l-3.5-0.3c-4-0.4-6.5-2.1-6.5-6.2c0-4.6,4.1-7.1,8.6-7.1c3.4,0,6.4,0.6,8.5,2.6L156,86
	c-1.5-1.1-3.3-1.6-5.2-1.5c-2.2,0-3.2,1-3.2,2.1c0,0.8,0.4,1.7,2.3,1.9l3.5,0.3c4.4,0.4,6.6,2.8,6.6,6.5
	C160.2,100.2,156,102.5,150.8,102.5z"/>
<path class="st0" d="M169.5,102.3c-3.3,0.3-6.2-2.2-6.4-5.5c0-0.3,0-0.6,0-0.8V84.3h-2.3v-4.2h2.3v-5.9h5.6v5.9h3.9v4.2h-3.9v11.3
	c0,1.3,0.6,2,1.9,2h2v4.7H169.5z"/>
<path class="st0" d="M186.8,102.3v-1.9c-1.4,1.5-3.4,2.3-5.5,2.1c-2.1,0.1-4.1-0.6-5.7-2c-1.2-1.4-1.9-3.2-1.8-5
	c0-3.5,2.4-6.4,7.6-6.4h5.3V88c0-2.4-1.2-3.5-4.1-3.5c-1.6-0.2-3.3,0.5-4.3,1.8l-3.5-3.5c2.2-2.4,4.3-3.1,8-3.1
	c6.2,0,9.5,2.6,9.5,7.8v14.6L186.8,102.3z M186.7,92.9h-4.4c-2,0-3.1,0.9-3.1,2.5s1,2.6,3.2,2.6c1.5,0,2.5-0.1,3.5-1.1
	c0.7-0.8,0.9-1.8,0.8-2.8V92.9z"/>
<path class="st0" d="M195.6,76.3v-4.5h5.7v4.5H195.6z M195.7,102.3V80.1h5.6v22.2H195.7z"/>
<path class="st0" d="M217.8,102.3V88.8c0-3-1.9-4-3.7-4s-3.7,1-3.7,4v13.4h-5.5V80.1h5.4v2c1.5-1.5,3.5-2.3,5.5-2.3
	c1.9-0.1,3.8,0.7,5.3,2c1.6,1.7,2.4,4,2.3,6.3v14.2L217.8,102.3z"/>
<path class="st0" d="M238.6,102.3v-1.9c-1.4,1.5-3.4,2.3-5.5,2.1c-2.1,0.1-4.1-0.6-5.7-2c-1.2-1.4-1.9-3.2-1.8-5
	c0-3.5,2.4-6.4,7.6-6.4h5.3V88c0-2.4-1.2-3.5-4.1-3.5c-1.6-0.2-3.3,0.5-4.3,1.8l-3.5-3.5c2.2-2.4,4.3-3.1,8-3.1
	c6.2,0,9.5,2.6,9.5,7.8v14.6L238.6,102.3z M238.5,92.9h-4.4c-2,0-3.1,0.9-3.1,2.5s1,2.6,3.2,2.6c1.5,0,2.5-0.1,3.5-1.1
	c0.7-0.8,0.9-1.8,0.8-2.8V92.9z"/>
<path class="st0" d="M263.8,100.5c-1.5,1.3-3.4,2.1-5.4,2c-2.1,0.1-4.2-0.7-5.5-2.3v2.1h-5.4V71.8h5.5V82c1.3-1.5,3.3-2.4,5.4-2.2
	c2-0.1,3.9,0.7,5.4,2c2.2,2.2,2.3,6,2.3,9.3S266,98.3,263.8,100.5z M256.8,84.8c-3.3,0-3.8,2.7-3.8,6.4s0.4,6.4,3.8,6.4
	c3.3,0,3.8-2.8,3.8-6.4S260.1,84.8,256.8,84.8L256.8,84.8z"/>
<path class="st0" d="M269.2,76.3v-4.5h5.7v4.5H269.2z M269.3,102.3V80.1h5.5v22.2H269.3z"/>
<path class="st0" d="M284.9,102.3c-4.6,0-6.5-3.2-6.5-6.3V71.7h5.5v23.8c0,1.3,0.6,2,2,2h2.1v4.7h-3.1V102.3z"/>
<path class="st0" d="M289.5,76.3v-4.5h5.7v4.5H289.5z M289.6,102.3V80.1h5.5v22.2H289.6z"/>
<path class="st0" d="M305.9,102.3c-3.3,0.2-6.2-2.2-6.4-5.5c0-0.3,0-0.5,0-0.8V84.3h-2.4v-4.2h2.4v-5.9h5.5v5.9h4v4.2h-4v11.3
	c0,1.3,0.6,2,1.9,2h2v4.7H305.9z"/>
<path class="st0" d="M321,105.9c-0.3,1.1-0.9,2-1.7,2.9c-1.3,1.2-3,1.8-4.8,1.7h-2.2v-5h1.3c1.6,0,2.2-0.4,2.8-2l0.9-2.7l-7.6-20.7
	h5.9l4.6,13.7l4.4-13.7h5.8L321,105.9z"/>
<path class="st0" d="M112,138.1h-4.7l-10.6-30.5h6.5l6.4,19.9l6.4-19.9h6.5L112,138.1z"/>
<path class="st0" d="M123.7,112v-4.5h5.7v4.5H123.7z M123.8,138v-22.2h5.5V138H123.8z"/>
<path class="st0" d="M141.9,138.3c-4.4,0-9.9-2.4-9.9-11.4s5.5-11.3,9.9-11.3c2.8-0.1,5.5,1,7.3,3l-3.8,3.8
	c-0.9-1.1-2.2-1.8-3.6-1.8c-1.2,0-2.4,0.5-3.1,1.4c-0.9,1.1-1.2,2.6-1.2,4.9c0,2.3,0.4,3.9,1.2,5c0.8,1,1.9,1.5,3.1,1.4
	c1.4,0,2.7-0.6,3.6-1.8l3.8,3.7C147.3,137.3,144.6,138.4,141.9,138.3z"/>
<path class="st0" d="M159,138.1c-3.3,0.2-6.2-2.2-6.4-5.5c0-0.3,0-0.6,0-0.8V120h-2.4v-4.2h2.4v-5.9h5.6v5.9h3.9v4.2h-3.9v11.3
	c0,1.3,0.6,2,1.9,2h2v4.7L159,138.1z"/>
<path class="st0" d="M180.1,135.6c-1.8,1.8-4.3,2.8-6.9,2.7c-2.6,0.1-5.1-0.9-6.9-2.7c-2-2.1-2.5-4.6-2.5-8.7s0.5-6.5,2.5-8.6
	c1.8-1.8,4.3-2.8,6.9-2.7c2.6-0.1,5.1,0.9,6.9,2.7c2,2.1,2.5,4.6,2.5,8.6C182.7,130.9,182.2,133.5,180.1,135.6z M175.8,121.6
	c-0.7-0.7-1.6-1-2.6-1s-1.9,0.3-2.6,1c-1.1,1.2-1.3,3.1-1.3,5.4s0.1,4.3,1.3,5.4c0.7,0.7,1.6,1,2.6,1s1.9-0.3,2.6-1
	c1.1-1.1,1.3-3.1,1.3-5.4S177,122.7,175.8,121.6L175.8,121.6z"/>
<path class="st0" d="M197.6,121.9c-0.7-0.9-1.8-1.4-2.9-1.3c-1.7,0-3.6,1.3-3.6,4.1V138h-5.6v-22.2h5.4v2.2c1.4-1.5,3.5-2.4,5.6-2.4
	c2-0.1,3.9,0.7,5.3,2.1L197.6,121.9z"/>
<path class="st0" d="M202.8,112v-4.5h5.7v4.5H202.8z M202.9,138v-22.2h5.6V138H202.9z"/>
<path class="st0" d="M223.7,138.1v-1.9c-1.4,1.5-3.4,2.3-5.5,2.1c-2.1,0.1-4.1-0.6-5.7-2c-1.2-1.4-1.9-3.2-1.8-5
	c0-3.5,2.4-6.4,7.6-6.4h5.3v-1.1c0-2.4-1.2-3.5-4.1-3.5c-1.6-0.2-3.3,0.5-4.3,1.8l-3.5-3.5c2.2-2.4,4.3-3.1,8-3.1
	c6.2,0,9.5,2.7,9.5,7.8V138L223.7,138.1z M223.6,128.7h-4.4c-2,0-3.1,0.9-3.1,2.5s1,2.6,3.2,2.6c1.5,0,2.5-0.1,3.5-1.1
	c0.6-0.8,0.9-1.8,0.8-2.8V128.7z"/>
<path class="st0" d="M33.1,129.1c-7.2,0-12.7-1.5-17.4-6.3l6-6c3,3,7.1,4,11.5,4c5.5,0,8.5-2.1,8.5-5.9c0.1-1.5-0.4-2.9-1.5-4
	c-0.9-0.9-2-1.3-4.2-1.7l-5.8-0.8c-4.1-0.6-7.1-1.9-9.3-4c-2.3-2.3-3.4-5.4-3.4-9.4c0-8.5,6.3-14.5,16.6-14.5
	c6.6,0,11.3,1.6,15.4,5.6L43.7,92c-3-2.9-6.6-3.3-9.8-3.3c-5,0-7.4,2.8-7.4,6c0,1.3,0.5,2.6,1.4,3.5c1.2,1,2.8,1.7,4.4,1.8l5.6,0.8
	c4.4,0.6,7.1,1.8,9.1,3.7c2.5,2.4,3.7,5.9,3.7,10.1C50.8,123.9,43.1,129.1,33.1,129.1z"/>
<polygon class="st0" points="70.7,71.8 70.7,63.3 8.4,63.3 0,71.8 0,138.1 8.4,146.5 50.6,146.5 66,176.1 75.5,176.1 95.3,138.1 
	85.8,138.1 70.7,167 55.7,138.1 8.4,138.1 8.4,71.8 "/>
<line class="st0" x1="500.6" y1="124.2" x2="507.6" y2="124.2"/>
<path class="st0" d="M529.7,98.4c-7.6,0-13.7,5.7-13.7,13.2s6.1,13.2,13.7,13.2s13.7-5.7,13.7-13.2S537.3,98.4,529.7,98.4z
	 M529.7,117.9c-3.5,0-6.3-2.9-6.3-6.4s2.9-6.3,6.4-6.3s6.3,2.9,6.3,6.3C536.1,115.1,533.2,117.9,529.7,117.9z"/>
<path class="st0" d="M568,108.2c0-5.3-4.3-9.2-9.6-9.2h-11.6v25.2h6.9v-6.9h3.3l3.2,6.9h7.8l-4.3-8.5
	C566.3,114.1,567.9,111.3,568,108.2z M558.4,111.2h-4.7v-6h4.7c1.6,0,2.6,1.8,2.6,3S559.9,111.1,558.4,111.2L558.4,111.2z"/>
<rect x="572.2" y="99" class="st0" width="6.9" height="25.2"/>
<path class="st0" d="M596.2,99h-2.6l-11.7,25.2h7.4l1.2-2.9h8.7l1.2,2.9h7.4L596.2,99z M592.6,115.4l2.2-4.9h0.2l2.2,4.9H592.6z"/>
<path class="st0" d="M497.8,99l16.3-35.2H410.4l16.4,35.4h7.6l6.3,13.5l6.3-13.5h7.7L443.2,124h-4.9l23.9,51.7l24.5-52.9
	c-6.2,3.6-14.2,1.5-17.8-4.7s-1.5-14.2,4.7-17.8s14.1-1.5,17.7,4.6l-5.8,3.5c-1.1-1.9-3.2-3-5.3-3c-3.4,0-6.2,2.8-6.2,6.2
	c0,3.4,2.8,6.2,6.2,6.2c2.2,0,4.2-1.2,5.4-3l3.8,2.3l5.5-11.9h5.8v19h6.9v-19h7V99H497.8z M463.8,124h-7.1V99.2h7.1V124z"/>
<line class="st0" x1="500.6" y1="124.2" x2="507.6" y2="124.2"/>
<path class="st0" d="M508.6,137.7c-1.1-0.7-2.3-1.1-3.6-1.1c-1.4,0-2.4,0.6-2.4,1.5s1.1,1.2,2.6,1.5l0.7,0.1c2.3,0.4,4,1.3,4,3.5
	c0,2.8-2.5,4.1-5.2,4.1c-1.9,0-3.8-0.5-5.3-1.6l1.3-2c1.2,0.9,2.6,1.4,4,1.4s2.5-0.6,2.5-1.5s-0.9-1.2-2.7-1.5l-0.8-0.1
	c-2.2-0.4-3.9-1.3-3.9-3.6c0-2.6,2.4-4,5-4c1.7,0,3.4,0.4,4.8,1.3L508.6,137.7z"/>
<path class="st0" d="M517.8,140.5h-3.2v3.2c0,1.1,0.6,1.5,1.3,1.5c0.6,0,1.2-0.2,1.6-0.6l0.9,1.8c-0.8,0.6-1.9,0.9-2.9,0.9
	c-2.2,0-3.3-1.2-3.3-3.5v-3.4h-1.7v-2.1h1.7v-2.6h2.3v2.6h3.2L517.8,140.5z"/>
<path class="st0" d="M521.3,142.8c0.1,1.2,1.2,2.2,2.4,2.1c1.2-0.1,2.2-1.2,2.1-2.4c-0.1-1.2-1.1-2.1-2.3-2.1s-2.2,1-2.3,2.2
	C521.3,142.6,521.3,142.7,521.3,142.8 M528,147.2h-2.3v-1c-0.6,0.8-1.6,1.2-2.6,1.2c-2.5-0.2-4.4-2.5-4.2-5c0.2-2.2,2-4,4.2-4.2
	c1,0,2,0.4,2.6,1.2v-1h2.3V147.2z"/>
<path class="st0" d="M536.5,140.5h-3.2v3.2c0,1.1,0.6,1.5,1.3,1.5c0.6,0,1.2-0.2,1.7-0.6l0.9,1.8c-0.8,0.6-1.9,0.9-2.9,0.9
	c-2.2,0-3.3-1.2-3.3-3.5v-3.4h-1.7v-2.1h1.7v-2.6h2.4v2.6h3.2L536.5,140.5z"/>
<path class="st0" d="M540,142h3.9c-0.1-1.1-1-1.9-2.1-1.8C540.8,140.3,540.1,141,540,142 M546.2,142.8c0,0.3,0,0.5,0,0.8H540
	c0.2,1.1,1.1,1.9,2.3,1.8c0.8,0,1.6-0.3,2.2-0.8l1.4,1.5c-1,0.9-2.4,1.4-3.7,1.3c-2.5,0-4.6-2-4.7-4.5c0-2.5,2-4.6,4.5-4.7
	C544.6,138.2,546.3,140.1,546.2,142.8"/>
<path class="st0" d="M510.8,152.4l-1.8,1.8c-1.6-1.6-4.2-1.7-5.8-0.1c-1.6,1.6-1.7,4.2-0.1,5.8c0.7,0.8,1.7,1.2,2.8,1.2
	c1.8,0.2,3.3-1,3.6-2.8h-3.2v-2.1h5.8c0,0.2,0,0.5,0,0.7c0,3.8-2.6,6.5-6.2,6.5c-3.6-0.1-6.5-3.1-6.4-6.7c0.1-3.6,3.1-6.5,6.7-6.4
	C508,150.5,509.6,151.2,510.8,152.4"/>
<path class="st0" d="M515.7,159c0,1.3,1.1,2.3,2.4,2.2c1.3,0,2.3-1.1,2.2-2.4c0-1.3-1.1-2.3-2.3-2.2c-1.3,0-2.3,1-2.3,2.2
	C515.7,158.9,515.7,158.9,515.7,159 M522.7,159c0.1,2.6-2,4.8-4.6,4.9c-2.6,0.1-4.8-2-4.9-4.6c-0.1-2.6,2-4.8,4.6-4.9h0.1
	c2.5-0.1,4.6,1.9,4.7,4.4C522.7,158.8,522.7,158.9,522.7,159"/>
<polygon class="st0" points="529.2,163.4 526.5,163.4 523,154.6 525.6,154.6 527.8,160.9 530.1,154.6 532.6,154.6 "/>
<path class="st0" d="M535.3,158.2h3.9c-0.1-1.1-1-1.9-2.1-1.8C536.1,156.5,535.4,157.2,535.3,158.2 M541.5,159c0,0.3,0,0.5,0,0.8
	h-6.2c0.2,1.1,1.1,1.9,2.2,1.8c0.8,0,1.6-0.3,2.2-0.8l1.4,1.5c-1,0.9-2.4,1.4-3.7,1.3c-2.5,0-4.6-2-4.7-4.5c0-2.5,2-4.6,4.5-4.7
	C539.8,154.4,541.6,156.3,541.5,159"/>
<path class="st0" d="M549,154.6l-0.4,2.3c-0.4-0.2-0.9-0.3-1.4-0.3c-1-0.1-1.8,0.7-1.9,1.6c0,0.1,0,0.3,0,0.4v4.8H543v-8.7h2.3v1
	c0.6-0.8,1.5-1.3,2.5-1.2C548.2,154.5,548.7,154.5,549,154.6"/>
<path class="st0" d="M558.5,157.8v5.6h-2.3v-4.8c0-1.3-0.6-2-1.7-2c-1,0-1.8,0.7-1.9,1.7c0,0.1,0,0.2,0,0.3v4.8h-2.3v-8.7h2.3v1
	c0.6-0.8,1.6-1.3,2.6-1.3c1.8-0.1,3.3,1.3,3.4,3.1C558.6,157.6,558.6,157.7,558.5,157.8"/>
<path class="st0" d="M574.7,157.8v5.6h-2.3v-4.8c0-1.3-0.6-2-1.7-2c-1,0-1.8,0.7-1.9,1.7c0,0.1,0,0.2,0,0.3v4.8h-2.3v-4.8
	c0-1.3-0.6-2-1.7-2c-1,0-1.8,0.7-1.9,1.7c0,0.1,0,0.2,0,0.3v4.8h-2.4v-8.7h2.3v1c0.6-0.8,1.6-1.3,2.6-1.3c1.2,1.6,3.4,2,5,0.8
	c0.3-0.2,0.6-0.5,0.8-0.8c1.8-0.1,3.3,1.3,3.4,3C574.7,157.5,574.7,157.7,574.7,157.8"/>
<path class="st0" d="M578.7,158.2h3.9c-0.1-1.1-1-1.9-2.1-1.8C579.5,156.5,578.7,157.2,578.7,158.2 M584.9,159c0,0.3,0,0.5,0,0.8
	h-6.2c0.2,1.1,1.1,1.9,2.3,1.8c0.8,0,1.6-0.3,2.2-0.8l1.4,1.5c-1,0.9-2.4,1.4-3.7,1.3c-2.5,0-4.6-2-4.7-4.5c0-2.5,2-4.6,4.5-4.7
	C583.2,154.4,584.9,156.3,584.9,159"/>
<path class="st0" d="M594.7,157.8v5.6h-2.4v-4.8c0-1.3-0.6-2-1.7-2c-1,0-1.8,0.7-1.9,1.7c0,0.1,0,0.2,0,0.3v4.8h-2.3v-8.7h2.3v1
	c0.6-0.8,1.6-1.3,2.6-1.3c1.8-0.1,3.3,1.3,3.4,3.1C594.7,157.6,594.7,157.7,594.7,157.8"/>
<path class="st0" d="M603,156.7h-3.2v3.2c0,1.1,0.6,1.5,1.3,1.5c0.6,0,1.2-0.2,1.7-0.6l0.9,1.8c-0.8,0.6-1.9,0.9-2.9,0.9
	c-2.2,0-3.3-1.2-3.3-3.5v-3.4h-1.7v-2.1h1.7V152h2.4v2.6h3.2v2.1H603z"/>
<path class="st0" d="M1.5,18.5c-0.1-0.1-0.1-0.3,0-0.5l1.3-1.6c0.1-0.1,0.3-0.1,0.4,0l0,0c1.6,1.3,3.6,2.1,5.7,2.1
	c2.8,0,4.5-1.4,4.5-3.5c0-1.7-1-2.9-4.3-3.3l-1-0.1c-4-0.5-6-2.4-6-5.6c0-3.6,2.6-6,6.7-6C11,0,13.2,0.6,15,1.9
	c0.1,0.1,0.2,0.2,0.1,0.4c0,0,0,0,0,0.1l-1,1.7c-0.1,0.1-0.3,0.2-0.4,0.1l0,0c-1.5-1-3.2-1.5-4.9-1.6C6.3,2.6,4.9,4,4.9,5.9
	c0,1.7,1.1,2.9,4.3,3.3l1,0.1c4,0.5,6,2.4,6,5.7c0,3.6-2.5,6.1-7.4,6.1C6.1,21.1,3.6,20.2,1.5,18.5z"/>
<path class="st0" d="M29.2,20.7c-0.2,0-0.3-0.1-0.3-0.3l0,0V19l0,0c-0.9,1.3-2.4,2.1-3.9,2c-3.1,0-5-2.2-5-5.4v-9
	c0-0.2,0.1-0.3,0.3-0.3l0,0h1.9c0.2,0,0.3,0.1,0.3,0.3l0,0V15c0,2.3,1,3.7,3.2,3.7c2,0,3.2-1.4,3.2-3.5V6.7c0-0.2,0.1-0.3,0.3-0.3
	l0,0h1.9c0.2,0,0.3,0.1,0.3,0.3l0,0v13.8c0,0.2-0.1,0.3-0.3,0.3l0,0L29.2,20.7L29.2,20.7z"/>
<path class="st0" d="M36.7,26.1c-0.2,0-0.3-0.1-0.3-0.3l0,0V6.7c0-0.2,0.1-0.3,0.3-0.3l0,0h1.9c0.2,0,0.3,0.1,0.3,0.3l0,0V8l0,0
	c0.9-1.4,2.5-2.2,4.1-2c2.3-0.2,4.3,1.3,5,3.4c0.4,1.3,0.6,2.6,0.5,4c0.1,1.4-0.1,2.8-0.5,4.1c-0.6,2.2-2.7,3.7-5,3.5
	c-1.6,0.1-3.2-0.6-4.1-2l0,0v6.8c0,0.2-0.1,0.3-0.3,0.3l0,0L36.7,26.1z M45.5,16.5c0.3-1,0.4-2,0.3-3c0-1-0.1-2-0.3-3
	c-0.4-1.4-1.7-2.3-3.2-2.2c-1.4-0.1-2.8,0.8-3.2,2.2c-0.3,1-0.4,2-0.3,3c-0.1,1,0.1,2,0.3,3c0.4,1.4,1.7,2.3,3.2,2.2
	C43.8,18.8,45.1,17.9,45.5,16.5z"/>
<path class="st0" d="M52.8,26.1c-0.2,0-0.3-0.1-0.3-0.3l0,0V6.7c0-0.2,0.1-0.3,0.3-0.3l0,0h1.9c0.2,0,0.3,0.1,0.3,0.3l0,0V8l0,0
	c0.9-1.4,2.5-2.2,4.1-2c2.3-0.2,4.3,1.3,4.9,3.4c0.4,1.3,0.6,2.6,0.5,4c0.1,1.4-0.1,2.8-0.5,4.1c-0.6,2.2-2.7,3.6-5,3.5
	c-1.6,0.1-3.2-0.6-4.1-2l0,0v6.8c0,0.2-0.1,0.3-0.3,0.3l0,0L52.8,26.1z M61.7,16.5c0.3-1,0.4-2,0.3-3c0-1-0.1-2-0.3-3
	C61,8.8,59,7.9,57.3,8.6c-0.9,0.3-1.6,1-1.9,1.9c-0.3,1-0.4,2-0.3,3c-0.1,1,0.1,2,0.3,3c0.7,1.7,2.6,2.6,4.4,2
	C60.6,18.2,61.3,17.4,61.7,16.5z"/>
<path class="st0" d="M68.3,17.2c-0.4-1.2-0.5-2.4-0.5-3.7c0-1.2,0.1-2.5,0.5-3.6C69,7.4,71.4,5.8,73.9,6c2.6-0.2,4.9,1.4,5.7,3.9
	c0.4,1.2,0.5,2.4,0.5,3.6c0.1,1.2-0.1,2.5-0.5,3.7c-1.2,3.1-4.8,4.7-7.9,3.4C70.1,20,68.9,18.8,68.3,17.2z M77.2,16.5
	c0.3-1,0.4-1.9,0.3-2.9c0-1-0.1-2-0.3-2.9c-0.7-1.8-2.7-2.7-4.5-2c-0.9,0.4-1.7,1.1-2,2s-0.4,1.9-0.3,2.9c0,1,0.1,2,0.3,2.9
	c0.7,1.8,2.7,2.7,4.5,2C76.1,18.1,76.8,17.4,77.2,16.5z"/>
<path class="st0" d="M84.4,20.7c-0.2,0-0.3-0.1-0.3-0.3l0,0V6.7c0-0.2,0.1-0.3,0.3-0.3l0,0h1.9c0.2,0,0.3,0.1,0.3,0.3l0,0v1.5l0,0
	c0.7-1.4,2.2-2.2,3.8-2.1c1.1,0,2.1,0.4,2.9,1.1c0.2,0.2,0.2,0.3,0.1,0.4l-1,1.4c-0.1,0.1-0.2,0.2-0.4,0.1c0,0,0,0-0.1,0
	c-0.7-0.4-1.4-0.7-2.2-0.7c-2.2,0-3.1,1.7-3.1,4.2v7.9c0,0.2-0.1,0.3-0.3,0.3l0,0L84.4,20.7L84.4,20.7z"/>
<path class="st0" d="M100.6,20.9c-2.8,0-3.9-1.3-3.9-4.1V8.6c0-0.1,0-0.2-0.1-0.2l0,0h-1.2c-0.2,0-0.3-0.1-0.3-0.3l0,0V6.7
	c0-0.2,0.1-0.3,0.3-0.3l0,0h1.2c0.1,0,0.2,0,0.2-0.1l0,0v-4c0-0.2,0.1-0.3,0.3-0.3l0,0H99c0.2,0,0.3,0.1,0.3,0.3l0,0v4
	c0,0.1,0,0.2,0.1,0.2l0,0h2.3c0.2,0,0.3,0.1,0.3,0.3l0,0v1.4c0,0.2-0.1,0.3-0.3,0.3l0,0h-2.3c-0.1,0-0.2,0-0.2,0.1l0,0v8.1
	c0,1.4,0.5,1.8,1.8,1.8h0.6c0.2,0,0.3,0.1,0.3,0.3l0,0v1.7c0,0.2-0.1,0.3-0.3,0.3l0,0h-1V20.9z"/>
<path class="st0" d="M105.5,17.2c-0.4-1.2-0.5-2.4-0.5-3.6c-0.1-1.2,0.1-2.5,0.4-3.6c1.1-3.1,4.6-4.7,7.7-3.6c1.7,0.6,3,1.9,3.6,3.6
	c0.4,1.3,0.5,2.7,0.4,4.1c0,0.2-0.1,0.3-0.3,0.3c0,0,0,0-0.1,0h-9.1c-0.1,0-0.2,0-0.2,0.1l0,0c0,0.6,0.1,1.2,0.2,1.7
	c0.5,1.6,2,2.6,3.6,2.5c1.4,0.1,2.8-0.5,3.7-1.6c0.1-0.1,0.3-0.2,0.4-0.1l0,0l1.2,1.1c0.1,0.1,0.1,0.3,0,0.4l0,0
	c-1.4,1.6-3.5,2.5-5.6,2.5C108.4,21.1,106.3,19.6,105.5,17.2z M114.5,12.3c0.1,0,0.2,0,0.2-0.1l0,0c0-0.5-0.1-1.1-0.2-1.6
	c-0.7-1.8-2.8-2.7-4.6-2c-0.9,0.4-1.7,1.1-2,2c-0.2,0.5-0.2,1.1-0.2,1.6c0,0.1,0,0.2,0.1,0.2l0,0L114.5,12.3L114.5,12.3z"/>
<path class="st0" d="M130.3,20.7c-0.2,0-0.3-0.1-0.3-0.3l0,0V19l0,0c-0.9,1.4-2.5,2.1-4.1,2c-2.3,0.2-4.3-1.3-4.9-3.5
	c-0.4-1.3-0.6-2.7-0.5-4.1c-0.1-1.4,0.1-2.7,0.5-4c0.6-2.2,2.6-3.7,4.9-3.5c1.6-0.2,3.2,0.6,4.1,2l0,0V0.6c0-0.2,0.1-0.3,0.3-0.3
	l0,0h1.9c0.2,0,0.3,0.1,0.3,0.3l0,0v19.8c0,0.2-0.1,0.3-0.3,0.3l0,0L130.3,20.7z M129.6,16.5c0.3-1,0.4-2,0.3-3c0.1-1-0.1-2-0.3-3
	c-0.7-1.7-2.7-2.6-4.4-1.9c-0.9,0.3-1.6,1-1.9,1.9c-0.3,1-0.4,2-0.3,3c0,1,0.1,2,0.3,3c0.7,1.7,2.6,2.6,4.4,2
	C128.6,18.2,129.3,17.4,129.6,16.5z"/>
<path class="st0" d="M144.9,20.7c-0.2,0-0.3-0.1-0.3-0.3l0,0V0.6c0-0.2,0.1-0.3,0.3-0.3l0,0h1.9c0.2,0,0.3,0.1,0.3,0.3l0,0V8l0,0
	c0.9-1.4,2.5-2.2,4.1-2c2.3-0.2,4.4,1.2,5,3.4c0.4,1.3,0.6,2.6,0.5,4c0.1,1.4-0.1,2.8-0.5,4.1c-0.6,2.2-2.7,3.7-5,3.5
	c-1.6,0.1-3.2-0.6-4.1-2l0,0v1.4c0,0.2-0.1,0.3-0.3,0.3l0,0L144.9,20.7z M153.8,16.5c0.3-1,0.4-2,0.3-3c0-1-0.1-2-0.3-3
	c-0.7-1.7-2.7-2.6-4.4-1.9c-0.9,0.3-1.6,1-1.9,1.9c-0.3,1-0.4,2-0.3,3c-0.1,1,0.1,2,0.3,3c0.7,1.7,2.6,2.6,4.4,2
	C152.7,18.2,153.4,17.4,153.8,16.5z"/>
<path class="st0" d="M160.7,26.1c-0.2,0-0.3-0.1-0.3-0.3l0,0v-1.7c0-0.2,0.1-0.3,0.3-0.3l0,0h0.5c1.2,0,1.8-0.5,2.4-2.2l0.5-1.3
	l-5.3-13.7c-0.1-0.2,0-0.3,0.2-0.3h2.1c0.2,0,0.3,0.1,0.4,0.3l3.8,10.3h0.1L169,6.5c0-0.2,0.2-0.3,0.4-0.3h2c0.2,0,0.3,0.1,0.2,0.3
	L166,21.8c-1.3,3.4-2.4,4.3-4.5,4.3L160.7,26.1z"/>
<g>
	<path class="st1" d="M820,117.4l-4.1-1.8c-5.4-2.3-6.6-4.1-6.6-6.7c0-2.9,2.6-5,7.7-5c3.5,0,6.7,0.9,9,2l2-5.3
		c-3.3-1.5-6.7-2.1-11.4-2.1c-8.7,0-14.7,5.2-14.7,11.2c0,5.1,2.7,8.7,8.3,11.3l4.9,2.1c5.1,2.1,6.5,4,6.5,7.2c0,3-2.8,5.5-7.9,5.5
		c-3.9,0-7.7-1-11-2.6l-2.1,5.1c3.8,1.8,8.3,2.7,13.4,2.7c8.4,0,15-4.8,15-11.8C829,123.6,826.3,120.1,820,117.4z"/>
	<path class="st1" d="M846.4,135.8c-2,0-3.9-1.3-4.2-4c-0.3-3.9-0.1-9.7-0.1-15.2h9v-0.1v-4.7h-8.9c0-2.7,0.1-5.7,0.5-8.7l-7.1,1.6
		c0.1,2.6,0.1,4.4,0.1,7.2h-4.8v4.7h4.7c0,4.8-0.2,10.4-0.2,14.7c0,6.2,3.7,9.6,8.7,9.6c3.4,0,6.5-0.9,8.6-2.4l-1.4-4
		C849.9,135.4,848.4,135.8,846.4,135.8z"/>
	<path class="st1" d="M869.9,111.2c-9-0.1-15,6.6-15,15.1c0,8.6,5.7,14.5,15,14.5c8.9,0,15.1-6.7,15.1-15.1
		C885,117.2,879.1,111.2,869.9,111.2z M869.9,136.4c-5,0-7.8-4.3-7.8-10.4c0-6.1,2.9-10.3,7.8-10.3c4.9-0.1,7.9,4.1,7.9,10.3
		C877.8,132.1,874.9,136.4,869.9,136.4z"/>
	<path class="st1" d="M904.3,135.7c-5.2,0-9-3.3-9-10.5c-0.1-5.8,3.2-9.4,8.7-9.4c2.4,0,4.7,0.6,6.6,1.4l1.7-4.6
		c-2.6-1-5.2-1.5-8.9-1.5c-8.8,0-15.3,6.5-15.3,14.7c0,9.9,6.2,15,14.1,15c4.2,0,7.5-0.9,10.4-2.9l-1.6-4.2
		C909,135.1,906.7,135.7,904.3,135.7z"/>
	<path class="st1" d="M924.2,140L924.2,140c0,0,0,0.1,0,0.1V140z"/>
	<path class="st1" d="M930.6,124c3.8-3.7,9.7-9,13.2-12.3H936c-2.8,3-8.5,8.7-12.1,12.2c0-12.6,0-18.8,0.3-27.5h-7.3
		c0.3,8.7,0.3,13.7,0.3,22.5c0,8.2-0.1,13-0.3,21.1h7.3c-0.2-5.2-0.3-9.9-0.3-14.2c3.6,4.6,9.7,11.3,13.7,15.4l7.1-2.7
		C940.5,134.8,934.2,128.4,930.6,124z"/>
	<path class="st1" d="M948.2,96.5c0.3,8.7,0.3,13.7,0.3,22.5c0,8.2-0.1,13-0.3,21.1h7.3c-0.4-8.1-0.4-12.8-0.4-21.1
		c0-8.8,0.1-13.8,0.4-22.5H948.2z"/>
	<path class="st1" d="M983.3,112.1c-2.1-0.7-4.1-1-7.1-1c-8.8,0-16,6.3-16,15.6c0,9.1,5.3,14.1,11,14.1c3.8,0,7.5-1.7,9.7-5.3
		l0.5,4.6h6.6c-0.3-6.1-0.3-8.7-0.3-14.8c0-5.9,0.1-9,0.5-14.7L983.3,112.1z M980.9,131.4c-1.8,2.9-4.1,4.1-6.6,4.1
		c-4.1-0.1-7.1-3.2-7.1-10.2c0-6.3,4.1-9.8,8.7-9.8c2.1,0,3.5,0.3,5,1c0.1,1.4,0.2,5,0.2,8.3C981.1,127.1,981,129.7,980.9,131.4z"/>
	<path class="st1" d="M1021.4,121.4c0-6.5-3.8-10.3-9.3-10.3c-4.2,0-7.3,1.8-9.6,5.3l-0.6-4.6h-6.6c0.3,5.8,0.3,8.5,0.3,14.3
		c0,5.4,0,8.7-0.3,14.1h7.3c-0.2-4.1-0.3-6.5-0.3-10.6c0-3.2,0.1-6.8,0.3-9.1c1.7-2.7,4.1-4,6.5-4c3,0,5,1.8,5.2,5.5
		c0.1,1.9,0.2,5.4,0.2,8.7c0,3.7,0,5.8-0.3,9.4h7.3c-0.3-3.8-0.3-6-0.3-9.7C1021.2,127.3,1021.4,125.1,1021.4,121.4z"/>
	<path class="st1" d="M1054.3,96.4h-7.2v0.1c0.2,5.8,0.3,10.2,0.3,15.1c-1.4-0.3-2.8-0.6-4.9-0.6c-8.8,0-16,6.3-16,15.6
		c0,9.1,5.2,14.1,11,14.1c3.8,0,7.5-1.7,9.7-5.3l0.5,4.6h6.6c-0.3-8.1-0.3-12.9-0.3-21.1C1054,110.1,1054,105.1,1054.3,96.4z
		 M1047.2,131.4c-1.8,2.9-4.1,4.1-6.6,4.1c-4-0.1-7-3.2-7-10.2c0-6.4,4.1-9.8,8.7-9.8c2,0,3.5,0.3,5,1c0.1,1.8,0.1,5,0.1,8.3
		C1047.4,127.1,1047.3,129.7,1047.2,131.4z"/>
	<path class="st1" d="M687.9,162.2h84.9V77.3h-84.9V162.2z M732.5,148.5c10.4-0.9,18.5-9.7,18.5-20.4c0-10.7-8.2-19.6-18.5-20.4
		v-3.3c10.9,0.8,19.8,9.1,21.5,19.9v-0.2c0-12.4-9.5-22.5-21.5-23.4v-4.3c12,0.7,21.9,9.3,24.8,20.7c-1.2-13.2-11.7-23.6-24.8-24.4
		v-5.1c16.8,0.9,30.1,14.9,30.1,32.1s-13.3,31.2-30.1,32.1V148.5z M728.3,87.7V91c-10.4,0.9-18.5,9.7-18.5,20.4s8.2,19.6,18.5,20.4
		v3.3c-10.9-0.8-19.8-9.1-21.5-19.9v0.2c0,12.4,9.5,22.5,21.5,23.4v4.3c-12-0.7-21.9-9.3-24.8-20.8c1.2,13.2,11.7,23.6,24.8,24.4
		v5.2c-16.8-0.9-30.1-14.9-30.1-32.1C698.2,102.6,711.5,88.6,728.3,87.7z"/>
</g>
</svg>
